  0
SECTION
  2
HEADER
  9
$ACADVER
  1
AC1024
  9
$ACADMAINTVER
 70
     6
  9
$DWGCODEPAGE
  3
UNDEFINED
  9
$INSBASE
 10
0.0
 20
0.0
 30
0.0
  9
$EXTMIN
 10
1.000000000000000E+20
 20
1.000000000000000E+20
 30
1.000000000000000E+20
  9
$EXTMAX
 10
-1.000000000000000E+20
 20
-1.000000000000000E+20
 30
-1.000000000000000E+20
  9
$LIMMIN
 10
0.0
 20
0.0
  9
$LIMMAX
 10
12.0
 20
9.0
  9
$ORTHOMODE
 70
     0
  9
$REGENMODE
 70
     1
  9
$FILLMODE
 70
     1
  9
$QTEXTMODE
 70
     0
  9
$MIRRTEXT
 70
     1
  9
$LTSCALE
 40
1.0
  9
$ATTMODE
 70
     1
  9
$TEXTSIZE
 40
0.2
  9
$TRACEWID
 40
0.05
  9
$TEXTSTYLE
  7
Standard
  9
$CLAYER
  8
0
  9
$CELTYPE
  6
ByLayer
  9
$CECOLOR
 62
   256
  9
$CELTSCALE
 40
1.0
  9
$DISPSILH
 70
     0
  9
$DIMSCALE
 40
1.0
  9
$DIMASZ
 40
0.18
  9
$DIMEXO
 40
0.0625
  9
$DIMDLI
 40
0.38
  9
$DIMRND
 40
0.0
  9
$DIMDLE
 40
0.0
  9
$DIMEXE
 40
0.18
  9
$DIMTP
 40
0.0
  9
$DIMTM
 40
0.0
  9
$DIMTXT
 40
0.18
  9
$DIMCEN
 40
0.09
  9
$DIMTSZ
 40
0.0
  9
$DIMTOL
 70
     0
  9
$DIMLIM
 70
     0
  9
$DIMTIH
 70
     1
  9
$DIMTOH
 70
     1
  9
$DIMSE1
 70
     0
  9
$DIMSE2
 70
     0
  9
$DIMTAD
 70
     0
  9
$DIMZIN
 70
     0
  9
$DIMBLK
  1

  9
$DIMASO
 70
     1
  9
$DIMSHO
 70
     1
  9
$DIMPOST
  1

  9
$DIMAPOST
  1

  9
$DIMALT
 70
     0
  9
$DIMALTD
 70
     2
  9
$DIMALTF
 40
25.4
  9
$DIMLFAC
 40
1.0
  9
$DIMTOFL
 70
     0
  9
$DIMTVP
 40
0.0
  9
$DIMTIX
 70
     0
  9
$DIMSOXD
 70
     0
  9
$DIMSAH
 70
     0
  9
$DIMBLK1
  1

  9
$DIMBLK2
  1

  9
$DIMSTYLE
  2
Standard
  9
$DIMCLRD
 70
     0
  9
$DIMCLRE
 70
     0
  9
$DIMCLRT
 70
     0
  9
$DIMTFAC
 40
1.0
  9
$DIMGAP
 40
0.09
  9
$DIMJUST
 70
     0
  9
$DIMSD1
 70
     0
  9
$DIMSD2
 70
     0
  9
$DIMTOLJ
 70
     1
  9
$DIMTZIN
 70
     0
  9
$DIMALTZ
 70
     0
  9
$DIMALTTZ
 70
     0
  9
$DIMUPT
 70
     0
  9
$DIMDEC
 70
     4
  9
$DIMTDEC
 70
     4
  9
$DIMALTU
 70
     2
  9
$DIMALTTD
 70
     2
  9
$DIMTXSTY
  7
Standard
  9
$DIMAUNIT
 70
     0
  9
$DIMADEC
 70
     0
  9
$DIMALTRND
 40
0.0
  9
$DIMAZIN
 70
     0
  9
$DIMDSEP
 70
    46
  9
$DIMATFIT
 70
     3
  9
$DIMFRAC
 70
     0
  9
$DIMLDRBLK
  1

  9
$DIMLUNIT
 70
     2
  9
$DIMLWD
 70
    -2
  9
$DIMLWE
 70
    -2
  9
$DIMTMOVE
 70
     0
  9
$DIMFXL
 40
1.0
  9
$DIMFXLON
 70
     0
  9
$DIMJOGANG
 40
0.7853981633974483
  9
$DIMTFILL
 70
     0
  9
$DIMTFILLCLR
 70
     0
  9
$DIMARCSYM
 70
     0
  9
$DIMLTYPE
  6

  9
$DIMLTEX1
  6

  9
$DIMLTEX2
  6

  9
$DIMTXTDIRECTION
 70
     0
  9
$LUNITS
 70
     2
  9
$LUPREC
 70
     4
  9
$SKETCHINC
 40
0.1
  9
$FILLETRAD
 40
0.5
  9
$AUNITS
 70
     0
  9
$AUPREC
 70
     0
  9
$MENU
  1
.
  9
$ELEVATION
 40
0.0
  9
$PELEVATION
 40
0.0
  9
$THICKNESS
 40
0.0
  9
$LIMCHECK
 70
     0
  9
$CHAMFERA
 40
0.5
  9
$CHAMFERB
 40
0.5
  9
$CHAMFERC
 40
1.0
  9
$CHAMFERD
 40
0.0
  9
$SKPOLY
 70
     0
  9
$TDCREATE
 40
2457863.415243044
  9
$TDUCREATE
 40
2457863.623576389
  9
$TDUPDATE
 40
2457863.415243044
  9
$TDUUPDATE
 40
2457863.623576389
  9
$TDINDWG
 40
0.0000000116
  9
$TDUSRTIMER
 40
0.0000000116
  9
$USRTIMER
 70
     1
  9
$ANGBASE
 50
0.0
  9
$ANGDIR
 70
     0
  9
$PDMODE
 70
     0
  9
$PDSIZE
 40
0.0
  9
$PLINEWID
 40
0.0
  9
$SPLFRAME
 70
     0
  9
$SPLINETYPE
 70
     6
  9
$SPLINESEGS
 70
     8
  9
$HANDSEED
  5
8F
  9
$SURFTAB1
 70
     6
  9
$SURFTAB2
 70
     6
  9
$SURFTYPE
 70
     6
  9
$SURFU
 70
     6
  9
$SURFV
 70
     6
  9
$UCSBASE
  2

  9
$UCSNAME
  2

  9
$UCSORG
 10
0.0
 20
0.0
 30
0.0
  9
$UCSXDIR
 10
1.0
 20
0.0
 30
0.0
  9
$UCSYDIR
 10
0.0
 20
1.0
 30
0.0
  9
$UCSORTHOREF
  2

  9
$UCSORTHOVIEW
 70
     0
  9
$UCSORGTOP
 10
0.0
 20
0.0
 30
0.0
  9
$UCSORGBOTTOM
 10
0.0
 20
0.0
 30
0.0
  9
$UCSORGLEFT
 10
0.0
 20
0.0
 30
0.0
  9
$UCSORGRIGHT
 10
0.0
 20
0.0
 30
0.0
  9
$UCSORGFRONT
 10
0.0
 20
0.0
 30
0.0
  9
$UCSORGBACK
 10
0.0
 20
0.0
 30
0.0
  9
$PUCSBASE
  2

  9
$PUCSNAME
  2

  9
$PUCSORG
 10
0.0
 20
0.0
 30
0.0
  9
$PUCSXDIR
 10
1.0
 20
0.0
 30
0.0
  9
$PUCSYDIR
 10
0.0
 20
1.0
 30
0.0
  9
$PUCSORTHOREF
  2

  9
$PUCSORTHOVIEW
 70
     0
  9
$PUCSORGTOP
 10
0.0
 20
0.0
 30
0.0
  9
$PUCSORGBOTTOM
 10
0.0
 20
0.0
 30
0.0
  9
$PUCSORGLEFT
 10
0.0
 20
0.0
 30
0.0
  9
$PUCSORGRIGHT
 10
0.0
 20
0.0
 30
0.0
  9
$PUCSORGFRONT
 10
0.0
 20
0.0
 30
0.0
  9
$PUCSORGBACK
 10
0.0
 20
0.0
 30
0.0
  9
$USERI1
 70
     0
  9
$USERI2
 70
     0
  9
$USERI3
 70
     0
  9
$USERI4
 70
     0
  9
$USERI5
 70
     0
  9
$USERR1
 40
0.0
  9
$USERR2
 40
0.0
  9
$USERR3
 40
0.0
  9
$USERR4
 40
0.0
  9
$USERR5
 40
0.0
  9
$WORLDVIEW
 70
     1
  9
$SHADEDGE
 70
     3
  9
$SHADEDIF
 70
    70
  9
$TILEMODE
 70
     1
  9
$MAXACTVP
 70
    64
  9
$PINSBASE
 10
0.0
 20
0.0
 30
0.0
  9
$PLIMCHECK
 70
     0
  9
$PEXTMIN
 10
1.000000000000000E+20
 20
1.000000000000000E+20
 30
1.000000000000000E+20
  9
$PEXTMAX
 10
-1.000000000000000E+20
 20
-1.000000000000000E+20
 30
-1.000000000000000E+20
  9
$PLIMMIN
 10
0.0
 20
0.0
  9
$PLIMMAX
 10
12.0
 20
9.0
  9
$UNITMODE
 70
     0
  9
$VISRETAIN
 70
     1
  9
$PLINEGEN
 70
     0
  9
$PSLTSCALE
 70
     1
  9
$TREEDEPTH
 70
  3020
  9
$CMLSTYLE
  2
Standard
  9
$CMLJUST
 70
     0
  9
$CMLSCALE
 40
1.0
  9
$PROXYGRAPHICS
 70
     1
  9
$MEASUREMENT
 70
     0
  9
$CELWEIGHT
370
    -1
  9
$ENDCAPS
280
     0
  9
$JOINSTYLE
280
     0
  9
$LWDISPLAY
290
     1
  9
$INSUNITS
 70
     1
  9
$HYPERLINKBASE
  1

  9
$STYLESHEET
  1

  9
$XEDIT
290
     1
  9
$CEPSNTYPE
380
     0
  9
$PSTYLEMODE
290
     1
  9
$FINGERPRINTGUID
  2
{7554B9C5-3542-2B61-55D5-0ADDF851717D}
  9
$VERSIONGUID
  2
{FAEB1C32-E019-11D5-929B-00C0DF256EC4}
  9
$EXTNAMES
290
     1
  9
$PSVPSCALE
 40
0.0
  9
$OLESTARTUP
290
     0
  9
$SORTENTS
280
   127
  9
$INDEXCTL
280
     0
  9
$HIDETEXT
280
     1
  9
$XCLIPFRAME
280
     2
  9
$HALOGAP
280
     0
  9
$OBSCOLOR
 70
   257
  9
$OBSLTYPE
280
     0
  9
$INTERSECTIONDISPLAY
280
     0
  9
$INTERSECTIONCOLOR
 70
   257
  9
$DIMASSOC
280
     2
  9
$PROJECTNAME
  1

  9
$CAMERADISPLAY
290
     0
  9
$LENSLENGTH
 40
50.0
  9
$CAMERAHEIGHT
 40
0.0
  9
$STEPSPERSEC
 40
2.0
  9
$STEPSIZE
 40
6.0
  9
$3DDWFPREC
 40
2.0
  9
$PSOLWIDTH
 40
0.25
  9
$PSOLHEIGHT
 40
4.0
  9
$LOFTANG1
 40
1.570796326794897
  9
$LOFTANG2
 40
1.570796326794897
  9
$LOFTMAG1
 40
0.0
  9
$LOFTMAG2
 40
0.0
  9
$LOFTPARAM
 70
     7
  9
$LOFTNORMALS
280
     1
  9
$LATITUDE
 40
37.795
  9
$LONGITUDE
 40
-122.394
  9
$NORTHDIRECTION
 40
0.0
  9
$TIMEZONE
 70
 -8000
  9
$LIGHTGLYPHDISPLAY
280
     1
  9
$TILEMODELIGHTSYNCH
280
     1
  9
$CMATERIAL
347
3C
  9
$SOLIDHIST
280
     1
  9
$SHOWHIST
280
     1
  9
$DWFFRAME
280
     2
  9
$DGNFRAME
280
     2
  9
$REALWORLDSCALE
290
     1
  9
$INTERFERECOLOR
 62
   256
  9
$CSHADOW
280
     0
  9
$SHADOWPLANELOCATION
 40
0.0
  0
ENDSEC
  0
SECTION
  2
CLASSES
  0
CLASS
  1
ACDBDICTIONARYWDFLT
  2
AcDbDictionaryWithDefault
  3
ObjectDBX Classes
 90
        0
 91
        4
280
     0
281
     0
  0
CLASS
  1
VISUALSTYLE
  2
AcDbVisualStyle
  3
ObjectDBX Classes
 90
     4095
 91
        4
280
     0
281
     0
  0
CLASS
  1
MATERIAL
  2
AcDbMaterial
  3
ObjectDBX Classes
 90
     1153
 91
        4
280
     0
281
     0
  0
CLASS
  1
SUN
  2
AcDbSun
  3
SCENEOE
 90
     1024
 91
        4
280
     0
281
     0
  0
ENDSEC
  0
SECTION
  2
TABLES
  0
TABLE
  2
VPORT
  5
8
330
0
100
AcDbSymbolTable
 70
     1
  0
VPORT
  5
29
330
8
100
AcDbSymbolTableRecord
100
AcDbViewportTableRecord
  2
*Active
 70
     0
 10
0.0
 20
0.0
 11
1.0
 21
1.0
 12
0.0
 22
0.0
 13
0.0
 23
0.0
 14
0.5
 24
0.5
 15
0.5
 25
0.5
 16
0.0
 26
0.0
 36
1.0
 17
2.0
 27
-2.0
 37
0.0
 40
4.0
 41
1.0
 42
50.0
 43
0.0
 44
0.0
 50
0.0
 51
0.0
 71
     0
 72
   100
 73
     1
 74
     3
 75
     0
 76
     0
 77
     0
 78
     0
281
     0
 65
     1
110
0.0
120
0.0
130
0.0
111
1.0
121
0.0
131
0.0
112
0.0
122
1.0
132
0.0
 79
     0
146
0.0
 60
     3
 61
     5
292
     1
282
     1
141
0.0
142
0.0
 63
   250
361
3F
  0
ENDTAB
  0
TABLE
  2
LTYPE
  5
5
330
0
100
AcDbSymbolTable
 70
     1
  0
LTYPE
  5
14
330
5
100
AcDbSymbolTableRecord
100
AcDbLinetypeTableRecord
  2
ByBlock
 70
     0
  3

 72
    65
 73
     0
 40
0.0
  0
LTYPE
  5
15
330
5
100
AcDbSymbolTableRecord
100
AcDbLinetypeTableRecord
  2
ByLayer
 70
     0
  3

 72
    65
 73
     0
 40
0.0
  0
LTYPE
  5
16
330
5
100
AcDbSymbolTableRecord
100
AcDbLinetypeTableRecord
  2
Continuous
 70
     0
  3
Solid line
 72
    65
 73
     0
 40
0.0
  0
ENDTAB
  0
TABLE
  2
LAYER
  5
2
330
0
100
AcDbSymbolTable
 70
     2
  0
LAYER
  5
10
330
2
100
AcDbSymbolTableRecord
100
AcDbLayerTableRecord
  2
0
 70
     0
 62
     7
  6
Continuous
370
    -3
390
F
347
3E
  0
LAYER
  5
40
330
2
100
AcDbSymbolTableRecord
100
AcDbLayerTableRecord
  2
Layer 1
 70
     0
 62
     7
  6
Continuous
370
    -3
390
F
347
3E
  0
ENDTAB
  0
TABLE
  2
STYLE
  5
3
330
0
100
AcDbSymbolTable
 70
     1
  0
STYLE
  5
11
330
3
100
AcDbSymbolTableRecord
100
AcDbTextStyleTableRecord
  2
Standard
 70
     0
 40
0.0
 41
1.0
 50
0.0
 71
     0
 42
0.2
  3
txt
  4

  0
ENDTAB
  0
TABLE
  2
VIEW
  5
6
330
0
100
AcDbSymbolTable
 70
     0
  0
ENDTAB
  0
TABLE
  2
UCS
  5
7
330
0
100
AcDbSymbolTable
 70
     0
  0
ENDTAB
  0
TABLE
  2
APPID
  5
9
330
0
100
AcDbSymbolTable
 70
     1
  0
APPID
  5
12
330
9
100
AcDbSymbolTableRecord
100
AcDbRegAppTableRecord
  2
ACAD
 70
     0
  0
ENDTAB
  0
TABLE
  2
DIMSTYLE
  5
A
330
0
100
AcDbSymbolTable
 70
     1
100
AcDbDimStyleTable
  0
DIMSTYLE
105
27
330
A
100
AcDbSymbolTableRecord
100
AcDbDimStyleTableRecord
  2
Standard
 70
     0
178
     0
340
11
  0
ENDTAB
  0
TABLE
  2
BLOCK_RECORD
  5
1
330
0
100
AcDbSymbolTable
 70
     1
  0
BLOCK_RECORD
  5
1F
330
1
100
AcDbSymbolTableRecord
100
AcDbBlockTableRecord
  2
*Model_Space
340
22
 70
     0
280
     1
281
     0
  0
BLOCK_RECORD
  5
1B
330
1
100
AcDbSymbolTableRecord
100
AcDbBlockTableRecord
  2
*Paper_Space
340
1E
 70
     0
280
     1
281
     0
  0
BLOCK_RECORD
  5
23
330
1
100
AcDbSymbolTableRecord
100
AcDbBlockTableRecord
  2
*Paper_Space0
340
26
 70
     0
280
     1
281
     0
  0
ENDTAB
  0
ENDSEC
  0
SECTION
  2
BLOCKS
  0
BLOCK
  5
20
330
1F
100
AcDbEntity
  8
0
100
AcDbBlockBegin
  2
*Model_Space
 70
     0
 10
0.0
 20
0.0
 30
0.0
  3
*Model_Space
  1

  0
ENDBLK
  5
21
330
1F
100
AcDbEntity
  8
0
100
AcDbBlockEnd
  0
BLOCK
  5
1C
330
1B
100
AcDbEntity
 67
     1
  8
0
100
AcDbBlockBegin
  2
*Paper_Space
 70
     0
 10
0.0
 20
0.0
 30
0.0
  3
*Paper_Space
  1

  0
ENDBLK
  5
1D
330
1B
100
AcDbEntity
 67
     1
  8
0
100
AcDbBlockEnd
  0
BLOCK
  5
24
330
23
100
AcDbEntity
  8
0
100
AcDbBlockBegin
  2
*Paper_Space0
 70
     0
 10
0.0
 20
0.0
 30
0.0
  3
*Paper_Space0
  1

  0
ENDBLK
  5
25
330
23
100
AcDbEntity
  8
0
100
AcDbBlockEnd
  0
ENDSEC
  0
SECTION
  2
ENTITIES
  0
SPLINE
  5
41
330
1F
100
AcDbEntity
  8
Layer 1
 62
   178
420
    65793
370
    35
100
AcDbSpline
210
0.0
220
0.0
230
1.0
 70
    11
 71
     3
 72
    17
 73
    13
 74
     0
 42
0.0000000001
 43
0.0000000001
 12
1.0
 22
0.0
 32
0.0
 13
1.0
 23
0.0
 33
0.0
 40
0.0
 40
0.0
 40
0.0
 40
0.0
 40
1.0
 40
1.0
 40
1.0
 40
2.0
 40
2.0
 40
2.0
 40
3.0
 40
3.0
 40
3.0
 40
4.0
 40
4.0
 40
4.0
 40
4.0
 10
1.996639121104964
 20
-1.214853685167125
 30
0.0
 10
1.444504077430919
 20
-1.214853685167125
 30
0.0
 10
0.9969137793080891
 20
-1.662443983289904
 30
0.0
 10
0.9969137793080891
 20
-2.214579026964
 30
0.0
 10
0.9969137793080891
 20
-2.766704745822507
 30
0.0
 10
1.444504077430919
 20
-3.214303521050371
 30
0.0
 10
1.996639121104964
 20
-3.214303521050371
 30
0.0
 10
2.548765687673975
 20
-3.214303521050371
 30
0.0
 10
2.996363615191335
 20
-2.766704745822507
 30
0.0
 10
2.996363615191335
 20
-2.214579026964
 30
0.0
 10
2.996363615191335
 20
-1.662443983289904
 30
0.0
 10
2.548765687673975
 20
-1.214853685167125
 30
0.0
 10
1.996639121104964
 20
-1.214853685167125
 30
0.0
  0
SPLINE
  5
42
330
1F
100
AcDbEntity
  8
Layer 1
 62
   178
420
    65793
370
    35
100
AcDbSpline
210
0.0
220
0.0
230
1.0
 70
    11
 71
     3
 72
    17
 73
    13
 74
     0
 42
0.0000000001
 43
0.0000000001
 12
1.0
 22
0.0
 32
0.0
 13
1.0
 23
0.0
 33
0.0
 40
0.0
 40
0.0
 40
0.0
 40
0.0
 40
1.0
 40
1.0
 40
1.0
 40
2.0
 40
2.0
 40
2.0
 40
3.0
 40
3.0
 40
3.0
 40
4.0
 40
4.0
 40
4.0
 40
4.0
 10
2.790572565657915
 20
-1.958718804253522
 30
0.0
 10
2.812796991927446
 20
-1.952767876519071
 30
0.0
 10
2.835633465180485
 20
-1.965958251953099
 30
0.0
 10
2.841594565440901
 20
-1.988174201117646
 30
0.0
 10
2.847547188596284
 20
-2.010399475097668
 30
0.0
 10
2.83436529026729
 20
-2.033235948350719
 30
0.0
 10
2.812130691471717
 20
-2.0391885715061
 30
0.0
 10
2.789915590017725
 20
-2.045149671766517
 30
0.0
 10
2.767069791949148
 20
-2.031957600911483
 30
0.0
 10
2.761126493609304
 20
-2.009742499457477
 30
0.0
 10
2.755165393348888
 20
-1.987516377766951
 30
0.0
 10
2.768355768782915
 20
-1.96467142740879
 30
0.0
 10
2.790572565657915
 20
-1.958718804253522
 30
0.0
  0
SPLINE
  5
43
330
1F
100
AcDbEntity
  8
Layer 1
 62
   178
420
    65793
370
    35
100
AcDbSpline
210
0.0
220
0.0
230
1.0
 70
    11
 71
     3
 72
    17
 73
    13
 74
     0
 42
0.0000000001
 43
0.0000000001
 12
1.0
 22
0.0
 32
0.0
 13
1.0
 23
0.0
 33
0.0
 40
0.0
 40
0.0
 40
0.0
 40
0.0
 40
1.0
 40
1.0
 40
1.0
 40
2.0
 40
2.0
 40
2.0
 40
3.0
 40
3.0
 40
3.0
 40
4.0
 40
4.0
 40
4.0
 40
4.0
 10
2.556284879839773
 20
-1.596028408474328
 30
0.0
 10
2.572549053559391
 20
-1.579765082465327
 30
0.0
 10
2.598920479611909
 20
-1.579765082465327
 30
0.0
 10
2.615184653331526
 20
-1.596028408474328
 30
0.0
 10
2.631458151866683
 20
-1.612292582194073
 30
0.0
 10
2.631458151866683
 20
-1.638674180772543
 30
0.0
 10
2.615184653331526
 20
-1.654938354492123
 30
0.0
 10
2.598920479611909
 20
-1.671211853027406
 30
0.0
 10
2.572549053559391
 20
-1.671211853027406
 30
0.0
 10
2.556284879839773
 20
-1.654938354492123
 30
0.0
 10
2.540011381304617
 20
-1.638674180772543
 30
0.0
 10
2.540011381304617
 20
-1.612292582194073
 30
0.0
 10
2.556284879839773
 20
-1.596028408474328
 30
0.0
  0
SPLINE
  5
44
330
1F
100
AcDbEntity
  8
Layer 1
 62
   178
420
    65793
370
    35
100
AcDbSpline
210
0.0
220
0.0
230
1.0
 70
    11
 71
     3
 72
    17
 73
    13
 74
     0
 42
0.0000000001
 43
0.0000000001
 12
1.0
 22
0.0
 32
0.0
 13
1.0
 23
0.0
 33
0.0
 40
0.0
 40
0.0
 40
0.0
 40
0.0
 40
1.0
 40
1.0
 40
1.0
 40
2.0
 40
2.0
 40
2.0
 40
3.0
 40
3.0
 40
3.0
 40
4.0
 40
4.0
 40
4.0
 40
4.0
 10
2.569538833561561
 20
-1.961736653645883
 30
0.0
 10
2.5911546036896
 20
-1.953858879937128
 30
0.0
 10
2.615054105913992
 20
-1.965013054741689
 30
0.0
 10
2.622931879622759
 20
-1.986628824869803
 30
0.0
 10
2.630800328515988
 20
-2.008242899576834
 30
0.0
 10
2.619655478526839
 20
-2.032152574327281
 30
0.0
 10
2.598040556109304
 20
-2.040020175510007
 30
0.0
 10
2.576416308876231
 20
-2.047888624403236
 30
0.0
 10
2.552516806651839
 20
-2.036743774414087
 30
0.0
 10
2.544639032943071
 20
-2.015120374891517
 30
0.0
 10
2.536770584049842
 20
-1.993506300184473
 30
0.0
 10
2.547915434038992
 20
-1.969605102539074
 30
0.0
 10
2.569538833561561
 20
-1.961736653645883
 30
0.0
  0
SPLINE
  5
45
330
1F
100
AcDbEntity
  8
Layer 1
 62
   178
420
    65793
370
    35
100
AcDbSpline
210
0.0
220
0.0
230
1.0
 70
    11
 71
     3
 72
    17
 73
    13
 74
     0
 42
0.0000000001
 43
0.0000000001
 12
1.0
 22
0.0
 32
0.0
 13
1.0
 23
0.0
 33
0.0
 40
0.0
 40
0.0
 40
0.0
 40
0.0
 40
1.0
 40
1.0
 40
1.0
 40
2.0
 40
2.0
 40
2.0
 40
3.0
 40
3.0
 40
3.0
 40
4.0
 40
4.0
 40
4.0
 40
4.0
 10
2.377117874088905
 20
-1.472260979546427
 30
0.0
 10
2.388623848752534
 20
-1.452341478135875
 30
0.0
 10
2.414098397092377
 20
-1.4455089314778
 30
0.0
 10
2.434019593923975
 20
-1.457014906141429
 30
0.0
 10
2.453939943045068
 20
-1.468521728515599
 30
0.0
 10
2.460770794282047
 20
-1.493995429144901
 30
0.0
 10
2.449265667328922
 20
-1.513915778265995
 30
0.0
 10
2.437757997244287
 20
-1.53383697509768
 30
0.0
 10
2.41228514432545
 20
-1.540668674045188
 30
0.0
 10
2.392363947493853
 20
-1.529161851671019
 30
0.0
 10
2.372442750662256
 20
-1.517665201822966
 30
0.0
 10
2.36561274713578
 20
-1.492181328667546
 30
0.0
 10
2.377117874088905
 20
-1.472260979546427
 30
0.0
  0
SPLINE
  5
46
330
1F
100
AcDbEntity
  8
Layer 1
 62
   178
420
    65793
370
    35
100
AcDbSpline
210
0.0
220
0.0
230
1.0
 70
    11
 71
     3
 72
    17
 73
    13
 74
     0
 42
0.0000000001
 43
0.0000000001
 12
1.0
 22
0.0
 32
0.0
 13
1.0
 23
0.0
 33
0.0
 40
0.0
 40
0.0
 40
0.0
 40
0.0
 40
1.0
 40
1.0
 40
1.0
 40
2.0
 40
2.0
 40
2.0
 40
3.0
 40
3.0
 40
3.0
 40
4.0
 40
4.0
 40
4.0
 40
4.0
 10
2.454846993283784
 20
-2.214579026964
 30
0.0
 10
2.454846993283784
 20
-2.237582499186222
 30
0.0
 10
2.436194819075884
 20
-2.256233825683618
 30
0.0
 10
2.413191346853662
 20
-2.256233825683618
 30
0.0
 10
2.390188722341943
 20
-2.256233825683618
 30
0.0
 10
2.371536548134044
 20
-2.237582499186222
 30
0.0
 10
2.371536548134044
 20
-2.214579026964
 30
0.0
 10
2.371536548134044
 20
-2.191575554741778
 30
0.0
 10
2.390188722341943
 20
-2.172924228244382
 30
0.0
 10
2.413191346853662
 20
-2.172924228244382
 30
0.0
 10
2.436194819075884
 20
-2.172924228244382
 30
0.0
 10
2.454846993283784
 20
-2.191575554741778
 30
0.0
 10
2.454846993283784
 20
-2.214579026964
 30
0.0
  0
SPLINE
  5
47
330
1F
100
AcDbEntity
  8
Layer 1
 62
   178
420
    65793
370
    35
100
AcDbSpline
210
0.0
220
0.0
230
1.0
 70
    11
 71
     3
 72
    17
 73
    13
 74
     0
 42
0.0000000001
 43
0.0000000001
 12
1.0
 22
0.0
 32
0.0
 13
1.0
 23
0.0
 33
0.0
 40
0.0
 40
0.0
 40
0.0
 40
0.0
 40
1.0
 40
1.0
 40
1.0
 40
2.0
 40
2.0
 40
2.0
 40
3.0
 40
3.0
 40
3.0
 40
4.0
 40
4.0
 40
4.0
 40
4.0
 10
2.393458341753835
 20
-1.985475938585081
 30
0.0
 10
2.404964316417464
 20
-2.005397135416678
 30
0.0
 10
2.398133465180485
 20
-2.030869988335528
 30
0.0
 10
2.378212268348888
 20
-2.042377658420163
 30
0.0
 10
2.358281746701752
 20
-2.053882785373288
 30
0.0
 10
2.332808046072412
 20
-2.047051086425805
 30
0.0
 10
2.321311396224321
 20
-2.027131585015215
 30
0.0
 10
2.309805421560693
 20
-2.007210388183618
 30
0.0
 10
2.316627795692638
 20
-1.981735839843761
 30
0.0
 10
2.336556621918766
 20
-1.970229865180184
 30
0.0
 10
2.356477818750363
 20
-1.958723042806014
 30
0.0
 10
2.381960844195242
 20
-1.965554741753522
 30
0.0
 10
2.393458341753835
 20
-1.985475938585081
 30
0.0
  0
SPLINE
  5
48
330
1F
100
AcDbEntity
  8
Layer 1
 62
   178
420
    65793
370
    35
100
AcDbSpline
210
0.0
220
0.0
230
1.0
 70
    11
 71
     3
 72
    17
 73
    13
 74
     0
 42
0.0000000001
 43
0.0000000001
 12
1.0
 22
0.0
 32
0.0
 13
1.0
 23
0.0
 33
0.0
 40
0.0
 40
0.0
 40
0.0
 40
0.0
 40
1.0
 40
1.0
 40
1.0
 40
2.0
 40
2.0
 40
2.0
 40
3.0
 40
3.0
 40
3.0
 40
4.0
 40
4.0
 40
4.0
 40
4.0
 10
2.27298087728986
 20
-1.652631734212264
 30
0.0
 10
2.284486004242985
 20
-1.632712232801711
 30
0.0
 10
2.309961400293332
 20
-1.62587968614365
 30
0.0
 10
2.329880901703922
 20
-1.637385660807265
 30
0.0
 10
2.349801250825016
 20
-1.648892483181435
 30
0.0
 10
2.356632949772499
 20
-1.674366183810738
 30
0.0
 10
2.345126127398367
 20
-1.694287380642411
 30
0.0
 10
2.333621000445242
 20
-1.714217902289483
 30
0.0
 10
2.308145604394895
 20
-1.721039428710873
 30
0.0
 10
2.288226102984304
 20
-1.709532606336855
 30
0.0
 10
2.26830575386321
 20
-1.698035956488651
 30
0.0
 10
2.261474054915728
 20
-1.672562255859349
 30
0.0
 10
2.27298087728986
 20
-1.652631734212264
 30
0.0
  0
SPLINE
  5
49
330
1F
100
AcDbEntity
  8
Layer 1
 62
   178
420
    65793
370
    35
100
AcDbSpline
210
0.0
220
0.0
230
1.0
 70
    11
 71
     3
 72
    17
 73
    13
 74
     0
 42
0.0000000001
 43
0.0000000001
 12
1.0
 22
0.0
 32
0.0
 13
1.0
 23
0.0
 33
0.0
 40
0.0
 40
0.0
 40
0.0
 40
0.0
 40
1.0
 40
1.0
 40
1.0
 40
2.0
 40
2.0
 40
2.0
 40
3.0
 40
3.0
 40
3.0
 40
4.0
 40
4.0
 40
4.0
 40
4.0
 10
2.168841337359305
 20
-1.833006727430605
 30
0.0
 10
2.18034900744394
 20
-1.813085530598932
 30
0.0
 10
2.205821860362776
 20
-1.806254679361991
 30
0.0
 10
2.225743057194374
 20
-1.817760654025594
 30
0.0
 10
2.245664254025971
 20
-1.829265780978795
 30
0.0
 10
2.252494257552446
 20
-1.854741177029066
 30
0.0
 10
2.240989130599321
 20
-1.874662373860739
 30
0.0
 10
2.229483155935693
 20
-1.894581027560738
 30
0.0
 10
2.20400860759585
 20
-1.901413574218799
 30
0.0
 10
2.184087410764252
 20
-1.889907599555184
 30
0.0
 10
2.164167909353662
 20
-1.878400777181014
 30
0.0
 10
2.15733621040618
 20
-1.852927076551711
 30
0.0
 10
2.168841337359305
 20
-1.833006727430605
 30
0.0
  0
SPLINE
  5
4A
330
1F
100
AcDbEntity
  8
Layer 1
 62
   178
420
    65793
370
    35
100
AcDbSpline
210
0.0
220
0.0
230
1.0
 70
    11
 71
     3
 72
    17
 73
    13
 74
     0
 42
0.0000000001
 43
0.0000000001
 12
1.0
 22
0.0
 32
0.0
 13
1.0
 23
0.0
 33
0.0
 40
0.0
 40
0.0
 40
0.0
 40
0.0
 40
1.0
 40
1.0
 40
1.0
 40
2.0
 40
2.0
 40
2.0
 40
3.0
 40
3.0
 40
3.0
 40
4.0
 40
4.0
 40
4.0
 40
4.0
 10
2.156185867252967
 20
-2.074367709689694
 30
0.0
 10
2.176107064084565
 20
-2.062861735026066
 30
0.0
 10
2.201580764713905
 20
-2.069692586263045
 30
0.0
 10
2.213087587088037
 20
-2.089613783094642
 30
0.0
 10
2.224585084646631
 20
-2.109534132215736
 30
0.0
 10
2.217762710514686
 20
-2.135009528266083
 30
0.0
 10
2.197841513683089
 20
-2.146514655219208
 30
0.0
 10
2.177912687456961
 20
-2.158020629882837
 30
0.0
 10
2.152437291406613
 20
-2.151189778645858
 30
0.0
 10
2.140940641558523
 20
-2.13126858181426
 30
0.0
 10
2.129434666894895
 20
-2.111348232693167
 30
0.0
 10
2.136257041026839
 20
-2.085874532063826
 30
0.0
 10
2.156185867252967
 20
-2.074367709689694
 30
0.0
  0
SPLINE
  5
4B
330
1F
100
AcDbEntity
  8
Layer 1
 62
   178
420
    65793
370
    35
100
AcDbSpline
210
0.0
220
0.0
230
1.0
 70
    11
 71
     3
 72
    17
 73
    13
 74
     0
 42
0.0000000001
 43
0.0000000001
 12
1.0
 22
0.0
 32
0.0
 13
1.0
 23
0.0
 33
0.0
 40
0.0
 40
0.0
 40
0.0
 40
0.0
 40
1.0
 40
1.0
 40
1.0
 40
2.0
 40
2.0
 40
2.0
 40
3.0
 40
3.0
 40
3.0
 40
4.0
 40
4.0
 40
4.0
 40
4.0
 10
2.064119420312863
 20
-1.592007717556435
 30
0.0
 10
2.068109593652707
 20
-1.569356045193078
 30
0.0
 10
2.089715191254704
 20
-1.554221869574626
 30
0.0
 10
2.11237534072302
 20
-1.558220520019467
 30
0.0
 10
2.135026165375797
 20
-1.5622200181749
 30
0.0
 10
2.150151016178749
 20
-1.58382476806643
 30
0.0
 10
2.146162538259912
 20
-1.606475592719208
 30
0.0
 10
2.142172364920068
 20
-1.629136589897939
 30
0.0
 10
2.120568462739079
 20
-1.644262288411432
 30
0.0
 10
2.097906617849756
 20
-1.640263637966566
 30
0.0
 10
2.075247316091943
 20
-1.63627346462671
 30
0.0
 10
2.060120769867985
 20
-1.614668714735179
 30
0.0
 10
2.064119420312863
 20
-1.592007717556435
 30
0.0
  0
SPLINE
  5
4C
330
1F
100
AcDbEntity
  8
Layer 1
 62
   178
420
    65793
370
    35
100
AcDbSpline
210
0.0
220
0.0
230
1.0
 70
    11
 71
     3
 72
    17
 73
    13
 74
     0
 42
0.0000000001
 43
0.0000000001
 12
1.0
 22
0.0
 32
0.0
 13
1.0
 23
0.0
 33
0.0
 40
0.0
 40
0.0
 40
0.0
 40
0.0
 40
1.0
 40
1.0
 40
1.0
 40
2.0
 40
2.0
 40
2.0
 40
3.0
 40
3.0
 40
3.0
 40
4.0
 40
4.0
 40
4.0
 40
4.0
 10
1.852339296072412
 20
-2.13126858181426
 30
0.0
 10
1.840841798513818
 20
-2.151189778645858
 30
0.0
 10
1.81535877306894
 20
-2.158020629882837
 30
0.0
 10
1.795437576237342
 20
-2.146514655219208
 30
0.0
 10
1.775517227116249
 20
-2.135009528266083
 30
0.0
 10
1.76868637587927
 20
-2.109534132215736
 30
0.0
 10
1.780191502832395
 20
-2.089613783094642
 30
0.0
 10
1.791697477496023
 20
-2.069692586263045
 30
0.0
 10
1.81717287354637
 20
-2.062861735026066
 30
0.0
 10
1.837093222667464
 20
-2.074367709689694
 30
0.0
 10
1.857012724078054
 20
-2.085874532063826
 30
0.0
 10
1.863844423025537
 20
-2.111348232693167
 30
0.0
 10
1.852339296072412
 20
-2.13126858181426
 30
0.0
  0
SPLINE
  5
4D
330
1F
100
AcDbEntity
  8
Layer 1
 62
   178
420
    65793
370
    35
100
AcDbSpline
210
0.0
220
0.0
230
1.0
 70
    11
 71
     3
 72
    17
 73
    13
 74
     0
 42
0.0000000001
 43
0.0000000001
 12
1.0
 22
0.0
 32
0.0
 13
1.0
 23
0.0
 33
0.0
 40
0.0
 40
0.0
 40
0.0
 40
0.0
 40
1.0
 40
1.0
 40
1.0
 40
2.0
 40
2.0
 40
2.0
 40
3.0
 40
3.0
 40
3.0
 40
4.0
 40
4.0
 40
4.0
 40
4.0
 10
1.809191679156179
 20
-1.889907599555184
 30
0.0
 10
1.789271330035086
 20
-1.901413574218799
 30
0.0
 10
1.763795933984738
 20
-1.894581027560738
 30
0.0
 10
1.752290807031613
 20
-1.874662373860739
 30
0.0
 10
1.740783984657481
 20
-1.854741177029066
 30
0.0
 10
1.747615683604964
 20
-1.829265780978795
 30
0.0
 10
1.767536032726058
 20
-1.817760654025594
 30
0.0
 10
1.787457229557655
 20
-1.806254679361991
 30
0.0
 10
1.812930930186995
 20
-1.813085530598932
 30
0.0
 10
1.824437752561127
 20
-1.833006727430605
 30
0.0
 10
1.835942879514252
 20
-1.852927076551711
 30
0.0
 10
1.82911118056677
 20
-1.878400777181014
 30
0.0
 10
1.809191679156179
 20
-1.889907599555184
 30
0.0
  0
SPLINE
  5
4E
330
1F
100
AcDbEntity
  8
Layer 1
 62
   178
420
    65793
370
    35
100
AcDbSpline
210
0.0
220
0.0
230
1.0
 70
    11
 71
     3
 72
    17
 73
    13
 74
     0
 42
0.0000000001
 43
0.0000000001
 12
1.0
 22
0.0
 32
0.0
 13
1.0
 23
0.0
 33
0.0
 40
0.0
 40
0.0
 40
0.0
 40
0.0
 40
1.0
 40
1.0
 40
1.0
 40
2.0
 40
2.0
 40
2.0
 40
3.0
 40
3.0
 40
3.0
 40
4.0
 40
4.0
 40
4.0
 40
4.0
 10
1.770235142969113
 20
-1.369628668890995
 30
0.0
 10
1.792459569238645
 20
-1.363667568630578
 30
0.0
 10
1.815296042491683
 20
-1.376857944064606
 30
0.0
 10
1.821248665647065
 20
-1.399083218044767
 30
0.0
 10
1.827209765907481
 20
-1.421309339735179
 30
0.0
 10
1.81401854276295
 20
-1.444144965277827
 30
0.0
 10
1.791802593598454
 20
-1.45009674072268
 30
0.0
 10
1.769576471907915
 20
-1.4560493638781
 30
0.0
 10
1.746732369260346
 20
-1.442867465549069
 30
0.0
 10
1.740779746104964
 20
-1.420642191569073
 30
0.0
 10
1.734827970660086
 20
-1.398416069878522
 30
0.0
 10
1.748018346094113
 20
-1.375580444335873
 30
0.0
 10
1.770235142969113
 20
-1.369628668890995
 30
0.0
  0
SPLINE
  5
4F
330
1F
100
AcDbEntity
  8
Layer 1
 62
   178
420
    65793
370
    35
100
AcDbSpline
210
0.0
220
0.0
230
1.0
 70
    11
 71
     3
 72
    17
 73
    13
 74
     0
 42
0.0000000001
 43
0.0000000001
 12
1.0
 22
0.0
 32
0.0
 13
1.0
 23
0.0
 33
0.0
 40
0.0
 40
0.0
 40
0.0
 40
0.0
 40
1.0
 40
1.0
 40
1.0
 40
2.0
 40
2.0
 40
2.0
 40
3.0
 40
3.0
 40
3.0
 40
4.0
 40
4.0
 40
4.0
 40
4.0
 10
1.615066821571544
 20
-2.042377658420163
 30
0.0
 10
1.59514647245045
 20
-2.030869988335528
 30
0.0
 10
1.588315621213471
 20
-2.005397135416678
 30
0.0
 10
1.599820748166596
 20
-1.985475938585081
 30
0.0
 10
1.611326722830224
 20
-1.965554741753522
 30
0.0
 10
1.636801271170068
 20
-1.958723042806014
 30
0.0
 10
1.656722468001665
 20
-1.970229865180184
 30
0.0
 10
1.676641969412256
 20
-1.981735839843761
 30
0.0
 10
1.683473668359738
 20
-2.007210388183618
 30
0.0
 10
1.671968541406613
 20
-2.027131585015215
 30
0.0
 10
1.660461719032481
 20
-2.047051086425805
 30
0.0
 10
1.634988018403141
 20
-2.053882785373288
 30
0.0
 10
1.615066821571544
 20
-2.042377658420163
 30
0.0
  0
SPLINE
  5
50
330
1F
100
AcDbEntity
  8
Layer 1
 62
   178
420
    65793
370
    35
100
AcDbSpline
210
0.0
220
0.0
230
1.0
 70
    11
 71
     3
 72
    17
 73
    13
 74
     0
 42
0.0000000001
 43
0.0000000001
 12
1.0
 22
0.0
 32
0.0
 13
1.0
 23
0.0
 33
0.0
 40
0.0
 40
0.0
 40
0.0
 40
0.0
 40
1.0
 40
1.0
 40
1.0
 40
2.0
 40
2.0
 40
2.0
 40
3.0
 40
3.0
 40
3.0
 40
4.0
 40
4.0
 40
4.0
 40
4.0
 10
1.621743389496891
 20
-2.214579026964
 30
0.0
 10
1.621743389496891
 20
-2.237582499186222
 30
0.0
 10
1.603090367578488
 20
-2.256233825683618
 30
0.0
 10
1.58008774306677
 20
-2.256233825683618
 30
0.0
 10
1.557085118555051
 20
-2.256233825683618
 30
0.0
 10
1.538432096636648
 20
-2.237582499186222
 30
0.0
 10
1.538432096636648
 20
-2.214579026964
 30
0.0
 10
1.538432096636648
 20
-2.191575554741778
 30
0.0
 10
1.557085118555051
 20
-2.172924228244382
 30
0.0
 10
1.58008774306677
 20
-2.172924228244382
 30
0.0
 10
1.603090367578488
 20
-2.172924228244382
 30
0.0
 10
1.621743389496891
 20
-2.191575554741778
 30
0.0
 10
1.621743389496891
 20
-2.214579026964
 30
0.0
  0
SPLINE
  5
51
330
1F
100
AcDbEntity
  8
Layer 1
 62
   178
420
    65793
370
    35
100
AcDbSpline
210
0.0
220
0.0
230
1.0
 70
    11
 71
     3
 72
    17
 73
    13
 74
     0
 42
0.0000000001
 43
0.0000000001
 12
1.0
 22
0.0
 32
0.0
 13
1.0
 23
0.0
 33
0.0
 40
0.0
 40
0.0
 40
0.0
 40
0.0
 40
1.0
 40
1.0
 40
1.0
 40
2.0
 40
2.0
 40
2.0
 40
3.0
 40
3.0
 40
3.0
 40
4.0
 40
4.0
 40
4.0
 40
4.0
 10
1.559260343706961
 20
-1.457014906141429
 30
0.0
 10
1.579180692828054
 20
-1.4455089314778
 30
0.0
 10
1.604654393457395
 20
-1.452341478135875
 30
0.0
 10
1.616161215831527
 20
-1.472260979546427
 30
0.0
 10
1.627667190495155
 20
-1.492181328667546
 30
0.0
 10
1.620836339258176
 20
-1.517665201822966
 30
0.0
 10
1.600915142426579
 20
-1.529161851671019
 30
0.0
 10
1.580994793305485
 20
-1.540668674045188
 30
0.0
 10
1.555519397255138
 20
-1.53383697509768
 30
0.0
 10
1.544014270302013
 20
-1.513915778265995
 30
0.0
 10
1.532508295638384
 20
-1.493995429144901
 30
0.0
 10
1.539339146875363
 20
-1.468521728515599
 30
0.0
 10
1.559260343706961
 20
-1.457014906141429
 30
0.0
  0
SPLINE
  5
52
330
1F
100
AcDbEntity
  8
Layer 1
 62
   178
420
    65793
370
    35
100
AcDbSpline
210
0.0
220
0.0
230
1.0
 70
    11
 71
     3
 72
    17
 73
    13
 74
     0
 42
0.0000000001
 43
0.0000000001
 12
1.0
 22
0.0
 32
0.0
 13
1.0
 23
0.0
 33
0.0
 40
0.0
 40
0.0
 40
0.0
 40
0.0
 40
1.0
 40
1.0
 40
1.0
 40
2.0
 40
2.0
 40
2.0
 40
3.0
 40
3.0
 40
3.0
 40
4.0
 40
4.0
 40
4.0
 40
4.0
 10
1.486083429915728
 20
-1.786171569824205
 30
0.0
 10
1.500875130490815
 20
-1.768546820746577
 30
0.0
 10
1.527145678993419
 20
-1.766251220703099
 30
0.0
 10
1.544771275781613
 20
-1.781034444173239
 30
0.0
 10
1.562394329438297
 20
-1.795826144748238
 30
0.0
 10
1.564690777192204
 20
-1.82209669325088
 30
0.0
 10
1.549908401432655
 20
-1.839721442328495
 30
0.0
 10
1.535115853147065
 20
-1.857347039116689
 30
0.0
 10
1.508835979828922
 20
-1.859640943739211
 30
0.0
 10
1.491221403277273
 20
-1.84485941569004
 30
0.0
 10
1.473595806489079
 20
-1.830066019694073
 30
0.0
 10
1.471290881630138
 20
-1.80379547119143
 30
0.0
 10
1.486083429915728
 20
-1.786171569824205
 30
0.0
  0
SPLINE
  5
53
330
1F
100
AcDbEntity
  8
Layer 1
 62
   178
420
    65793
370
    35
100
AcDbSpline
210
0.0
220
0.0
230
1.0
 70
    11
 71
     3
 72
    17
 73
    13
 74
     0
 42
0.0000000001
 43
0.0000000001
 12
1.0
 22
0.0
 32
0.0
 13
1.0
 23
0.0
 33
0.0
 40
0.0
 40
0.0
 40
0.0
 40
0.0
 40
1.0
 40
1.0
 40
1.0
 40
2.0
 40
2.0
 40
2.0
 40
3.0
 40
3.0
 40
3.0
 40
4.0
 40
4.0
 40
4.0
 40
4.0
 10
1.378089350325884
 20
-1.596028408474328
 30
0.0
 10
1.394352676334999
 20
-1.579765082465327
 30
0.0
 10
1.420735122624061
 20
-1.579765082465327
 30
0.0
 10
1.436998448633176
 20
-1.596028408474328
 30
0.0
 10
1.453272794878836
 20
-1.612292582194073
 30
0.0
 10
1.453272794878836
 20
-1.638674180772543
 30
0.0
 10
1.436998448633176
 20
-1.654938354492123
 30
0.0
 10
1.420735122624061
 20
-1.671211853027406
 30
0.0
 10
1.394352676334999
 20
-1.671211853027406
 30
0.0
 10
1.378089350325884
 20
-1.654938354492123
 30
0.0
 10
1.361825176606266
 20
-1.638674180772543
 30
0.0
 10
1.361825176606266
 20
-1.612292582194073
 30
0.0
 10
1.378089350325884
 20
-1.596028408474328
 30
0.0
  0
SPLINE
  5
54
330
1F
100
AcDbEntity
  8
Layer 1
 62
   178
420
    65793
370
    35
100
AcDbSpline
210
0.0
220
0.0
230
1.0
 70
    11
 71
     3
 72
    17
 73
    13
 74
     0
 42
0.0000000001
 43
0.0000000001
 12
1.0
 22
0.0
 32
0.0
 13
1.0
 23
0.0
 33
0.0
 40
0.0
 40
0.0
 40
0.0
 40
0.0
 40
1.0
 40
1.0
 40
1.0
 40
2.0
 40
2.0
 40
2.0
 40
3.0
 40
3.0
 40
3.0
 40
4.0
 40
4.0
 40
4.0
 40
4.0
 10
1.121880718598454
 20
-2.214579026964
 30
0.0
 10
1.121880718598454
 20
-2.191575554741778
 30
0.0
 10
1.140532045095849
 20
-2.172924228244382
 30
0.0
 10
1.163534669607568
 20
-2.172924228244382
 30
0.0
 10
1.186538989540294
 20
-2.172924228244382
 30
0.0
 10
1.20519031603769
 20
-2.191575554741778
 30
0.0
 10
1.20519031603769
 20
-2.214579026964
 30
0.0
 10
1.20519031603769
 20
-2.237582499186222
 30
0.0
 10
1.186538989540294
 20
-2.256233825683618
 30
0.0
 10
1.163534669607568
 20
-2.256233825683618
 30
0.0
 10
1.140532045095849
 20
-2.256233825683618
 30
0.0
 10
1.121880718598454
 20
-2.237582499186222
 30
0.0
 10
1.121880718598454
 20
-2.214579026964
 30
0.0
  0
SPLINE
  5
55
330
1F
100
AcDbEntity
  8
Layer 1
 62
   178
420
    65793
370
    35
100
AcDbSpline
210
0.0
220
0.0
230
1.0
 70
    11
 71
     3
 72
    17
 73
    13
 74
     0
 42
0.0000000001
 43
0.0000000001
 12
1.0
 22
0.0
 32
0.0
 13
1.0
 23
0.0
 33
0.0
 40
0.0
 40
0.0
 40
0.0
 40
0.0
 40
1.0
 40
1.0
 40
1.0
 40
2.0
 40
2.0
 40
2.0
 40
3.0
 40
3.0
 40
3.0
 40
4.0
 40
4.0
 40
4.0
 40
4.0
 10
1.202703133420502
 20
-2.470444335937524
 30
0.0
 10
1.180477011729964
 20
-2.476386786566864
 30
0.0
 10
1.157640538476926
 20
-2.463204888237871
 30
0.0
 10
1.151688763032047
 20
-2.44098046196834
 30
0.0
 10
1.145727662771631
 20
-2.41876366509334
 30
0.0
 10
1.158918038205659
 20
-2.395918714735267
 30
0.0
 10
1.181143312185693
 20
-2.389966091579885
 30
0.0
 10
1.203369433876232
 20
-2.38401516384551
 30
0.0
 10
1.22620590712927
 20
-2.397204691569034
 30
0.0
 10
1.232156834863645
 20
-2.419421488444034
 30
0.0
 10
1.23811030572953
 20
-2.441636589898028
 30
0.0
 10
1.224928407400537
 20
-2.464483235677108
 30
0.0
 10
1.202703133420502
 20
-2.470444335937524
 30
0.0
  0
SPLINE
  5
56
330
1F
100
AcDbEntity
  8
Layer 1
 62
   178
420
    65793
370
    35
100
AcDbSpline
210
0.0
220
0.0
230
1.0
 70
    11
 71
     3
 72
    17
 73
    13
 74
     0
 42
0.0000000001
 43
0.0000000001
 12
1.0
 22
0.0
 32
0.0
 13
1.0
 23
0.0
 33
0.0
 40
0.0
 40
0.0
 40
0.0
 40
0.0
 40
1.0
 40
1.0
 40
1.0
 40
2.0
 40
2.0
 40
2.0
 40
3.0
 40
3.0
 40
3.0
 40
4.0
 40
4.0
 40
4.0
 40
4.0
 10
1.232156834863645
 20
-2.009742499457477
 30
0.0
 10
1.22620590712927
 20
-2.031957600911483
 30
0.0
 10
1.203369433876232
 20
-2.045149671766517
 30
0.0
 10
1.181143312185693
 20
-2.0391885715061
 30
0.0
 10
1.158918038205659
 20
-2.033235948350719
 30
0.0
 10
1.145727662771631
 20
-2.010399475097668
 30
0.0
 10
1.151688763032047
 20
-1.988174201117646
 30
0.0
 10
1.157640538476926
 20
-1.965958251953099
 30
0.0
 10
1.180477011729964
 20
-1.952767876519071
 30
0.0
 10
1.202703133420502
 20
-1.958718804253522
 30
0.0
 10
1.224928407400537
 20
-1.96467142740879
 30
0.0
 10
1.23811030572953
 20
-1.987516377766951
 30
0.0
 10
1.232156834863645
 20
-2.009742499457477
 30
0.0
  0
SPLINE
  5
57
330
1F
100
AcDbEntity
  8
Layer 1
 62
   178
420
    65793
370
    35
100
AcDbSpline
210
0.0
220
0.0
230
1.0
 70
    11
 71
     3
 72
    17
 73
    13
 74
     0
 42
0.0000000001
 43
0.0000000001
 12
1.0
 22
0.0
 32
0.0
 13
1.0
 23
0.0
 33
0.0
 40
0.0
 40
0.0
 40
0.0
 40
0.0
 40
1.0
 40
1.0
 40
1.0
 40
2.0
 40
2.0
 40
2.0
 40
3.0
 40
3.0
 40
3.0
 40
4.0
 40
4.0
 40
4.0
 40
4.0
 10
1.295976720117551
 20
-2.667204725477454
 30
0.0
 10
1.276055523285954
 20
-2.678710700141083
 30
0.0
 10
1.250581822656613
 20
-2.671879848904104
 30
0.0
 10
1.239075000282482
 20
-2.65195949978301
 30
0.0
 10
1.227569873329357
 20
-2.632038302951413
 30
0.0
 10
1.234401572276839
 20
-2.606563754611569
 30
0.0
 10
1.254321073687429
 20
-2.595057779947941
 30
0.0
 10
1.274242270519027
 20
-2.583552652994816
 30
0.0
 10
1.299725295963905
 20
-2.590382656521292
 30
0.0
 10
1.311222793522499
 20
-2.610303853352889
 30
0.0
 10
1.322729615896631
 20
-2.630224202473983
 30
0.0
 10
1.315897069238645
 20
-2.655697903103323
 30
0.0
 10
1.295976720117551
 20
-2.667204725477454
 30
0.0
  0
SPLINE
  5
58
330
1F
100
AcDbEntity
  8
Layer 1
 62
   178
420
    65793
370
    35
100
AcDbSpline
210
0.0
220
0.0
230
1.0
 70
    11
 71
     3
 72
    17
 73
    13
 74
     0
 42
0.0000000001
 43
0.0000000001
 12
1.0
 22
0.0
 32
0.0
 13
1.0
 23
0.0
 33
0.0
 40
0.0
 40
0.0
 40
0.0
 40
0.0
 40
1.0
 40
1.0
 40
1.0
 40
2.0
 40
2.0
 40
2.0
 40
3.0
 40
3.0
 40
3.0
 40
4.0
 40
4.0
 40
4.0
 40
4.0
 10
1.311222793522499
 20
-1.818855048285602
 30
0.0
 10
1.299725295963905
 20
-1.838776245117123
 30
0.0
 10
1.274242270519027
 20
-1.84560624864365
 30
0.0
 10
1.254321073687429
 20
-1.8341011216906
 30
0.0
 10
1.234401572276839
 20
-1.82259429931643
 30
0.0
 10
1.227569873329357
 20
-1.797120598687128
 30
0.0
 10
1.239075000282482
 20
-1.777199401855455
 30
0.0
 10
1.250581822656613
 20
-1.757279052734349
 30
0.0
 10
1.276055523285954
 20
-1.750448201497407
 30
0.0
 10
1.295976720117551
 20
-1.761953328450456
 30
0.0
 10
1.315897069238645
 20
-1.773459303114211
 30
0.0
 10
1.322729615896631
 20
-1.798933851453929
 30
0.0
 10
1.311222793522499
 20
-1.818855048285602
 30
0.0
  0
SPLINE
  5
59
330
1F
100
AcDbEntity
  8
Layer 1
 62
   178
420
    65793
370
    35
100
AcDbSpline
210
0.0
220
0.0
230
1.0
 70
    11
 71
     3
 72
    17
 73
    13
 74
     0
 42
0.0000000001
 43
0.0000000001
 12
1.0
 22
0.0
 32
0.0
 13
1.0
 23
0.0
 33
0.0
 40
0.0
 40
0.0
 40
0.0
 40
0.0
 40
1.0
 40
1.0
 40
1.0
 40
2.0
 40
2.0
 40
2.0
 40
3.0
 40
3.0
 40
3.0
 40
4.0
 40
4.0
 40
4.0
 40
4.0
 10
1.330155559907047
 20
-2.214579026964
 30
0.0
 10
1.330155559907047
 20
-2.191575554741778
 30
0.0
 10
1.34880858182545
 20
-2.172924228244382
 30
0.0
 10
1.371811206337169
 20
-2.172924228244382
 30
0.0
 10
1.394813830848888
 20
-2.172924228244382
 30
0.0
 10
1.41346685276729
 20
-2.191575554741778
 30
0.0
 10
1.41346685276729
 20
-2.214579026964
 30
0.0
 10
1.41346685276729
 20
-2.237582499186222
 30
0.0
 10
1.394813830848888
 20
-2.256233825683618
 30
0.0
 10
1.371811206337169
 20
-2.256233825683618
 30
0.0
 10
1.34880858182545
 20
-2.256233825683618
 30
0.0
 10
1.330155559907047
 20
-2.237582499186222
 30
0.0
 10
1.330155559907047
 20
-2.214579026964
 30
0.0
  0
SPLINE
  5
5A
330
1F
100
AcDbEntity
  8
Layer 1
 62
   178
420
    65793
370
    35
100
AcDbSpline
210
0.0
220
0.0
230
1.0
 70
    11
 71
     3
 72
    17
 73
    13
 74
     0
 42
0.0000000001
 43
0.0000000001
 12
1.0
 22
0.0
 32
0.0
 13
1.0
 23
0.0
 33
0.0
 40
0.0
 40
0.0
 40
0.0
 40
0.0
 40
1.0
 40
1.0
 40
1.0
 40
2.0
 40
2.0
 40
2.0
 40
3.0
 40
3.0
 40
3.0
 40
4.0
 40
4.0
 40
4.0
 40
4.0
 10
1.436998448633176
 20
-2.833124559190562
 30
0.0
 10
1.420735122624061
 20
-2.849398057725719
 30
0.0
 10
1.394352676334999
 20
-2.849398057725719
 30
0.0
 10
1.378089350325884
 20
-2.833124559190562
 30
0.0
 10
1.361825176606266
 20
-2.816860385470944
 30
0.0
 10
1.361825176606266
 20
-2.790488111707923
 30
0.0
 10
1.378089350325884
 20
-2.774224785698809
 30
0.0
 10
1.394352676334999
 20
-2.757951287163653
 30
0.0
 10
1.420735122624061
 20
-2.757951287163653
 30
0.0
 10
1.436998448633176
 20
-2.774224785698809
 30
0.0
 10
1.453272794878836
 20
-2.790488111707923
 30
0.0
 10
1.453272794878836
 20
-2.816860385470944
 30
0.0
 10
1.436998448633176
 20
-2.833124559190562
 30
0.0
  0
SPLINE
  5
5B
330
1F
100
AcDbEntity
  8
Layer 1
 62
   178
420
    65793
370
    35
100
AcDbSpline
210
0.0
220
0.0
230
1.0
 70
    11
 71
     3
 72
    17
 73
    13
 74
     0
 42
0.0000000001
 43
0.0000000001
 12
1.0
 22
0.0
 32
0.0
 13
1.0
 23
0.0
 33
0.0
 40
0.0
 40
0.0
 40
0.0
 40
0.0
 40
1.0
 40
1.0
 40
1.0
 40
2.0
 40
2.0
 40
2.0
 40
3.0
 40
3.0
 40
3.0
 40
4.0
 40
4.0
 40
4.0
 40
4.0
 10
1.423744494911388
 20
-2.467425638834659
 30
0.0
 10
1.402121095388818
 20
-2.475294087727889
 30
0.0
 10
1.378219897743419
 20
-2.464149237738739
 30
0.0
 10
1.37035144885019
 20
-2.44252583821617
 30
0.0
 10
1.362483847667464
 20
-2.420911763509139
 30
0.0
 10
1.373629545367117
 20
-2.397010565863739
 30
0.0
 10
1.395243620074148
 20
-2.389132792154972
 30
0.0
 10
1.416867019596717
 20
-2.381274515787784
 30
0.0
 10
1.440768217242117
 20
-2.392419365776934
 30
0.0
 10
1.448636666135346
 20
-2.414034288194469
 30
0.0
 10
1.456504267318072
 20
-2.435657687717038
 30
0.0
 10
1.445358569618419
 20
-2.459558037651934
 30
0.0
 10
1.423744494911388
 20
-2.467425638834659
 30
0.0
  0
SPLINE
  5
5C
330
1F
100
AcDbEntity
  8
Layer 1
 62
   178
420
    65793
370
    35
100
AcDbSpline
210
0.0
220
0.0
230
1.0
 70
    11
 71
     3
 72
    17
 73
    13
 74
     0
 42
0.0000000001
 43
0.0000000001
 12
1.0
 22
0.0
 32
0.0
 13
1.0
 23
0.0
 33
0.0
 40
0.0
 40
0.0
 40
0.0
 40
0.0
 40
1.0
 40
1.0
 40
1.0
 40
2.0
 40
2.0
 40
2.0
 40
3.0
 40
3.0
 40
3.0
 40
4.0
 40
4.0
 40
4.0
 40
4.0
 10
1.448636666135346
 20
-2.015120374891517
 30
0.0
 10
1.440768217242117
 20
-2.036743774414087
 30
0.0
 10
1.416867019596717
 20
-2.047888624403236
 30
0.0
 10
1.395243620074148
 20
-2.040020175510007
 30
0.0
 10
1.373629545367117
 20
-2.032152574327281
 30
0.0
 10
1.362483847667464
 20
-2.008242899576834
 30
0.0
 10
1.37035144885019
 20
-1.986628824869803
 30
0.0
 10
1.378219897743419
 20
-1.965013054741689
 30
0.0
 10
1.402121095388818
 20
-1.953858879937128
 30
0.0
 10
1.423744494911388
 20
-1.961736653645883
 30
0.0
 10
1.445358569618419
 20
-1.969605102539074
 30
0.0
 10
1.456504267318072
 20
-1.993506300184473
 30
0.0
 10
1.448636666135346
 20
-2.015120374891517
 30
0.0
  0
SPLINE
  5
5D
330
1F
100
AcDbEntity
  8
Layer 1
 62
   178
420
    65793
370
    35
100
AcDbSpline
210
0.0
220
0.0
230
1.0
 70
    11
 71
     3
 72
    17
 73
    13
 74
     0
 42
0.0000000001
 43
0.0000000001
 12
1.0
 22
0.0
 32
0.0
 13
1.0
 23
0.0
 33
0.0
 40
0.0
 40
0.0
 40
0.0
 40
0.0
 40
1.0
 40
1.0
 40
1.0
 40
2.0
 40
2.0
 40
2.0
 40
3.0
 40
3.0
 40
3.0
 40
4.0
 40
4.0
 40
4.0
 40
4.0
 10
1.486083429915728
 20
-2.642983093261743
 30
0.0
 10
1.471290881630138
 20
-2.62536766899959
 30
0.0
 10
1.473595806489079
 20
-2.599086947970944
 30
0.0
 10
1.491221403277273
 20
-2.584305419921899
 30
0.0
 10
1.508835979828922
 20
-2.569512023925805
 30
0.0
 10
1.535115853147065
 20
-2.57181779649525
 30
0.0
 10
1.549908401432655
 20
-2.589442545572941
 30
0.0
 10
1.564690777192204
 20
-2.607057969835094
 30
0.0
 10
1.562394329438297
 20
-2.633336995442733
 30
0.0
 10
1.544771275781613
 20
-2.648120218912784
 30
0.0
 10
1.527145678993419
 20
-2.662903442382837
 30
0.0
 10
1.500875130490815
 20
-2.660607842339434
 30
0.0
 10
1.486083429915728
 20
-2.642983093261743
 30
0.0
  0
SPLINE
  5
5E
330
1F
100
AcDbEntity
  8
Layer 1
 62
   178
420
    65793
370
    35
100
AcDbSpline
210
0.0
220
0.0
230
1.0
 70
    11
 71
     3
 72
    17
 73
    13
 74
     0
 42
0.0000000001
 43
0.0000000001
 12
1.0
 22
0.0
 32
0.0
 13
1.0
 23
0.0
 33
0.0
 40
0.0
 40
0.0
 40
0.0
 40
0.0
 40
1.0
 40
1.0
 40
1.0
 40
2.0
 40
2.0
 40
2.0
 40
3.0
 40
3.0
 40
3.0
 40
4.0
 40
4.0
 40
4.0
 40
4.0
 10
1.616161215831527
 20
-2.956901312934052
 30
0.0
 10
1.604654393457395
 20
-2.976821662055146
 30
0.0
 10
1.579180692828054
 20
-2.98364403618709
 30
0.0
 10
1.559260343706961
 20
-2.972146538628496
 30
0.0
 10
1.539339146875363
 20
-2.960641411675371
 30
0.0
 10
1.532508295638384
 20
-2.935166015625024
 30
0.0
 10
1.544014270302013
 20
-2.91524566650393
 30
0.0
 10
1.555519397255138
 20
-2.895315992567298
 30
0.0
 10
1.580994793305485
 20
-2.888493618435354
 30
0.0
 10
1.600915142426579
 20
-2.899991115993948
 30
0.0
 10
1.620836339258176
 20
-2.911497090657576
 30
0.0
 10
1.627667190495155
 20
-2.93697163899742
 30
0.0
 10
1.616161215831527
 20
-2.956901312934052
 30
0.0
  0
SPLINE
  5
5F
330
1F
100
AcDbEntity
  8
Layer 1
 62
   178
420
    65793
370
    35
100
AcDbSpline
210
0.0
220
0.0
230
1.0
 70
    11
 71
     3
 72
    17
 73
    13
 74
     0
 42
0.0000000001
 43
0.0000000001
 12
1.0
 22
0.0
 32
0.0
 13
1.0
 23
0.0
 33
0.0
 40
0.0
 40
0.0
 40
0.0
 40
0.0
 40
1.0
 40
1.0
 40
1.0
 40
2.0
 40
2.0
 40
2.0
 40
3.0
 40
3.0
 40
3.0
 40
4.0
 40
4.0
 40
4.0
 40
4.0
 10
1.599820748166596
 20
-2.443682963053409
 30
0.0
 10
1.588315621213471
 20
-2.423761766221812
 30
0.0
 10
1.59514647245045
 20
-2.398288065592472
 30
0.0
 10
1.615066821571544
 20
-2.38678124321834
 30
0.0
 10
1.634988018403141
 20
-2.375276116265215
 30
0.0
 10
1.660461719032481
 20
-2.382107815212698
 30
0.0
 10
1.671968541406613
 20
-2.402027316623288
 30
0.0
 10
1.683473668359738
 20
-2.421948513454885
 30
0.0
 10
1.676641969412256
 20
-2.447423061794729
 30
0.0
 10
1.656722468001665
 20
-2.458929036458358
 30
0.0
 10
1.636801271170068
 20
-2.470434163411483
 30
0.0
 10
1.611326722830224
 20
-2.463603312174503
 30
0.0
 10
1.599820748166596
 20
-2.443682963053409
 30
0.0
  0
SPLINE
  5
60
330
1F
100
AcDbEntity
  8
Layer 1
 62
   178
420
    65793
370
    35
100
AcDbSpline
210
0.0
220
0.0
230
1.0
 70
    11
 71
     3
 72
    17
 73
    13
 74
     0
 42
0.0000000001
 43
0.0000000001
 12
1.0
 22
0.0
 32
0.0
 13
1.0
 23
0.0
 33
0.0
 40
0.0
 40
0.0
 40
0.0
 40
0.0
 40
1.0
 40
1.0
 40
1.0
 40
2.0
 40
2.0
 40
2.0
 40
3.0
 40
3.0
 40
3.0
 40
4.0
 40
4.0
 40
4.0
 40
4.0
 10
1.720299060341075
 20
-2.776531405978757
 30
0.0
 10
1.708793085677447
 20
-2.796450907389347
 30
0.0
 10
1.683318537337603
 20
-2.803273281521292
 30
0.0
 10
1.663397340506006
 20
-2.791767306857663
 30
0.0
 10
1.643477839095415
 20
-2.780270657009573
 30
0.0
 10
1.636646140147933
 20
-2.754796956380233
 30
0.0
 10
1.648151267101058
 20
-2.734875759548635
 30
0.0
 10
1.659658937185693
 20
-2.714946933322507
 30
0.0
 10
1.68513179010453
 20
-2.708124559190562
 30
0.0
 10
1.705052986936127
 20
-2.719620361328149
 30
0.0
 10
1.724974183767724
 20
-2.731117858886743
 30
0.0
 10
1.731805882715207
 20
-2.756600884331621
 30
0.0
 10
1.720299060341075
 20
-2.776531405978757
 30
0.0
  0
SPLINE
  5
61
330
1F
100
AcDbEntity
  8
Layer 1
 62
   178
420
    65793
370
    35
100
AcDbSpline
210
0.0
220
0.0
230
1.0
 70
    11
 71
     3
 72
    17
 73
    13
 74
     0
 42
0.0000000001
 43
0.0000000001
 12
1.0
 22
0.0
 32
0.0
 13
1.0
 23
0.0
 33
0.0
 40
0.0
 40
0.0
 40
0.0
 40
0.0
 40
1.0
 40
1.0
 40
1.0
 40
2.0
 40
2.0
 40
2.0
 40
3.0
 40
3.0
 40
3.0
 40
4.0
 40
4.0
 40
4.0
 40
4.0
 10
1.705052986936127
 20
-1.709532606336855
 30
0.0
 10
1.68513179010453
 20
-1.721039428710873
 30
0.0
 10
1.659658937185693
 20
-1.714217902289483
 30
0.0
 10
1.648151267101058
 20
-1.694287380642411
 30
0.0
 10
1.636646140147933
 20
-1.674366183810738
 30
0.0
 10
1.643477839095415
 20
-1.648892483181435
 30
0.0
 10
1.663397340506006
 20
-1.637385660807265
 30
0.0
 10
1.683318537337603
 20
-1.62587968614365
 30
0.0
 10
1.708793085677447
 20
-1.632712232801711
 30
0.0
 10
1.720299060341075
 20
-1.652631734212264
 30
0.0
 10
1.731805882715207
 20
-1.672562255859349
 30
0.0
 10
1.724974183767724
 20
-1.698035956488651
 30
0.0
 10
1.705052986936127
 20
-1.709532606336855
 30
0.0
  0
SPLINE
  5
62
330
1F
100
AcDbEntity
  8
Layer 1
 62
   178
420
    65793
370
    35
100
AcDbSpline
210
0.0
220
0.0
230
1.0
 70
    11
 71
     3
 72
    17
 73
    13
 74
     0
 42
0.0000000001
 43
0.0000000001
 12
1.0
 22
0.0
 32
0.0
 13
1.0
 23
0.0
 33
0.0
 40
0.0
 40
0.0
 40
0.0
 40
0.0
 40
1.0
 40
1.0
 40
1.0
 40
2.0
 40
2.0
 40
2.0
 40
3.0
 40
3.0
 40
3.0
 40
4.0
 40
4.0
 40
4.0
 40
4.0
 10
1.821248665647065
 20
-3.030070597330753
 30
0.0
 10
1.815296042491683
 20
-3.052305196126326
 30
0.0
 10
1.792459569238645
 20
-3.065487094455319
 30
0.0
 10
1.770235142969113
 20
-3.059534471299937
 30
0.0
 10
1.748018346094113
 20
-3.053573371039521
 30
0.0
 10
1.734827970660086
 20
-3.030736897786483
 30
0.0
 10
1.740779746104964
 20
-3.008511623806448
 30
0.0
 10
1.746732369260346
 20
-2.986295674641951
 30
0.0
 10
1.769576471907915
 20
-2.973105299207923
 30
0.0
 10
1.791802593598454
 20
-2.97906639946834
 30
0.0
 10
1.81401854276295
 20
-2.98500885009768
 30
0.0
 10
1.827209765907481
 20
-3.007854648166257
 30
0.0
 10
1.821248665647065
 20
-3.030070597330753
 30
0.0
  0
SPLINE
  5
63
330
1F
100
AcDbEntity
  8
Layer 1
 62
   178
420
    65793
370
    35
100
AcDbSpline
210
0.0
220
0.0
230
1.0
 70
    11
 71
     3
 72
    17
 73
    13
 74
     0
 42
0.0000000001
 43
0.0000000001
 12
1.0
 22
0.0
 32
0.0
 13
1.0
 23
0.0
 33
0.0
 40
0.0
 40
0.0
 40
0.0
 40
0.0
 40
1.0
 40
1.0
 40
1.0
 40
2.0
 40
2.0
 40
2.0
 40
3.0
 40
3.0
 40
3.0
 40
4.0
 40
4.0
 40
4.0
 40
4.0
 10
1.824437752561127
 20
-2.596152174207923
 30
0.0
 10
1.812930930186995
 20
-2.616073371039521
 30
0.0
 10
1.787457229557655
 20
-2.622903374565996
 30
0.0
 10
1.767536032726058
 20
-2.611398247612871
 30
0.0
 10
1.747615683604964
 20
-2.599900750054278
 30
0.0
 10
1.740783984657481
 20
-2.574417724609399
 30
0.0
 10
1.752290807031613
 20
-2.554496527777802
 30
0.0
 10
1.763795933984738
 20
-2.534567701551673
 30
0.0
 10
1.789271330035086
 20
-2.527745327419729
 30
0.0
 10
1.809191679156179
 20
-2.539251302083358
 30
0.0
 10
1.82911118056677
 20
-2.550747951931448
 30
0.0
 10
1.835942879514252
 20
-2.576221652560788
 30
0.0
 10
1.824437752561127
 20
-2.596152174207923
 30
0.0
  0
SPLINE
  5
64
330
1F
100
AcDbEntity
  8
Layer 1
 62
   178
420
    65793
370
    35
100
AcDbSpline
210
0.0
220
0.0
230
1.0
 70
    11
 71
     3
 72
    17
 73
    13
 74
     0
 42
0.0000000001
 43
0.0000000001
 12
1.0
 22
0.0
 32
0.0
 13
1.0
 23
0.0
 33
0.0
 40
0.0
 40
0.0
 40
0.0
 40
0.0
 40
1.0
 40
1.0
 40
1.0
 40
2.0
 40
2.0
 40
2.0
 40
3.0
 40
3.0
 40
3.0
 40
4.0
 40
4.0
 40
4.0
 40
4.0
 10
1.837093222667464
 20
-2.354791191948809
 30
0.0
 10
1.81717287354637
 20
-2.366296318901934
 30
0.0
 10
1.791697477496023
 20
-2.359464619954451
 30
0.0
 10
1.780191502832395
 20
-2.339545118543861
 30
0.0
 10
1.76868637587927
 20
-2.319624769422767
 30
0.0
 10
1.775517227116249
 20
-2.29414937337242
 30
0.0
 10
1.795437576237342
 20
-2.282644246419295
 30
0.0
 10
1.81535877306894
 20
-2.271138271755667
 30
0.0
 10
1.840841798513818
 20
-2.277969122992646
 30
0.0
 10
1.852339296072412
 20
-2.297889472113739
 30
0.0
 10
1.863844423025537
 20
-2.317810668945337
 30
0.0
 10
1.857012724078054
 20
-2.343284369574677
 30
0.0
 10
1.837093222667464
 20
-2.354791191948809
 30
0.0
  0
SPLINE
  5
65
330
1F
100
AcDbEntity
  8
Layer 1
 62
   178
420
    65793
370
    35
100
AcDbSpline
210
0.0
220
0.0
230
1.0
 70
    11
 71
     3
 72
    17
 73
    13
 74
     0
 42
0.0000000001
 43
0.0000000001
 12
1.0
 22
0.0
 32
0.0
 13
1.0
 23
0.0
 33
0.0
 40
0.0
 40
0.0
 40
0.0
 40
0.0
 40
1.0
 40
1.0
 40
1.0
 40
2.0
 40
2.0
 40
2.0
 40
3.0
 40
3.0
 40
3.0
 40
4.0
 40
4.0
 40
4.0
 40
4.0
 10
1.929163908160086
 20
-2.837151184082055
 30
0.0
 10
1.925165257715207
 20
-2.859802008734833
 30
0.0
 10
1.903559660113211
 20
-2.874937032063826
 30
0.0
 10
1.880907987749929
 20
-2.870936686197941
 30
0.0
 10
1.858248685992117
 20
-2.866938035753062
 30
0.0
 10
1.843122139768159
 20
-2.845332438151066
 30
0.0
 10
1.847120790213037
 20
-2.822682461208792
 30
0.0
 10
1.851110963552881
 20
-2.800021464029972
 30
0.0
 10
1.872716561154877
 20
-2.784896613227021
 30
0.0
 10
1.895366538097152
 20
-2.788895263671899
 30
0.0
 10
1.918027535275971
 20
-2.792885437011743
 30
0.0
 10
1.933162558604964
 20
-2.814490186903236
 30
0.0
 10
1.929163908160086
 20
-2.837151184082055
 30
0.0
  0
SPLINE
  5
66
330
1F
100
AcDbEntity
  8
Layer 1
 62
   178
420
    65793
370
    35
100
AcDbSpline
210
0.0
220
0.0
230
1.0
 70
    11
 71
     3
 72
    17
 73
    13
 74
     0
 42
0.0000000001
 43
0.0000000001
 12
1.0
 22
0.0
 32
0.0
 13
1.0
 23
0.0
 33
0.0
 40
0.0
 40
0.0
 40
0.0
 40
0.0
 40
1.0
 40
1.0
 40
1.0
 40
2.0
 40
2.0
 40
2.0
 40
3.0
 40
3.0
 40
3.0
 40
4.0
 40
4.0
 40
4.0
 40
4.0
 10
1.895366538097152
 20
-1.640263637966566
 30
0.0
 10
1.872716561154877
 20
-1.644262288411432
 30
0.0
 10
1.851110963552881
 20
-1.629136589897939
 30
0.0
 10
1.847120790213037
 20
-1.606475592719208
 30
0.0
 10
1.843122139768159
 20
-1.58382476806643
 30
0.0
 10
1.858248685992117
 20
-1.5622200181749
 30
0.0
 10
1.880907987749929
 20
-1.558220520019467
 30
0.0
 10
1.903559660113211
 20
-1.554221869574626
 30
0.0
 10
1.925165257715207
 20
-1.569356045193078
 30
0.0
 10
1.929163908160086
 20
-1.592007717556435
 30
0.0
 10
1.933162558604964
 20
-1.614668714735179
 30
0.0
 10
1.918027535275971
 20
-1.63627346462671
 30
0.0
 10
1.895366538097152
 20
-1.640263637966566
 30
0.0
  0
SPLINE
  5
67
330
1F
100
AcDbEntity
  8
Layer 1
 62
   178
420
    65793
370
    35
100
AcDbSpline
210
0.0
220
0.0
230
1.0
 70
    11
 71
     3
 72
    17
 73
    13
 74
     0
 42
0.0000000001
 43
0.0000000001
 12
1.0
 22
0.0
 32
0.0
 13
1.0
 23
0.0
 33
0.0
 40
0.0
 40
0.0
 40
0.0
 40
0.0
 40
1.0
 40
1.0
 40
1.0
 40
2.0
 40
2.0
 40
2.0
 40
3.0
 40
3.0
 40
3.0
 40
4.0
 40
4.0
 40
4.0
 40
4.0
 10
1.996639121104964
 20
-3.089338277181014
 30
0.0
 10
1.973636496593245
 20
-3.089338277181014
 30
0.0
 10
1.954984322385346
 20
-3.070686950683618
 30
0.0
 10
1.954984322385346
 20
-3.047682630750892
 30
0.0
 10
1.954984322385346
 20
-3.024680006239173
 30
0.0
 10
1.973636496593245
 20
-3.006028679741778
 30
0.0
 10
1.996639121104964
 20
-3.006028679741778
 30
0.0
 10
2.01964344103769
 20
-3.006028679741778
 30
0.0
 10
2.038294767535086
 20
-3.024680006239173
 30
0.0
 10
2.038294767535086
 20
-3.047682630750892
 30
0.0
 10
2.038294767535086
 20
-3.070686950683618
 30
0.0
 10
2.01964344103769
 20
-3.089338277181014
 30
0.0
 10
1.996639121104964
 20
-3.089338277181014
 30
0.0
  0
SPLINE
  5
68
330
1F
100
AcDbEntity
  8
Layer 1
 62
   178
420
    65793
370
    35
100
AcDbSpline
210
0.0
220
0.0
230
1.0
 70
    11
 71
     3
 72
    17
 73
    13
 74
     0
 42
0.0000000001
 43
0.0000000001
 12
1.0
 22
0.0
 32
0.0
 13
1.0
 23
0.0
 33
0.0
 40
0.0
 40
0.0
 40
0.0
 40
0.0
 40
1.0
 40
1.0
 40
1.0
 40
2.0
 40
2.0
 40
2.0
 40
3.0
 40
3.0
 40
3.0
 40
4.0
 40
4.0
 40
4.0
 40
4.0
 10
1.996639121104964
 20
-2.672786899142819
 30
0.0
 10
1.973636496593245
 20
-2.672786899142819
 30
0.0
 10
1.954984322385346
 20
-2.654133877224417
 30
0.0
 10
1.954984322385346
 20
-2.631131252712698
 30
0.0
 10
1.954984322385346
 20
-2.608128628200979
 30
0.0
 10
1.973636496593245
 20
-2.589475606282576
 30
0.0
 10
1.996639121104964
 20
-2.589475606282576
 30
0.0
 10
2.01964344103769
 20
-2.589475606282576
 30
0.0
 10
2.038294767535086
 20
-2.608128628200979
 30
0.0
 10
2.038294767535086
 20
-2.631131252712698
 30
0.0
 10
2.038294767535086
 20
-2.654133877224417
 30
0.0
 10
2.01964344103769
 20
-2.672786899142819
 30
0.0
 10
1.996639121104964
 20
-2.672786899142819
 30
0.0
  0
SPLINE
  5
69
330
1F
100
AcDbEntity
  8
Layer 1
 62
   178
420
    65793
370
    35
100
AcDbSpline
210
0.0
220
0.0
230
1.0
 70
    11
 71
     3
 72
    17
 73
    13
 74
     0
 42
0.0000000001
 43
0.0000000001
 12
1.0
 22
0.0
 32
0.0
 13
1.0
 23
0.0
 33
0.0
 40
0.0
 40
0.0
 40
0.0
 40
0.0
 40
1.0
 40
1.0
 40
1.0
 40
2.0
 40
2.0
 40
2.0
 40
3.0
 40
3.0
 40
3.0
 40
4.0
 40
4.0
 40
4.0
 40
4.0
 10
1.996639121104964
 20
-2.464510362413219
 30
0.0
 10
1.973636496593245
 20
-2.464510362413219
 30
0.0
 10
1.954984322385346
 20
-2.445858188205319
 30
0.0
 10
1.954984322385346
 20
-2.422854715983097
 30
0.0
 10
1.954984322385346
 20
-2.399852091471378
 30
0.0
 10
1.973636496593245
 20
-2.381199917263479
 30
0.0
 10
1.996639121104964
 20
-2.381199917263479
 30
0.0
 10
2.01964344103769
 20
-2.381199917263479
 30
0.0
 10
2.038294767535086
 20
-2.399852091471378
 30
0.0
 10
2.038294767535086
 20
-2.422854715983097
 30
0.0
 10
2.038294767535086
 20
-2.445858188205319
 30
0.0
 10
2.01964344103769
 20
-2.464510362413219
 30
0.0
 10
1.996639121104964
 20
-2.464510362413219
 30
0.0
  0
SPLINE
  5
6A
330
1F
100
AcDbEntity
  8
Layer 1
 62
   178
420
    65793
370
    35
100
AcDbSpline
210
0.0
220
0.0
230
1.0
 70
    11
 71
     3
 72
    17
 73
    13
 74
     0
 42
0.0000000001
 43
0.0000000001
 12
1.0
 22
0.0
 32
0.0
 13
1.0
 23
0.0
 33
0.0
 40
0.0
 40
0.0
 40
0.0
 40
0.0
 40
1.0
 40
1.0
 40
1.0
 40
2.0
 40
2.0
 40
2.0
 40
3.0
 40
3.0
 40
3.0
 40
4.0
 40
4.0
 40
4.0
 40
4.0
 10
1.996639121104964
 20
-2.256233825683618
 30
0.0
 10
1.973636496593245
 20
-2.256233825683618
 30
0.0
 10
1.954984322385346
 20
-2.237582499186222
 30
0.0
 10
1.954984322385346
 20
-2.214579026964
 30
0.0
 10
1.954984322385346
 20
-2.191575554741778
 30
0.0
 10
1.973636496593245
 20
-2.172924228244382
 30
0.0
 10
1.996639121104964
 20
-2.172924228244382
 30
0.0
 10
2.01964344103769
 20
-2.172924228244382
 30
0.0
 10
2.038294767535086
 20
-2.191575554741778
 30
0.0
 10
2.038294767535086
 20
-2.214579026964
 30
0.0
 10
2.038294767535086
 20
-2.237582499186222
 30
0.0
 10
2.01964344103769
 20
-2.256233825683618
 30
0.0
 10
1.996639121104964
 20
-2.256233825683618
 30
0.0
  0
SPLINE
  5
6B
330
1F
100
AcDbEntity
  8
Layer 1
 62
   178
420
    65793
370
    35
100
AcDbSpline
210
0.0
220
0.0
230
1.0
 70
    11
 71
     3
 72
    17
 73
    13
 74
     0
 42
0.0000000001
 43
0.0000000001
 12
1.0
 22
0.0
 32
0.0
 13
1.0
 23
0.0
 33
0.0
 40
0.0
 40
0.0
 40
0.0
 40
0.0
 40
1.0
 40
1.0
 40
1.0
 40
2.0
 40
2.0
 40
2.0
 40
3.0
 40
3.0
 40
3.0
 40
4.0
 40
4.0
 40
4.0
 40
4.0
 10
1.996639121104964
 20
-2.047958136664521
 30
0.0
 10
1.973636496593245
 20
-2.047958136664521
 30
0.0
 10
1.954984322385346
 20
-2.029306810167125
 30
0.0
 10
1.954984322385346
 20
-2.00630333794489
 30
0.0
 10
1.954984322385346
 20
-1.983300713433171
 30
0.0
 10
1.973636496593245
 20
-1.964647691514768
 30
0.0
 10
1.996639121104964
 20
-1.964647691514768
 30
0.0
 10
2.01964344103769
 20
-1.964647691514768
 30
0.0
 10
2.038294767535086
 20
-1.983300713433171
 30
0.0
 10
2.038294767535086
 20
-2.00630333794489
 30
0.0
 10
2.038294767535086
 20
-2.029306810167125
 30
0.0
 10
2.01964344103769
 20
-2.047958136664521
 30
0.0
 10
1.996639121104964
 20
-2.047958136664521
 30
0.0
  0
SPLINE
  5
6C
330
1F
100
AcDbEntity
  8
Layer 1
 62
   178
420
    65793
370
    35
100
AcDbSpline
210
0.0
220
0.0
230
1.0
 70
    11
 71
     3
 72
    17
 73
    13
 74
     0
 42
0.0000000001
 43
0.0000000001
 12
1.0
 22
0.0
 32
0.0
 13
1.0
 23
0.0
 33
0.0
 40
0.0
 40
0.0
 40
0.0
 40
0.0
 40
1.0
 40
1.0
 40
1.0
 40
2.0
 40
2.0
 40
2.0
 40
3.0
 40
3.0
 40
3.0
 40
4.0
 40
4.0
 40
4.0
 40
4.0
 10
1.996639121104964
 20
-1.839682447645461
 30
0.0
 10
1.973636496593245
 20
-1.839682447645461
 30
0.0
 10
1.954984322385346
 20
-1.821030273437549
 30
0.0
 10
1.954984322385346
 20
-1.798027648925717
 30
0.0
 10
1.954984322385346
 20
-1.775024176703495
 30
0.0
 10
1.973636496593245
 20
-1.756372002495596
 30
0.0
 10
1.996639121104964
 20
-1.756372002495596
 30
0.0
 10
2.01964344103769
 20
-1.756372002495596
 30
0.0
 10
2.038294767535086
 20
-1.775024176703495
 30
0.0
 10
2.038294767535086
 20
-1.798027648925717
 30
0.0
 10
2.038294767535086
 20
-1.821030273437549
 30
0.0
 10
2.01964344103769
 20
-1.839682447645461
 30
0.0
 10
1.996639121104964
 20
-1.839682447645461
 30
0.0
  0
SPLINE
  5
6D
330
1F
100
AcDbEntity
  8
Layer 1
 62
   178
420
    65793
370
    35
100
AcDbSpline
210
0.0
220
0.0
230
1.0
 70
    11
 71
     3
 72
    17
 73
    13
 74
     0
 42
0.0000000001
 43
0.0000000001
 12
1.0
 22
0.0
 32
0.0
 13
1.0
 23
0.0
 33
0.0
 40
0.0
 40
0.0
 40
0.0
 40
0.0
 40
1.0
 40
1.0
 40
1.0
 40
2.0
 40
2.0
 40
2.0
 40
3.0
 40
3.0
 40
3.0
 40
4.0
 40
4.0
 40
4.0
 40
4.0
 10
1.996639121104964
 20
-1.423130221896713
 30
0.0
 10
1.973636496593245
 20
-1.423130221896713
 30
0.0
 10
1.954984322385346
 20
-1.404478895399355
 30
0.0
 10
1.954984322385346
 20
-1.381474575466566
 30
0.0
 10
1.954984322385346
 20
-1.358471950954911
 30
0.0
 10
1.973636496593245
 20
-1.339820624457401
 30
0.0
 10
1.996639121104964
 20
-1.339820624457401
 30
0.0
 10
2.01964344103769
 20
-1.339820624457401
 30
0.0
 10
2.038294767535086
 20
-1.358471950954911
 30
0.0
 10
2.038294767535086
 20
-1.381474575466566
 30
0.0
 10
2.038294767535086
 20
-1.404478895399355
 30
0.0
 10
2.01964344103769
 20
-1.423130221896713
 30
0.0
 10
1.996639121104964
 20
-1.423130221896713
 30
0.0
  0
SPLINE
  5
6E
330
1F
100
AcDbEntity
  8
Layer 1
 62
   178
420
    65793
370
    35
100
AcDbSpline
210
0.0
220
0.0
230
1.0
 70
    11
 71
     3
 72
    17
 73
    13
 74
     0
 42
0.0000000001
 43
0.0000000001
 12
1.0
 22
0.0
 32
0.0
 13
1.0
 23
0.0
 33
0.0
 40
0.0
 40
0.0
 40
0.0
 40
0.0
 40
1.0
 40
1.0
 40
1.0
 40
2.0
 40
2.0
 40
2.0
 40
3.0
 40
3.0
 40
3.0
 40
4.0
 40
4.0
 40
4.0
 40
4.0
 10
2.11237534072302
 20
-2.870936686197941
 30
0.0
 10
2.089715191254704
 20
-2.874937032063826
 30
0.0
 10
2.068109593652707
 20
-2.859802008734833
 30
0.0
 10
2.064119420312863
 20
-2.837151184082055
 30
0.0
 10
2.060120769867985
 20
-2.814490186903236
 30
0.0
 10
2.075247316091943
 20
-2.792885437011743
 30
0.0
 10
2.097906617849756
 20
-2.788895263671899
 30
0.0
 10
2.120568462739079
 20
-2.784896613227021
 30
0.0
 10
2.142172364920068
 20
-2.800021464029972
 30
0.0
 10
2.146162538259912
 20
-2.822682461208792
 30
0.0
 10
2.150151016178749
 20
-2.845332438151066
 30
0.0
 10
2.135026165375797
 20
-2.866938035753062
 30
0.0
 10
2.11237534072302
 20
-2.870936686197941
 30
0.0
  0
SPLINE
  5
6F
330
1F
100
AcDbEntity
  8
Layer 1
 62
   178
420
    65793
370
    35
100
AcDbSpline
210
0.0
220
0.0
230
1.0
 70
    11
 71
     3
 72
    17
 73
    13
 74
     0
 42
0.0000000001
 43
0.0000000001
 12
1.0
 22
0.0
 32
0.0
 13
1.0
 23
0.0
 33
0.0
 40
0.0
 40
0.0
 40
0.0
 40
0.0
 40
1.0
 40
1.0
 40
1.0
 40
2.0
 40
2.0
 40
2.0
 40
3.0
 40
3.0
 40
3.0
 40
4.0
 40
4.0
 40
4.0
 40
4.0
 10
2.140940641558523
 20
-2.297889472113739
 30
0.0
 10
2.152437291406613
 20
-2.277969122992646
 30
0.0
 10
2.177912687456961
 20
-2.271138271755667
 30
0.0
 10
2.197841513683089
 20
-2.282644246419295
 30
0.0
 10
2.217762710514686
 20
-2.29414937337242
 30
0.0
 10
2.224585084646631
 20
-2.319624769422767
 30
0.0
 10
2.213087587088037
 20
-2.339545118543861
 30
0.0
 10
2.201580764713905
 20
-2.359464619954451
 30
0.0
 10
2.176107064084565
 20
-2.366296318901934
 30
0.0
 10
2.156185867252967
 20
-2.354791191948809
 30
0.0
 10
2.136257041026839
 20
-2.343284369574677
 30
0.0
 10
2.129434666894895
 20
-2.317810668945337
 30
0.0
 10
2.140940641558523
 20
-2.297889472113739
 30
0.0
  0
SPLINE
  5
70
330
1F
100
AcDbEntity
  8
Layer 1
 62
   178
420
    65793
370
    35
100
AcDbSpline
210
0.0
220
0.0
230
1.0
 70
    11
 71
     3
 72
    17
 73
    13
 74
     0
 42
0.0000000001
 43
0.0000000001
 12
1.0
 22
0.0
 32
0.0
 13
1.0
 23
0.0
 33
0.0
 40
0.0
 40
0.0
 40
0.0
 40
0.0
 40
1.0
 40
1.0
 40
1.0
 40
2.0
 40
2.0
 40
2.0
 40
3.0
 40
3.0
 40
3.0
 40
4.0
 40
4.0
 40
4.0
 40
4.0
 10
2.184087410764252
 20
-2.539251302083358
 30
0.0
 10
2.20400860759585
 20
-2.527745327419729
 30
0.0
 10
2.229483155935693
 20
-2.534567701551673
 30
0.0
 10
2.240989130599321
 20
-2.554496527777802
 30
0.0
 10
2.252494257552446
 20
-2.574417724609399
 30
0.0
 10
2.245664254025971
 20
-2.599900750054278
 30
0.0
 10
2.225743057194374
 20
-2.611398247612871
 30
0.0
 10
2.205821860362776
 20
-2.622903374565996
 30
0.0
 10
2.18034900744394
 20
-2.616073371039521
 30
0.0
 10
2.168841337359305
 20
-2.596152174207923
 30
0.0
 10
2.15733621040618
 20
-2.576221652560788
 30
0.0
 10
2.164167909353662
 20
-2.550747951931448
 30
0.0
 10
2.184087410764252
 20
-2.539251302083358
 30
0.0
  0
SPLINE
  5
71
330
1F
100
AcDbEntity
  8
Layer 1
 62
   178
420
    65793
370
    35
100
AcDbSpline
210
0.0
220
0.0
230
1.0
 70
    11
 71
     3
 72
    17
 73
    13
 74
     0
 42
0.0000000001
 43
0.0000000001
 12
1.0
 22
0.0
 32
0.0
 13
1.0
 23
0.0
 33
0.0
 40
0.0
 40
0.0
 40
0.0
 40
0.0
 40
1.0
 40
1.0
 40
1.0
 40
2.0
 40
2.0
 40
2.0
 40
3.0
 40
3.0
 40
3.0
 40
4.0
 40
4.0
 40
4.0
 40
4.0
 10
2.223040556109304
 20
-3.059534471299937
 30
0.0
 10
2.200823759234305
 20
-3.065487094455319
 30
0.0
 10
2.177978808876231
 20
-3.052305196126326
 30
0.0
 10
2.17202618572085
 20
-3.030070597330753
 30
0.0
 10
2.166075257986475
 20
-3.007854648166257
 30
0.0
 10
2.179265633420502
 20
-2.98500885009768
 30
0.0
 10
2.201481582584999
 20
-2.97906639946834
 30
0.0
 10
2.223697531749495
 20
-2.973105299207923
 30
0.0
 10
2.246543329818071
 20
-2.986295674641951
 30
0.0
 10
2.252504430078488
 20
-3.008511623806448
 30
0.0
 10
2.258446880707829
 20
-3.030736897786483
 30
0.0
 10
2.245264982378835
 20
-3.053573371039521
 30
0.0
 10
2.223040556109304
 20
-3.059534471299937
 30
0.0
  0
SPLINE
  5
72
330
1F
100
AcDbEntity
  8
Layer 1
 62
   178
420
    65793
370
    35
100
AcDbSpline
210
0.0
220
0.0
230
1.0
 70
    11
 71
     3
 72
    17
 73
    13
 74
     0
 42
0.0000000001
 43
0.0000000001
 12
1.0
 22
0.0
 32
0.0
 13
1.0
 23
0.0
 33
0.0
 40
0.0
 40
0.0
 40
0.0
 40
0.0
 40
1.0
 40
1.0
 40
1.0
 40
2.0
 40
2.0
 40
2.0
 40
3.0
 40
3.0
 40
3.0
 40
4.0
 40
4.0
 40
4.0
 40
4.0
 10
2.252504430078488
 20
-1.420642191569073
 30
0.0
 10
2.246543329818071
 20
-1.442867465549069
 30
0.0
 10
2.223697531749495
 20
-1.4560493638781
 30
0.0
 10
2.201481582584999
 20
-1.45009674072268
 30
0.0
 10
2.179265633420502
 20
-1.444144965277827
 30
0.0
 10
2.166075257986475
 20
-1.421309339735179
 30
0.0
 10
2.17202618572085
 20
-1.399083218044767
 30
0.0
 10
2.177978808876231
 20
-1.376857944064606
 30
0.0
 10
2.200823759234305
 20
-1.363667568630578
 30
0.0
 10
2.223040556109304
 20
-1.369628668890995
 30
0.0
 10
2.245264982378835
 20
-1.375580444335873
 30
0.0
 10
2.258446880707829
 20
-1.398416069878522
 30
0.0
 10
2.252504430078488
 20
-1.420642191569073
 30
0.0
  0
SPLINE
  5
73
330
1F
100
AcDbEntity
  8
Layer 1
 62
   178
420
    65793
370
    35
100
AcDbSpline
210
0.0
220
0.0
230
1.0
 70
    11
 71
     3
 72
    17
 73
    13
 74
     0
 42
0.0000000001
 43
0.0000000001
 12
1.0
 22
0.0
 32
0.0
 13
1.0
 23
0.0
 33
0.0
 40
0.0
 40
0.0
 40
0.0
 40
0.0
 40
1.0
 40
1.0
 40
1.0
 40
2.0
 40
2.0
 40
2.0
 40
3.0
 40
3.0
 40
3.0
 40
4.0
 40
4.0
 40
4.0
 40
4.0
 10
2.329880901703922
 20
-2.791767306857663
 30
0.0
 10
2.309961400293332
 20
-2.803273281521292
 30
0.0
 10
2.284486004242985
 20
-2.796450907389347
 30
0.0
 10
2.27298087728986
 20
-2.776531405978757
 30
0.0
 10
2.261474054915728
 20
-2.756600884331621
 30
0.0
 10
2.26830575386321
 20
-2.731117858886743
 30
0.0
 10
2.288226102984304
 20
-2.719620361328149
 30
0.0
 10
2.308145604394895
 20
-2.708124559190562
 30
0.0
 10
2.333621000445242
 20
-2.714946933322507
 30
0.0
 10
2.345126127398367
 20
-2.734875759548635
 30
0.0
 10
2.356632949772499
 20
-2.754796956380233
 30
0.0
 10
2.349801250825016
 20
-2.780270657009573
 30
0.0
 10
2.329880901703922
 20
-2.791767306857663
 30
0.0
  0
SPLINE
  5
74
330
1F
100
AcDbEntity
  8
Layer 1
 62
   178
420
    65793
370
    35
100
AcDbSpline
210
0.0
220
0.0
230
1.0
 70
    11
 71
     3
 72
    17
 73
    13
 74
     0
 42
0.0000000001
 43
0.0000000001
 12
1.0
 22
0.0
 32
0.0
 13
1.0
 23
0.0
 33
0.0
 40
0.0
 40
0.0
 40
0.0
 40
0.0
 40
1.0
 40
1.0
 40
1.0
 40
2.0
 40
2.0
 40
2.0
 40
3.0
 40
3.0
 40
3.0
 40
4.0
 40
4.0
 40
4.0
 40
4.0
 10
2.336556621918766
 20
-2.458929036458358
 30
0.0
 10
2.316627795692638
 20
-2.447423061794729
 30
0.0
 10
2.309805421560693
 20
-2.421948513454885
 30
0.0
 10
2.321311396224321
 20
-2.402027316623288
 30
0.0
 10
2.332808046072412
 20
-2.382107815212698
 30
0.0
 10
2.358281746701752
 20
-2.375276116265215
 30
0.0
 10
2.378212268348888
 20
-2.38678124321834
 30
0.0
 10
2.398133465180485
 20
-2.398288065592472
 30
0.0
 10
2.404964316417464
 20
-2.423761766221812
 30
0.0
 10
2.393458341753835
 20
-2.443682963053409
 30
0.0
 10
2.381960844195242
 20
-2.463603312174503
 30
0.0
 10
2.356477818750363
 20
-2.470434163411483
 30
0.0
 10
2.336556621918766
 20
-2.458929036458358
 30
0.0
  0
SPLINE
  5
75
330
1F
100
AcDbEntity
  8
Layer 1
 62
   178
420
    65793
370
    35
100
AcDbSpline
210
0.0
220
0.0
230
1.0
 70
    11
 71
     3
 72
    17
 73
    13
 74
     0
 42
0.0000000001
 43
0.0000000001
 12
1.0
 22
0.0
 32
0.0
 13
1.0
 23
0.0
 33
0.0
 40
0.0
 40
0.0
 40
0.0
 40
0.0
 40
1.0
 40
1.0
 40
1.0
 40
2.0
 40
2.0
 40
2.0
 40
3.0
 40
3.0
 40
3.0
 40
4.0
 40
4.0
 40
4.0
 40
4.0
 10
2.434019593923975
 20
-2.972146538628496
 30
0.0
 10
2.414098397092377
 20
-2.98364403618709
 30
0.0
 10
2.388623848752534
 20
-2.976821662055146
 30
0.0
 10
2.377117874088905
 20
-2.956901312934052
 30
0.0
 10
2.36561274713578
 20
-2.93697163899742
 30
0.0
 10
2.372442750662256
 20
-2.911497090657576
 30
0.0
 10
2.392363947493853
 20
-2.899991115993948
 30
0.0
 10
2.41228514432545
 20
-2.888493618435354
 30
0.0
 10
2.437757997244287
 20
-2.895315992567298
 30
0.0
 10
2.449265667328922
 20
-2.91524566650393
 30
0.0
 10
2.460770794282047
 20
-2.935166015625024
 30
0.0
 10
2.453939943045068
 20
-2.960641411675371
 30
0.0
 10
2.434019593923975
 20
-2.972146538628496
 30
0.0
  0
SPLINE
  5
76
330
1F
100
AcDbEntity
  8
Layer 1
 62
   178
420
    65793
370
    35
100
AcDbSpline
210
0.0
220
0.0
230
1.0
 70
    11
 71
     3
 72
    17
 73
    13
 74
     0
 42
0.0000000001
 43
0.0000000001
 12
1.0
 22
0.0
 32
0.0
 13
1.0
 23
0.0
 33
0.0
 40
0.0
 40
0.0
 40
0.0
 40
0.0
 40
1.0
 40
1.0
 40
1.0
 40
2.0
 40
2.0
 40
2.0
 40
3.0
 40
3.0
 40
3.0
 40
4.0
 40
4.0
 40
4.0
 40
4.0
 10
2.507195660004704
 20
-2.642983093261743
 30
0.0
 10
2.492403959429617
 20
-2.660607842339434
 30
0.0
 10
2.466133410927013
 20
-2.662903442382837
 30
0.0
 10
2.448508661849321
 20
-2.648120218912784
 30
0.0
 10
2.430883065061127
 20
-2.633336995442733
 30
0.0
 10
2.428589160438731
 20
-2.607057969835094
 30
0.0
 10
2.443370688487776
 20
-2.589442545572941
 30
0.0
 10
2.45816408448387
 20
-2.57181779649525
 30
0.0
 10
2.484432937565467
 20
-2.569512023925805
 30
0.0
 10
2.502058534353662
 20
-2.584305419921899
 30
0.0
 10
2.519683283431353
 20
-2.599086947970944
 30
0.0
 10
2.521989056000797
 20
-2.62536766899959
 30
0.0
 10
2.507195660004704
 20
-2.642983093261743
 30
0.0
  0
SPLINE
  5
77
330
1F
100
AcDbEntity
  8
Layer 1
 62
   178
420
    65793
370
    35
100
AcDbSpline
210
0.0
220
0.0
230
1.0
 70
    11
 71
     3
 72
    17
 73
    13
 74
     0
 42
0.0000000001
 43
0.0000000001
 12
1.0
 22
0.0
 32
0.0
 13
1.0
 23
0.0
 33
0.0
 40
0.0
 40
0.0
 40
0.0
 40
0.0
 40
1.0
 40
1.0
 40
1.0
 40
2.0
 40
2.0
 40
2.0
 40
3.0
 40
3.0
 40
3.0
 40
4.0
 40
4.0
 40
4.0
 40
4.0
 10
2.502058534353662
 20
-1.84485941569004
 30
0.0
 10
2.484432937565467
 20
-1.859640943739211
 30
0.0
 10
2.45816408448387
 20
-1.857347039116689
 30
0.0
 10
2.443370688487776
 20
-1.839721442328495
 30
0.0
 10
2.428589160438731
 20
-1.82209669325088
 30
0.0
 10
2.430883065061127
 20
-1.795826144748238
 30
0.0
 10
2.448508661849321
 20
-1.781034444173239
 30
0.0
 10
2.466133410927013
 20
-1.766251220703099
 30
0.0
 10
2.492403959429617
 20
-1.768546820746577
 30
0.0
 10
2.507195660004704
 20
-1.786171569824205
 30
0.0
 10
2.521989056000797
 20
-1.80379547119143
 30
0.0
 10
2.519683283431353
 20
-1.830066019694073
 30
0.0
 10
2.502058534353662
 20
-1.84485941569004
 30
0.0
  0
SPLINE
  5
78
330
1F
100
AcDbEntity
  8
Layer 1
 62
   178
420
    65793
370
    35
100
AcDbSpline
210
0.0
220
0.0
230
1.0
 70
    11
 71
     3
 72
    17
 73
    13
 74
     0
 42
0.0000000001
 43
0.0000000001
 12
1.0
 22
0.0
 32
0.0
 13
1.0
 23
0.0
 33
0.0
 40
0.0
 40
0.0
 40
0.0
 40
0.0
 40
1.0
 40
1.0
 40
1.0
 40
2.0
 40
2.0
 40
2.0
 40
3.0
 40
3.0
 40
3.0
 40
4.0
 40
4.0
 40
4.0
 40
4.0
 10
2.544639032943071
 20
-2.414034288194469
 30
0.0
 10
2.552516806651839
 20
-2.392419365776934
 30
0.0
 10
2.576416308876231
 20
-2.381274515787784
 30
0.0
 10
2.598040556109304
 20
-2.389132792154972
 30
0.0
 10
2.619655478526839
 20
-2.397010565863739
 30
0.0
 10
2.630800328515988
 20
-2.420911763509139
 30
0.0
 10
2.622931879622759
 20
-2.44252583821617
 30
0.0
 10
2.615054105913992
 20
-2.464149237738739
 30
0.0
 10
2.5911546036896
 20
-2.475294087727889
 30
0.0
 10
2.569538833561561
 20
-2.467425638834659
 30
0.0
 10
2.547915434038992
 20
-2.459558037651934
 30
0.0
 10
2.536770584049842
 20
-2.435657687717038
 30
0.0
 10
2.544639032943071
 20
-2.414034288194469
 30
0.0
  0
SPLINE
  5
79
330
1F
100
AcDbEntity
  8
Layer 1
 62
   178
420
    65793
370
    35
100
AcDbSpline
210
0.0
220
0.0
230
1.0
 70
    11
 71
     3
 72
    17
 73
    13
 74
     0
 42
0.0000000001
 43
0.0000000001
 12
1.0
 22
0.0
 32
0.0
 13
1.0
 23
0.0
 33
0.0
 40
0.0
 40
0.0
 40
0.0
 40
0.0
 40
1.0
 40
1.0
 40
1.0
 40
2.0
 40
2.0
 40
2.0
 40
3.0
 40
3.0
 40
3.0
 40
4.0
 40
4.0
 40
4.0
 40
4.0
 10
2.615184653331526
 20
-2.833124559190562
 30
0.0
 10
2.598920479611909
 20
-2.849398057725719
 30
0.0
 10
2.572549053559391
 20
-2.849398057725719
 30
0.0
 10
2.556284879839773
 20
-2.833124559190562
 30
0.0
 10
2.540011381304617
 20
-2.816860385470944
 30
0.0
 10
2.540011381304617
 20
-2.790488111707923
 30
0.0
 10
2.556284879839773
 20
-2.774224785698809
 30
0.0
 10
2.572549053559391
 20
-2.757951287163653
 30
0.0
 10
2.598920479611909
 20
-2.757951287163653
 30
0.0
 10
2.615184653331526
 20
-2.774224785698809
 30
0.0
 10
2.631458151866683
 20
-2.790488111707923
 30
0.0
 10
2.631458151866683
 20
-2.816860385470944
 30
0.0
 10
2.615184653331526
 20
-2.833124559190562
 30
0.0
  0
SPLINE
  5
7A
330
1F
100
AcDbEntity
  8
Layer 1
 62
   178
420
    65793
370
    35
100
AcDbSpline
210
0.0
220
0.0
230
1.0
 70
    11
 71
     3
 72
    17
 73
    13
 74
     0
 42
0.0000000001
 43
0.0000000001
 12
1.0
 22
0.0
 32
0.0
 13
1.0
 23
0.0
 33
0.0
 40
0.0
 40
0.0
 40
0.0
 40
0.0
 40
1.0
 40
1.0
 40
1.0
 40
2.0
 40
2.0
 40
2.0
 40
3.0
 40
3.0
 40
3.0
 40
4.0
 40
4.0
 40
4.0
 40
4.0
 10
2.621467883583263
 20
-2.256233825683618
 30
0.0
 10
2.598465259071544
 20
-2.256233825683618
 30
0.0
 10
2.579812237153141
 20
-2.237582499186222
 30
0.0
 10
2.579812237153141
 20
-2.214579026964
 30
0.0
 10
2.579812237153141
 20
-2.191575554741778
 30
0.0
 10
2.598465259071544
 20
-2.172924228244382
 30
0.0
 10
2.621467883583263
 20
-2.172924228244382
 30
0.0
 10
2.644470508094981
 20
-2.172924228244382
 30
0.0
 10
2.663121834592377
 20
-2.191575554741778
 30
0.0
 10
2.663121834592377
 20
-2.214579026964
 30
0.0
 10
2.663121834592377
 20
-2.237582499186222
 30
0.0
 10
2.644470508094981
 20
-2.256233825683618
 30
0.0
 10
2.621467883583263
 20
-2.256233825683618
 30
0.0
  0
SPLINE
  5
7B
330
1F
100
AcDbEntity
  8
Layer 1
 62
   178
420
    65793
370
    35
100
AcDbSpline
210
0.0
220
0.0
230
1.0
 70
    11
 71
     3
 72
    17
 73
    13
 74
     0
 42
0.0000000001
 43
0.0000000001
 12
1.0
 22
0.0
 32
0.0
 13
1.0
 23
0.0
 33
0.0
 40
0.0
 40
0.0
 40
0.0
 40
0.0
 40
1.0
 40
1.0
 40
1.0
 40
2.0
 40
2.0
 40
2.0
 40
3.0
 40
3.0
 40
3.0
 40
4.0
 40
4.0
 40
4.0
 40
4.0
 10
2.75420663276946
 20
-2.65195949978301
 30
0.0
 10
2.742701505816335
 20
-2.671879848904104
 30
0.0
 10
2.717226109765988
 20
-2.678710700141083
 30
0.0
 10
2.697305760644895
 20
-2.667204725477454
 30
0.0
 10
2.677376086708263
 20
-2.655697903103323
 30
0.0
 10
2.670554560286821
 20
-2.630224202473983
 30
0.0
 10
2.682051210134912
 20
-2.610303853352889
 30
0.0
 10
2.69355718479854
 20
-2.590382656521292
 30
0.0
 10
2.719031733138384
 20
-2.583552652994816
 30
0.0
 10
2.738961407075016
 20
-2.595057779947941
 30
0.0
 10
2.75888175619611
 20
-2.606563754611569
 30
0.0
 10
2.765704130328054
 20
-2.632038302951413
 30
0.0
 10
2.75420663276946
 20
-2.65195949978301
 30
0.0
  0
SPLINE
  5
7C
330
1F
100
AcDbEntity
  8
Layer 1
 62
   178
420
    65793
370
    35
100
AcDbSpline
210
0.0
220
0.0
230
1.0
 70
    11
 71
     3
 72
    17
 73
    13
 74
     0
 42
0.0000000001
 43
0.0000000001
 12
1.0
 22
0.0
 32
0.0
 13
1.0
 23
0.0
 33
0.0
 40
0.0
 40
0.0
 40
0.0
 40
0.0
 40
1.0
 40
1.0
 40
1.0
 40
2.0
 40
2.0
 40
2.0
 40
3.0
 40
3.0
 40
3.0
 40
4.0
 40
4.0
 40
4.0
 40
4.0
 10
2.738961407075016
 20
-1.8341011216906
 30
0.0
 10
2.719031733138384
 20
-1.84560624864365
 30
0.0
 10
2.69355718479854
 20
-1.838776245117123
 30
0.0
 10
2.682051210134912
 20
-1.818855048285602
 30
0.0
 10
2.670554560286821
 20
-1.798933851453929
 30
0.0
 10
2.677376086708263
 20
-1.773459303114211
 30
0.0
 10
2.697305760644895
 20
-1.761953328450456
 30
0.0
 10
2.717226109765988
 20
-1.750448201497407
 30
0.0
 10
2.742701505816335
 20
-1.757279052734349
 30
0.0
 10
2.75420663276946
 20
-1.777199401855455
 30
0.0
 10
2.765704130328054
 20
-1.797120598687128
 30
0.0
 10
2.75888175619611
 20
-1.82259429931643
 30
0.0
 10
2.738961407075016
 20
-1.8341011216906
 30
0.0
  0
SPLINE
  5
7D
330
1F
100
AcDbEntity
  8
Layer 1
 62
   178
420
    65793
370
    35
100
AcDbSpline
210
0.0
220
0.0
230
1.0
 70
    11
 71
     3
 72
    17
 73
    13
 74
     0
 42
0.0000000001
 43
0.0000000001
 12
1.0
 22
0.0
 32
0.0
 13
1.0
 23
0.0
 33
0.0
 40
0.0
 40
0.0
 40
0.0
 40
0.0
 40
1.0
 40
1.0
 40
1.0
 40
2.0
 40
2.0
 40
2.0
 40
3.0
 40
3.0
 40
3.0
 40
4.0
 40
4.0
 40
4.0
 40
4.0
 10
2.841594565440901
 20
-2.44098046196834
 30
0.0
 10
2.835633465180485
 20
-2.463204888237871
 30
0.0
 10
2.812796991927446
 20
-2.476386786566864
 30
0.0
 10
2.790572565657915
 20
-2.470444335937524
 30
0.0
 10
2.768355768782915
 20
-2.464483235677108
 30
0.0
 10
2.755165393348888
 20
-2.441636589898028
 30
0.0
 10
2.761126493609304
 20
-2.419421488444034
 30
0.0
 10
2.767069791949148
 20
-2.397204691569034
 30
0.0
 10
2.789915590017725
 20
-2.38401516384551
 30
0.0
 10
2.812130691471717
 20
-2.389966091579885
 30
0.0
 10
2.83436529026729
 20
-2.395918714735267
 30
0.0
 10
2.847547188596284
 20
-2.41876366509334
 30
0.0
 10
2.841594565440901
 20
-2.44098046196834
 30
0.0
  0
SPLINE
  5
7E
330
1F
100
AcDbEntity
  8
Layer 1
 62
   178
420
    65793
370
    35
100
AcDbSpline
210
0.0
220
0.0
230
1.0
 70
    11
 71
     3
 72
    17
 73
    13
 74
     0
 42
0.0000000001
 43
0.0000000001
 12
1.0
 22
0.0
 32
0.0
 13
1.0
 23
0.0
 33
0.0
 40
0.0
 40
0.0
 40
0.0
 40
0.0
 40
1.0
 40
1.0
 40
1.0
 40
2.0
 40
2.0
 40
2.0
 40
3.0
 40
3.0
 40
3.0
 40
4.0
 40
4.0
 40
4.0
 40
4.0
 10
2.829742724891856
 20
-2.256233825683618
 30
0.0
 10
2.806740100380138
 20
-2.256233825683618
 30
0.0
 10
2.788088773882742
 20
-2.237582499186222
 30
0.0
 10
2.788088773882742
 20
-2.214579026964
 30
0.0
 10
2.788088773882742
 20
-2.191575554741778
 30
0.0
 10
2.806740100380138
 20
-2.172924228244382
 30
0.0
 10
2.829742724891856
 20
-2.172924228244382
 30
0.0
 10
2.852747044824582
 20
-2.172924228244382
 30
0.0
 10
2.871398371321978
 20
-2.191575554741778
 30
0.0
 10
2.871398371321978
 20
-2.214579026964
 30
0.0
 10
2.871398371321978
 20
-2.237582499186222
 30
0.0
 10
2.852747044824582
 20
-2.256233825683618
 30
0.0
 10
2.829742724891856
 20
-2.256233825683618
 30
0.0
  0
SPLINE
  5
7F
330
1F
100
AcDbEntity
  8
Layer 1
 62
   178
420
    65793
370
    35
100
AcDbSpline
210
0.0
220
0.0
230
1.0
 70
    11
 71
     3
 72
    35
 73
    31
 74
     0
 42
0.0000000001
 43
0.0000000001
 12
1.0
 22
0.0
 32
0.0
 13
1.0
 23
0.0
 33
0.0
 40
0.0
 40
0.0
 40
0.0
 40
0.0
 40
1.0
 40
1.0
 40
1.0
 40
2.0
 40
2.0
 40
2.0
 40
3.0
 40
3.0
 40
3.0
 40
4.0
 40
4.0
 40
4.0
 40
5.0
 40
5.0
 40
5.0
 40
6.0
 40
6.0
 40
6.0
 40
7.0
 40
7.0
 40
7.0
 40
8.0
 40
8.0
 40
8.0
 40
9.0
 40
9.0
 40
9.0
 40
10.0
 40
10.0
 40
10.0
 40
10.0
 10
3.510149376650058
 20
-1.507251315646701
 30
0.0
 10
3.510149376650058
 20
-1.507251315646701
 30
0.0
 10
3.510256188173495
 20
-1.507251315646701
 30
0.0
 10
3.510256188173495
 20
-1.507251315646701
 30
0.0
 10
3.510256188173495
 20
-1.507251315646701
 30
0.0
 10
2.949741526172627
 20
-0.3412309095594613
 30
0.0
 10
2.949741526172627
 20
-0.3412309095594613
 30
0.0
 10
2.90274530357063
 20
-0.2166344197591141
 30
0.0
 10
2.783498714757696
 20
-0.1341657511393224
 30
0.0
 10
2.650332719477749
 20
-0.1341657511393224
 30
0.0
 10
2.650332719477749
 20
-0.1341657511393224
 30
0.0
 10
1.342935936708651
 20
-0.1341657511393224
 30
0.0
 10
1.342935936708651
 20
-0.1341657511393224
 30
0.0
 10
1.209775027691724
 20
-0.1341657511393224
 30
0.0
 10
1.090530982010301
 20
-0.2166293334960932
 30
0.0
 10
1.04353136856629
 20
-0.3412207370334196
 30
0.0
 10
1.04353136856629
 20
-0.3412207370334196
 30
0.0
 10
0.4829590622511861
 20
-1.50724114312066
 30
0.0
 10
0.4829590622511861
 20
-1.50724114312066
 30
0.0
 10
0.384042266732523
 20
-1.722447713216146
 30
0.0
 10
0.3296794398553528
 20
-1.962373521592882
 30
0.0
 10
0.3316927523010993
 20
-2.215219285753038
 30
0.0
 10
0.3388618400289639
 20
-3.115901523166233
 30
0.0
 10
1.072020375456481
 20
-3.853815714518229
 30
0.0
 10
1.972642425423929
 20
-3.866497463650173
 30
0.0
 10
2.903190351584954
 20
-3.879600524902344
 30
0.0
 10
3.661638634462558
 20
-3.129206339518229
 30
0.0
 10
3.661638634462558
 20
-2.201666090223524
 30
0.0
 10
3.661638634462558
 20
-1.953773498535144
 30
0.0
 10
3.607316497689554
 20
-1.718627081976984
 30
0.0
 10
3.510149376650058
 20
-1.507251315646701
 30
0.0
  0
SPLINE
  5
80
330
1F
100
AcDbEntity
  8
Layer 1
 62
   178
420
    65793
370
    35
100
AcDbSpline
210
0.0
220
0.0
230
1.0
 70
    11
 71
     3
 72
    17
 73
    13
 74
     0
 42
0.0000000001
 43
0.0000000001
 12
1.0
 22
0.0
 32
0.0
 13
1.0
 23
0.0
 33
0.0
 40
0.0
 40
0.0
 40
0.0
 40
0.0
 40
1.0
 40
1.0
 40
1.0
 40
2.0
 40
2.0
 40
2.0
 40
3.0
 40
3.0
 40
3.0
 40
4.0
 40
4.0
 40
4.0
 40
4.0
 10
2.587189307205613
 20
-0.439414435492621
 30
0.0
 10
2.618117177214294
 20
-0.439414435492621
 30
0.0
 10
2.643189063064988
 20
-0.4644863213433155
 30
0.0
 10
2.643189063064988
 20
-0.4954150390624995
 30
0.0
 10
2.643189063064988
 20
-0.52634290907118
 30
0.0
 10
2.618117177214294
 20
-0.5514147949218745
 30
0.0
 10
2.587189307205613
 20
-0.5514147949218745
 30
0.0
 10
2.556261437196933
 20
-0.5514147949218745
 30
0.0
 10
2.531189551346238
 20
-0.52634290907118
 30
0.0
 10
2.531189551346238
 20
-0.4954150390624995
 30
0.0
 10
2.531189551346238
 20
-0.4644863213433155
 30
0.0
 10
2.556261437196933
 20
-0.439414435492621
 30
0.0
 10
2.587189307205613
 20
-0.439414435492621
 30
0.0
  0
POLYLINE
  5
81
330
1F
100
AcDbEntity
  8
Layer 1
 62
   178
420
    65793
370
    35
100
AcDb2dPolyline
 66
     1
 10
0.0
 20
0.0
 30
0.0
  0
VERTEX
  5
82
330
81
100
AcDbEntity
  8
Layer 1
 62
   178
420
    65793
370
    35
100
AcDbVertex
100
AcDb2dVertex
 10
1.701638702279398
 20
-0.3454143608940967
 30
0.0
  0
VERTEX
  5
83
330
81
100
AcDbEntity
  8
Layer 1
 62
   178
420
    65793
370
    35
100
AcDbVertex
100
AcDb2dVertex
 10
2.291638431012037
 20
-0.3454143608940967
 30
0.0
  0
VERTEX
  5
84
330
81
100
AcDbEntity
  8
Layer 1
 62
   178
420
    65793
370
    35
100
AcDbVertex
100
AcDb2dVertex
 10
2.291638431012037
 20
-0.6454148695203987
 30
0.0
  0
VERTEX
  5
85
330
81
100
AcDbEntity
  8
Layer 1
 62
   178
420
    65793
370
    35
100
AcDbVertex
100
AcDb2dVertex
 10
1.701638702279398
 20
-0.6454148695203987
 30
0.0
  0
VERTEX
  5
86
330
81
100
AcDbEntity
  8
Layer 1
 62
   178
420
    65793
370
    35
100
AcDbVertex
100
AcDb2dVertex
 10
1.701638702279398
 20
-0.3454143608940967
 30
0.0
  0
SEQEND
  5
87
330
81
100
AcDbEntity
  8
Layer 1
 62
   178
420
    65793
370
    35
  0
SPLINE
  5
88
330
1F
100
AcDbEntity
  8
Layer 1
 62
   178
420
    65793
370
    35
100
AcDbSpline
210
0.0
220
0.0
230
1.0
 70
    11
 71
     3
 72
    17
 73
    13
 74
     0
 42
0.0000000001
 43
0.0000000001
 12
1.0
 22
0.0
 32
0.0
 13
1.0
 23
0.0
 33
0.0
 40
0.0
 40
0.0
 40
0.0
 40
0.0
 40
1.0
 40
1.0
 40
1.0
 40
2.0
 40
2.0
 40
2.0
 40
3.0
 40
3.0
 40
3.0
 40
4.0
 40
4.0
 40
4.0
 40
4.0
 10
1.406086978375318
 20
-0.439414435492621
 30
0.0
 10
1.437014848383999
 20
-0.439414435492621
 30
0.0
 10
1.462086734234693
 20
-0.4644863213433155
 30
0.0
 10
1.462086734234693
 20
-0.4954150390624995
 30
0.0
 10
1.462086734234693
 20
-0.52634290907118
 30
0.0
 10
1.437014848383999
 20
-0.5514147949218745
 30
0.0
 10
1.406086978375318
 20
-0.5514147949218745
 30
0.0
 10
1.375159108366637
 20
-0.5514147949218745
 30
0.0
 10
1.350087222515943
 20
-0.52634290907118
 30
0.0
 10
1.350087222515943
 20
-0.4954150390624995
 30
0.0
 10
1.350087222515943
 20
-0.4644863213433155
 30
0.0
 10
1.375159108366637
 20
-0.439414435492621
 30
0.0
 10
1.406086978375318
 20
-0.439414435492621
 30
0.0
  0
SPLINE
  5
89
330
1F
100
AcDbEntity
  8
Layer 1
 62
   178
420
    65793
370
    35
100
AcDbSpline
210
0.0
220
0.0
230
1.0
 70
    11
 71
     3
 72
    17
 73
    13
 74
     0
 42
0.0000000001
 43
0.0000000001
 12
1.0
 22
0.0
 32
0.0
 13
1.0
 23
0.0
 33
0.0
 40
0.0
 40
0.0
 40
0.0
 40
0.0
 40
1.0
 40
1.0
 40
1.0
 40
2.0
 40
2.0
 40
2.0
 40
3.0
 40
3.0
 40
3.0
 40
4.0
 40
4.0
 40
4.0
 40
4.0
 10
0.5191384988288771
 20
-2.264166090223524
 30
0.0
 10
0.4846205748379917
 20
-2.264166090223524
 30
0.0
 10
0.4566384988288771
 20
-2.236184014214409
 30
0.0
 10
0.4566384988288771
 20
-2.201666090223524
 30
0.0
 10
0.4566384988288771
 20
-2.167148166232639
 30
0.0
 10
0.4846205748379917
 20
-2.139166090223524
 30
0.0
 10
0.5191384988288771
 20
-2.139166090223524
 30
0.0
 10
0.553657270530266
 20
-2.139166090223524
 30
0.0
 10
0.5816384988288771
 20
-2.167148166232639
 30
0.0
 10
0.5816384988288771
 20
-2.201666090223524
 30
0.0
 10
0.5816384988288771
 20
-2.236184014214409
 30
0.0
 10
0.553657270530266
 20
-2.264166090223524
 30
0.0
 10
0.5191384988288771
 20
-2.264166090223524
 30
0.0
  0
SPLINE
  5
8A
330
1F
100
AcDbEntity
  8
Layer 1
 62
   178
420
    65793
370
    35
100
AcDbSpline
210
0.0
220
0.0
230
1.0
 70
    11
 71
     3
 72
    17
 73
    13
 74
     0
 42
0.0000000001
 43
0.0000000001
 12
1.0
 22
0.0
 32
0.0
 13
1.0
 23
0.0
 33
0.0
 40
0.0
 40
0.0
 40
0.0
 40
0.0
 40
1.0
 40
1.0
 40
1.0
 40
2.0
 40
2.0
 40
2.0
 40
3.0
 40
3.0
 40
3.0
 40
4.0
 40
4.0
 40
4.0
 40
4.0
 10
1.996638566645717
 20
-3.741666158040364
 30
0.0
 10
1.962120642654832
 20
-3.741666158040364
 30
0.0
 10
1.934138566645717
 20
-3.71368408203125
 30
0.0
 10
1.934138566645717
 20
-3.679166158040364
 30
0.0
 10
1.934138566645717
 20
-3.644648234049479
 30
0.0
 10
1.962120642654832
 20
-3.616666158040364
 30
0.0
 10
1.996638566645717
 20
-3.616666158040364
 30
0.0
 10
2.031157338347106
 20
-3.616666158040364
 30
0.0
 10
2.059138566645717
 20
-3.644648234049479
 30
0.0
 10
2.059138566645717
 20
-3.679166158040364
 30
0.0
 10
2.059138566645717
 20
-3.71368408203125
 30
0.0
 10
2.031157338347106
 20
-3.741666158040364
 30
0.0
 10
1.996638566645717
 20
-3.741666158040364
 30
0.0
  0
SPLINE
  5
8B
330
1F
100
AcDbEntity
  8
Layer 1
 62
   178
420
    65793
370
    35
100
AcDbSpline
210
0.0
220
0.0
230
1.0
 70
    11
 71
     3
 72
    17
 73
    13
 74
     0
 42
0.0000000001
 43
0.0000000001
 12
1.0
 22
0.0
 32
0.0
 13
1.0
 23
0.0
 33
0.0
 40
0.0
 40
0.0
 40
0.0
 40
0.0
 40
1.0
 40
1.0
 40
1.0
 40
2.0
 40
2.0
 40
2.0
 40
3.0
 40
3.0
 40
3.0
 40
4.0
 40
4.0
 40
4.0
 40
4.0
 10
1.996638566645717
 20
-3.491666158040364
 30
0.0
 10
1.284191294239033
 20
-3.491666158040364
 30
0.0
 10
0.7066384988288771
 20
-2.914113362630208
 30
0.0
 10
0.7066384988288771
 20
-2.201666090223524
 30
0.0
 10
0.7066384988288771
 20
-1.48921881781684
 30
0.0
 10
1.284191294239033
 20
-0.9116660224066714
 30
0.0
 10
1.996638566645717
 20
-0.9116660224066714
 30
0.0
 10
2.709085839052401
 20
-0.9116660224066714
 30
0.0
 10
3.286638634462558
 20
-1.48921881781684
 30
0.0
 10
3.286638634462558
 20
-2.201666090223524
 30
0.0
 10
3.286638634462558
 20
-2.914113362630208
 30
0.0
 10
2.709085839052401
 20
-3.491666158040364
 30
0.0
 10
1.996638566645717
 20
-3.491666158040364
 30
0.0
  0
SPLINE
  5
8C
330
1F
100
AcDbEntity
  8
Layer 1
 62
   178
420
    65793
370
    35
100
AcDbSpline
210
0.0
220
0.0
230
1.0
 70
    11
 71
     3
 72
    17
 73
    13
 74
     0
 42
0.0000000001
 43
0.0000000001
 12
1.0
 22
0.0
 32
0.0
 13
1.0
 23
0.0
 33
0.0
 40
0.0
 40
0.0
 40
0.0
 40
0.0
 40
1.0
 40
1.0
 40
1.0
 40
2.0
 40
2.0
 40
2.0
 40
3.0
 40
3.0
 40
3.0
 40
4.0
 40
4.0
 40
4.0
 40
4.0
 10
3.474138634462558
 20
-2.264166090223524
 30
0.0
 10
3.439620710471672
 20
-2.264166090223524
 30
0.0
 10
3.411638634462558
 20
-2.236184014214409
 30
0.0
 10
3.411638634462558
 20
-2.201666090223524
 30
0.0
 10
3.411638634462558
 20
-2.167148166232639
 30
0.0
 10
3.439620710471672
 20
-2.139166090223524
 30
0.0
 10
3.474138634462558
 20
-2.139166090223524
 30
0.0
 10
3.508656558453443
 20
-2.139166090223524
 30
0.0
 10
3.536638634462558
 20
-2.167148166232639
 30
0.0
 10
3.536638634462558
 20
-2.201666090223524
 30
0.0
 10
3.536638634462558
 20
-2.236184014214409
 30
0.0
 10
3.508656558453443
 20
-2.264166090223524
 30
0.0
 10
3.474138634462558
 20
-2.264166090223524
 30
0.0
  0
ENDSEC
  0
SECTION
  2
OBJECTS
  0
DICTIONARY
  5
C
330
0
100
AcDbDictionary
281
     1
  3
ACAD_GROUP
350
D
  3
ACAD_LAYOUT
350
1A
  3
ACAD_MATERIAL
350
3B
  3
ACAD_MLEADERSTYLE
350
8E
  3
ACAD_MLINESTYLE
350
17
  3
ACAD_PLOTSETTINGS
350
19
  3
ACAD_PLOTSTYLENAME
350
E
  3
ACAD_TABLESTYLE
350
8D
  3
ACAD_VISUALSTYLE
350
2A
  0
SUN
  5
3F
330
29
100
AcDbSun
 90
        1
290
     0
 63
     7
421
 16777215
 40
1.0
291
     1
 91
  2455826
 92
 54000000
292
     0
 70
     2
 71
   256
280
     1
  0
DICTIONARY
  5
D
102
{ACAD_REACTORS
330
C
102
}
330
C
100
AcDbDictionary
281
     1
  0
DICTIONARY
  5
1A
102
{ACAD_REACTORS
330
C
102
}
330
C
100
AcDbDictionary
281
     1
  3
Layout1
350
1E
  3
Layout2
350
26
  3
Model
350
22
  0
DICTIONARY
  5
3B
102
{ACAD_REACTORS
330
C
102
}
330
C
100
AcDbDictionary
281
     1
  3
ByBlock
350
3D
  3
ByLayer
350
3C
  3
Global
350
3E
  0
DICTIONARY
  5
8E
102
{ACAD_REACTORS
330
C
102
}
330
C
100
AcDbDictionary
281
     1
  0
DICTIONARY
  5
17
102
{ACAD_REACTORS
330
C
102
}
330
C
100
AcDbDictionary
281
     1
  3
Standard
350
18
  0
DICTIONARY
  5
19
102
{ACAD_REACTORS
330
C
102
}
330
C
100
AcDbDictionary
281
     1
  0
ACDBDICTIONARYWDFLT
  5
E
102
{ACAD_REACTORS
330
C
102
}
330
C
100
AcDbDictionary
281
     1
  3
Normal
350
F
100
AcDbDictionaryWithDefault
340
F
  0
DICTIONARY
  5
8D
102
{ACAD_REACTORS
330
C
102
}
330
C
100
AcDbDictionary
281
     1
  0
DICTIONARY
  5
2A
102
{ACAD_REACTORS
330
C
102
}
330
C
100
AcDbDictionary
281
     1
  3
2dWireframe
350
2F
  3
3D Hidden
350
31
  3
3dWireframe
350
30
  3
Basic
350
32
  3
Brighten
350
36
  3
ColorChange
350
3A
  3
Conceptual
350
34
  3
Dim
350
35
  3
Facepattern
350
39
  3
Flat
350
2B
  3
FlatWithEdges
350
2C
  3
Gouraud
350
2D
  3
GouraudWithEdges
350
2E
  3
Linepattern
350
38
  3
Realistic
350
33
  3
Thicken
350
37
  0
LAYOUT
  5
1E
102
{ACAD_REACTORS
330
1A
102
}
330
1A
100
AcDbPlotSettings
  1

  2
none_device
  4

  6

 40
0.0
 41
0.0
 42
0.0
 43
0.0
 44
0.0
 45
0.0
 46
0.0
 47
0.0
 48
0.0
 49
0.0
140
0.0
141
0.0
142
1.0
143
1.0
 70
   688
 72
     0
 73
     0
 74
     5
  7

 75
    16
 76
     0
 77
     2
 78
   300
147
1.0
148
0.0
149
0.0
100
AcDbLayout
  1
Layout1
 70
     1
 71
     1
 10
0.0
 20
0.0
 11
12.0
 21
9.0
 12
0.0
 22
0.0
 32
0.0
 14
1.000000000000000E+20
 24
1.000000000000000E+20
 34
1.000000000000000E+20
 15
-1.000000000000000E+20
 25
-1.000000000000000E+20
 35
-1.000000000000000E+20
146
0.0
 13
0.0
 23
0.0
 33
0.0
 16
1.0
 26
0.0
 36
0.0
 17
0.0
 27
1.0
 37
0.0
 76
     0
330
1B
  0
LAYOUT
  5
26
102
{ACAD_REACTORS
330
1A
102
}
330
1A
100
AcDbPlotSettings
  1

  2
none_device
  4

  6

 40
0.0
 41
0.0
 42
0.0
 43
0.0
 44
0.0
 45
0.0
 46
0.0
 47
0.0
 48
0.0
 49
0.0
140
0.0
141
0.0
142
1.0
143
1.0
 70
   688
 72
     0
 73
     0
 74
     5
  7

 75
    16
 76
     0
 77
     2
 78
   300
147
1.0
148
0.0
149
0.0
100
AcDbLayout
  1
Layout2
 70
     1
 71
     2
 10
0.0
 20
0.0
 11
0.0
 21
0.0
 12
0.0
 22
0.0
 32
0.0
 14
0.0
 24
0.0
 34
0.0
 15
0.0
 25
0.0
 35
0.0
146
0.0
 13
0.0
 23
0.0
 33
0.0
 16
1.0
 26
0.0
 36
0.0
 17
0.0
 27
1.0
 37
0.0
 76
     0
330
23
  0
LAYOUT
  5
22
102
{ACAD_REACTORS
330
1A
102
}
330
1A
100
AcDbPlotSettings
  1

  2
none_device
  4

  6

 40
0.0
 41
0.0
 42
0.0
 43
0.0
 44
0.0
 45
0.0
 46
0.0
 47
0.0
 48
0.0
 49
0.0
140
0.0
141
0.0
142
1.0
143
1.0
 70
  1712
 72
     0
 73
     0
 74
     0
  7

 75
     0
 76
     0
 77
     2
 78
   300
147
1.0
148
0.0
149
0.0
100
AcDbLayout
  1
Model
 70
     1
 71
     0
 10
0.0
 20
0.0
 11
12.0
 21
9.0
 12
0.0
 22
0.0
 32
0.0
 14
1.000000000000000E+20
 24
1.000000000000000E+20
 34
1.000000000000000E+20
 15
-1.000000000000000E+20
 25
-1.000000000000000E+20
 35
-1.000000000000000E+20
146
0.0
 13
0.0
 23
0.0
 33
0.0
 16
1.0
 26
0.0
 36
0.0
 17
0.0
 27
1.0
 37
0.0
 76
     0
330
1F
331
29
  0
MATERIAL
  5
3D
102
{ACAD_REACTORS
330
3B
102
}
330
3B
100
AcDbMaterial
  1
ByBlock
 72
     1
 94
      127
  0
MATERIAL
  5
3C
102
{ACAD_REACTORS
330
3B
102
}
330
3B
100
AcDbMaterial
  1
ByLayer
 72
     1
 94
      127
  0
MATERIAL
  5
3E
102
{ACAD_REACTORS
330
3B
102
}
330
3B
100
AcDbMaterial
  1
Global
 72
     1
 94
      127
  0
MLINESTYLE
  5
18
102
{ACAD_REACTORS
330
17
102
}
330
17
100
AcDbMlineStyle
  2
Standard
 70
     0
  3

 62
   256
 51
90.0
 52
90.0
 71
     2
 49
0.5
 62
   256
  6
BYLAYER
 49
-0.5
 62
   256
  6
BYLAYER
  0
ACDBPLACEHOLDER
  5
F
102
{ACAD_REACTORS
330
E
102
}
330
E
  0
VISUALSTYLE
  5
2F
102
{ACAD_REACTORS
330
2A
102
}
330
2A
100
AcDbVisualStyle
  2
2dWireframe
 70
     4
177
     2
291
     0
 71
     0
176
     1
 72
     2
176
     1
 73
     0
176
     1
 90
        0
176
     1
 40
-0.6
176
     1
 41
-30.0
176
     1
 62
     5
 63
     7
421
 16777215
176
     1
 74
     1
176
     1
 91
        4
176
     1
 64
     7
176
     1
 65
   257
176
     1
 75
     1
176
     1
175
     1
176
     1
 42
1.0
176
     1
 92
        0
176
     1
 66
   257
176
     1
 43
1.0
176
     1
 76
     1
176
     1
 77
     6
176
     1
 78
     2
176
     1
 67
     7
176
     1
 79
     5
176
     1
170
     0
176
     1
171
     0
176
     1
290
     0
176
     1
 93
        1
176
     1
 44
0.0
176
     1
173
     0
176
     1
  0
VISUALSTYLE
  5
31
102
{ACAD_REACTORS
330
2A
102
}
330
2A
100
AcDbVisualStyle
  2
3D Hidden
 70
     6
177
     2
291
     0
 71
     1
176
     1
 72
     2
176
     1
 73
     2
176
     1
 90
        0
176
     1
 40
-0.6
176
     1
 41
-30.0
176
     1
 62
     5
 63
     7
421
 16777215
176
     1
 74
     2
176
     1
 91
        2
176
     1
 64
     7
176
     1
 65
   257
176
     1
 75
     2
176
     1
175
     1
176
     1
 42
40.0
176
     1
 92
        0
176
     1
 66
   257
176
     1
 43
1.0
176
     1
 76
     1
176
     1
 77
     6
176
     1
 78
     2
176
     1
 67
     7
176
     1
 79
     3
176
     1
170
     0
176
     1
171
     0
176
     1
290
     0
176
     1
 93
        1
176
     1
 44
0.0
176
     1
173
     0
176
     1
  0
VISUALSTYLE
  5
30
102
{ACAD_REACTORS
330
2A
102
}
330
2A
100
AcDbVisualStyle
  2
3dWireframe
 70
     5
177
     2
291
     0
 71
     0
176
     1
 72
     2
176
     1
 73
     0
176
     1
 90
        0
176
     1
 40
-0.6
176
     1
 41
-30.0
176
     1
 62
     5
 63
     7
421
 16777215
176
     1
 74
     1
176
     1
 91
        4
176
     1
 64
     7
176
     1
 65
   257
176
     1
 75
     1
176
     1
175
     1
176
     1
 42
1.0
176
     1
 92
        0
176
     1
 66
   257
176
     1
 43
1.0
176
     1
 76
     1
176
     1
 77
     6
176
     1
 78
     2
176
     1
 67
     7
176
     1
 79
     5
176
     1
170
     0
176
     1
171
     0
176
     1
290
     0
176
     1
 93
        1
176
     1
 44
0.0
176
     1
173
     0
176
     1
  0
VISUALSTYLE
  5
32
102
{ACAD_REACTORS
330
2A
102
}
330
2A
100
AcDbVisualStyle
  2
Basic
 70
     7
177
     2
291
     1
 71
     1
176
     1
 72
     0
176
     1
 73
     1
176
     1
 90
        0
176
     1
 40
-0.6
176
     1
 41
-30.0
176
     1
 62
     5
 63
     7
421
 16777215
176
     1
 74
     0
176
     1
 91
        4
176
     1
 64
     7
176
     1
 65
   257
176
     1
 75
     1
176
     1
175
     1
176
     1
 42
1.0
176
     1
 92
        8
176
     1
 66
     7
176
     1
 43
1.0
176
     1
 76
     1
176
     1
 77
     6
176
     1
 78
     2
176
     1
 67
     7
176
     1
 79
     5
176
     1
170
     0
176
     1
171
     0
176
     1
290
     0
176
     1
 93
        1
176
     1
 44
0.0
176
     1
173
     0
176
     1
  0
VISUALSTYLE
  5
36
102
{ACAD_REACTORS
330
2A
102
}
330
2A
100
AcDbVisualStyle
  2
Brighten
 70
    12
177
     2
291
     1
 71
     2
176
     1
 72
     2
176
     1
 73
     0
176
     1
 90
        0
176
     1
 40
-0.6
176
     1
 41
-30.0
176
     1
 62
     5
 63
     7
421
 16777215
176
     1
 74
     1
176
     1
 91
        4
176
     1
 64
     7
176
     1
 65
   257
176
     1
 75
     1
176
     1
175
     1
176
     1
 42
1.0
176
     1
 92
        8
176
     1
 66
     7
176
     1
 43
1.0
176
     1
 76
     1
176
     1
 77
     6
176
     1
 78
     2
176
     1
 67
     7
176
     1
 79
     5
176
     1
170
     0
176
     1
171
     0
176
     1
290
     0
176
     1
 93
        1
176
     1
 44
50.0
176
     1
173
     0
176
     1
  0
VISUALSTYLE
  5
3A
102
{ACAD_REACTORS
330
2A
102
}
330
2A
100
AcDbVisualStyle
  2
ColorChange
 70
    16
177
     2
291
     1
 71
     2
176
     1
 72
     2
176
     1
 73
     3
176
     1
 90
        0
176
     1
 40
-0.6
176
     1
 41
-30.0
176
     1
 62
     5
 63
     8
421
  8421504
176
     1
 74
     1
176
     1
 91
        4
176
     1
 64
     7
176
     1
 65
   257
176
     1
 75
     1
176
     1
175
     1
176
     1
 42
1.0
176
     1
 92
        8
176
     1
 66
     8
424
  8421504
176
     1
 43
1.0
176
     1
 76
     1
176
     1
 77
     6
176
     1
 78
     2
176
     1
 67
     7
176
     1
 79
     5
176
     1
170
     0
176
     1
171
     0
176
     1
290
     0
176
     1
 93
        1
176
     1
 44
0.0
176
     1
173
     0
176
     1
  0
VISUALSTYLE
  5
34
102
{ACAD_REACTORS
330
2A
102
}
330
2A
100
AcDbVisualStyle
  2
Conceptual
 70
     9
177
     2
291
     0
 71
     3
176
     1
 72
     2
176
     1
 73
     0
176
     1
 90
        0
176
     1
 40
-0.6
176
     1
 41
-30.0
176
     1
 62
     5
 63
     7
421
 16777215
176
     1
 74
     2
176
     1
 91
        2
176
     1
 64
     7
176
     1
 65
   257
176
     1
 75
     1
176
     1
175
     1
176
     1
 42
40.0
176
     1
 92
        8
176
     1
 66
     7
176
     1
 43
1.0
176
     1
 76
     1
176
     1
 77
     6
176
     1
 78
     2
176
     1
 67
     7
176
     1
 79
     3
176
     1
170
     0
176
     1
171
     0
176
     1
290
     0
176
     1
 93
        1
176
     1
 44
0.0
176
     1
173
     0
176
     1
  0
VISUALSTYLE
  5
35
102
{ACAD_REACTORS
330
2A
102
}
330
2A
100
AcDbVisualStyle
  2
Dim
 70
    11
177
     2
291
     1
 71
     2
176
     1
 72
     2
176
     1
 73
     0
176
     1
 90
        0
176
     1
 40
-0.6
176
     1
 41
-30.0
176
     1
 62
     5
 63
     7
421
 16777215
176
     1
 74
     1
176
     1
 91
        4
176
     1
 64
     7
176
     1
 65
   257
176
     1
 75
     1
176
     1
175
     1
176
     1
 42
1.0
176
     1
 92
        8
176
     1
 66
     7
176
     1
 43
1.0
176
     1
 76
     1
176
     1
 77
     6
176
     1
 78
     2
176
     1
 67
     7
176
     1
 79
     5
176
     1
170
     0
176
     1
171
     0
176
     1
290
     0
176
     1
 93
        1
176
     1
 44
-50.0
176
     1
173
     0
176
     1
  0
VISUALSTYLE
  5
39
102
{ACAD_REACTORS
330
2A
102
}
330
2A
100
AcDbVisualStyle
  2
Facepattern
 70
    15
177
     2
291
     1
 71
     2
176
     1
 72
     2
176
     1
 73
     0
176
     1
 90
        0
176
     1
 40
-0.6
176
     1
 41
-30.0
176
     1
 62
     5
 63
     7
421
 16777215
176
     1
 74
     1
176
     1
 91
        4
176
     1
 64
     7
176
     1
 65
   257
176
     1
 75
     1
176
     1
175
     1
176
     1
 42
1.0
176
     1
 92
        8
176
     1
 66
     7
176
     1
 43
1.0
176
     1
 76
     1
176
     1
 77
     6
176
     1
 78
     2
176
     1
 67
     7
176
     1
 79
     5
176
     1
170
     0
176
     1
171
     0
176
     1
290
     0
176
     1
 93
        1
176
     1
 44
0.0
176
     1
173
     0
176
     1
  0
VISUALSTYLE
  5
2B
102
{ACAD_REACTORS
330
2A
102
}
330
2A
100
AcDbVisualStyle
  2
Flat
 70
     0
177
     2
291
     1
 71
     2
176
     1
 72
     1
176
     1
 73
     1
176
     1
 90
        2
176
     1
 40
-0.6
176
     1
 41
30.0
176
     1
 62
     5
 63
     7
421
 16777215
176
     1
 74
     0
176
     1
 91
        4
176
     1
 64
     7
176
     1
 65
   257
176
     1
 75
     1
176
     1
175
     1
176
     1
 42
1.0
176
     1
 92
        8
176
     1
 66
     7
176
     1
 43
1.0
176
     1
 76
     1
176
     1
 77
     6
176
     1
 78
     2
176
     1
 67
     7
176
     1
 79
     5
176
     1
170
     0
176
     1
171
     0
176
     1
290
     0
176
     1
 93
       13
176
     1
 44
0.0
176
     1
173
     0
176
     1
  0
VISUALSTYLE
  5
2C
102
{ACAD_REACTORS
330
2A
102
}
330
2A
100
AcDbVisualStyle
  2
FlatWithEdges
 70
     1
177
     2
291
     1
 71
     2
176
     1
 72
     1
176
     1
 73
     1
176
     1
 90
        2
176
     1
 40
-0.6
176
     1
 41
30.0
176
     1
 62
     5
 63
     7
421
 16777215
176
     1
 74
     1
176
     1
 91
        4
176
     1
 64
     7
176
     1
 65
   257
176
     1
 75
     1
176
     1
175
     1
176
     1
 42
1.0
176
     1
 92
        0
176
     1
 66
   257
176
     1
 43
1.0
176
     1
 76
     1
176
     1
 77
     6
176
     1
 78
     2
176
     1
 67
     7
176
     1
 79
     5
176
     1
170
     0
176
     1
171
     0
176
     1
290
     0
176
     1
 93
       13
176
     1
 44
0.0
176
     1
173
     0
176
     1
  0
VISUALSTYLE
  5
2D
102
{ACAD_REACTORS
330
2A
102
}
330
2A
100
AcDbVisualStyle
  2
Gouraud
 70
     2
177
     2
291
     1
 71
     2
176
     1
 72
     2
176
     1
 73
     1
176
     1
 90
        2
176
     1
 40
-0.6
176
     1
 41
30.0
176
     1
 62
     5
 63
     7
421
 16777215
176
     1
 74
     0
176
     1
 91
        4
176
     1
 64
     7
176
     1
 65
   257
176
     1
 75
     1
176
     1
175
     1
176
     1
 42
1.0
176
     1
 92
        0
176
     1
 66
     7
176
     1
 43
1.0
176
     1
 76
     1
176
     1
 77
     6
176
     1
 78
     2
176
     1
 67
     7
176
     1
 79
     5
176
     1
170
     0
176
     1
171
     0
176
     1
290
     0
176
     1
 93
       13
176
     1
 44
0.0
176
     1
173
     0
176
     1
  0
VISUALSTYLE
  5
2E
102
{ACAD_REACTORS
330
2A
102
}
330
2A
100
AcDbVisualStyle
  2
GouraudWithEdges
 70
     3
177
     2
291
     1
 71
     2
176
     1
 72
     2
176
     1
 73
     1
176
     1
 90
        2
176
     1
 40
-0.6
176
     1
 41
30.0
176
     1
 62
     5
 63
     7
421
 16777215
176
     1
 74
     1
176
     1
 91
        4
176
     1
 64
     7
176
     1
 65
   257
176
     1
 75
     1
176
     1
175
     1
176
     1
 42
1.0
176
     1
 92
        0
176
     1
 66
   257
176
     1
 43
1.0
176
     1
 76
     1
176
     1
 77
     6
176
     1
 78
     2
176
     1
 67
     7
176
     1
 79
     5
176
     1
170
     0
176
     1
171
     0
176
     1
290
     0
176
     1
 93
       13
176
     1
 44
0.0
176
     1
173
     0
176
     1
  0
VISUALSTYLE
  5
38
102
{ACAD_REACTORS
330
2A
102
}
330
2A
100
AcDbVisualStyle
  2
Linepattern
 70
    14
177
     2
291
     1
 71
     2
176
     1
 72
     2
176
     1
 73
     0
176
     1
 90
        0
176
     1
 40
-0.6
176
     1
 41
-30.0
176
     1
 62
     5
 63
     7
421
 16777215
176
     1
 74
     1
176
     1
 91
        4
176
     1
 64
     7
176
     1
 65
   257
176
     1
 75
     7
176
     1
175
     7
176
     1
 42
1.0
176
     1
 92
        8
176
     1
 66
     7
176
     1
 43
1.0
176
     1
 76
     1
176
     1
 77
     6
176
     1
 78
     2
176
     1
 67
     7
176
     1
 79
     5
176
     1
170
     0
176
     1
171
     0
176
     1
290
     0
176
     1
 93
        1
176
     1
 44
0.0
176
     1
173
     0
176
     1
  0
VISUALSTYLE
  5
33
102
{ACAD_REACTORS
330
2A
102
}
330
2A
100
AcDbVisualStyle
  2
Realistic
 70
     8
177
     2
291
     0
 71
     2
176
     1
 72
     2
176
     1
 73
     0
176
     1
 90
        0
176
     1
 40
-0.6
176
     1
 41
-30.0
176
     1
 62
     5
 63
     7
421
 16777215
176
     1
 74
     1
176
     1
 91
        0
176
     1
 64
     7
176
     1
 65
   257
176
     1
 75
     1
176
     1
175
     1
176
     1
 42
1.0
176
     1
 92
        8
176
     1
 66
     8
424
  7895160
176
     1
 43
1.0
176
     1
 76
     1
176
     1
 77
     6
176
     1
 78
     2
176
     1
 67
     7
176
     1
 79
     5
176
     1
170
     0
176
     1
171
     0
176
     1
290
     0
176
     1
 93
       13
176
     1
 44
0.0
176
     1
173
     0
176
     1
  0
VISUALSTYLE
  5
37
102
{ACAD_REACTORS
330
2A
102
}
330
2A
100
AcDbVisualStyle
  2
Thicken
 70
    13
177
     2
291
     1
 71
     2
176
     1
 72
     2
176
     1
 73
     0
176
     1
 90
        0
176
     1
 40
-0.6
176
     1
 41
-30.0
176
     1
 62
     5
 63
     7
421
 16777215
176
     1
 74
     1
176
     1
 91
        4
176
     1
 64
     7
176
     1
 65
   257
176
     1
 75
     1
176
     1
175
     1
176
     1
 42
1.0
176
     1
 92
       12
176
     1
 66
     7
176
     1
 43
1.0
176
     1
 76
     1
176
     1
 77
     6
176
     1
 78
     2
176
     1
 67
     7
176
     1
 79
     5
176
     1
170
     0
176
     1
171
     0
176
     1
290
     0
176
     1
 93
        1
176
     1
 44
0.0
176
     1
173
     0
176
     1
  0
ENDSEC
  0
EOF
