  0
SECTION
  2
HEADER
  9
$ACADVER
  1
AC1015
  9
$ACADMAINTVER
 70
     6
  9
$DWGCODEPAGE
  3
ANSI_1252
  9
$INSBASE
 10
0.0
 20
0.0
 30
0.0
  9
$EXTMIN
 10
-9.5
 20
-1.075
 30
0.0
  9
$EXTMAX
 10
9.5
 20
7.625
 30
0.0
  9
$LIMMIN
 10
0.0
 20
0.0
  9
$LIMMAX
 10
12.0
 20
9.0
  9
$ORTHOMODE
 70
     0
  9
$REGENMODE
 70
     1
  9
$FILLMODE
 70
     1
  9
$QTEXTMODE
 70
     0
  9
$MIRRTEXT
 70
     1
  9
$LTSCALE
 40
1.0
  9
$ATTMODE
 70
     1
  9
$TEXTSIZE
 40
0.125
  9
$TRACEWID
 40
0.05
  9
$TEXTSTYLE
  7
Standard
  9
$CLAYER
  8
0
  9
$CELTYPE
  6
ByLayer
  9
$CECOLOR
 62
   256
  9
$CELTSCALE
 40
1.0
  9
$DISPSILH
 70
     0
  9
$DIMSCALE
 40
1.0
  9
$DIMASZ
 40
0.13
  9
$DIMEXO
 40
0.0
  9
$DIMDLI
 40
0.38
  9
$DIMRND
 40
0.0
  9
$DIMDLE
 40
0.0
  9
$DIMEXE
 40
0.125
  9
$DIMTP
 40
0.0
  9
$DIMTM
 40
0.0
  9
$DIMTXT
 40
0.125
  9
$DIMCEN
 40
0.09
  9
$DIMTSZ
 40
0.0
  9
$DIMTOL
 70
     0
  9
$DIMLIM
 70
     0
  9
$DIMTIH
 70
     1
  9
$DIMTOH
 70
     1
  9
$DIMSE1
 70
     0
  9
$DIMSE2
 70
     0
  9
$DIMTAD
 70
     0
  9
$DIMZIN
 70
     1
  9
$DIMBLK
  1

  9
$DIMASO
 70
     1
  9
$DIMSHO
 70
     1
  9
$DIMPOST
  1

  9
$DIMAPOST
  1

  9
$DIMALT
 70
     0
  9
$DIMALTD
 70
     2
  9
$DIMALTF
 40
25.4
  9
$DIMLFAC
 40
1.0
  9
$DIMTOFL
 70
     0
  9
$DIMTVP
 40
0.0
  9
$DIMTIX
 70
     0
  9
$DIMSOXD
 70
     0
  9
$DIMSAH
 70
     0
  9
$DIMBLK1
  1

  9
$DIMBLK2
  1

  9
$DIMSTYLE
  2
Standard
  9
$DIMCLRD
 70
     0
  9
$DIMCLRE
 70
     0
  9
$DIMCLRT
 70
     0
  9
$DIMTFAC
 40
1.0
  9
$DIMGAP
 40
0.06
  9
$DIMJUST
 70
     0
  9
$DIMSD1
 70
     0
  9
$DIMSD2
 70
     0
  9
$DIMTOLJ
 70
     1
  9
$DIMTZIN
 70
     1
  9
$DIMALTZ
 70
     0
  9
$DIMALTTZ
 70
     0
  9
$DIMUPT
 70
     0
  9
$DIMDEC
 70
     2
  9
$DIMTDEC
 70
     2
  9
$DIMALTU
 70
     2
  9
$DIMALTTD
 70
     2
  9
$DIMTXSTY
  7
Standard
  9
$DIMAUNIT
 70
     0
  9
$DIMADEC
 70
     2
  9
$DIMALTRND
 40
0.0
  9
$DIMAZIN
 70
     0
  9
$DIMDSEP
 70
    46
  9
$DIMATFIT
 70
     3
  9
$DIMFRAC
 70
     0
  9
$DIMLDRBLK
  1

  9
$DIMLUNIT
 70
     2
  9
$DIMLWD
 70
    -2
  9
$DIMLWE
 70
    -2
  9
$DIMTMOVE
 70
     0
  9
$LUNITS
 70
     2
  9
$LUPREC
 70
     2
  9
$SKETCHINC
 40
0.1
  9
$FILLETRAD
 40
0.0
  9
$AUNITS
 70
     0
  9
$AUPREC
 70
     2
  9
$MENU
  1
.
  9
$ELEVATION
 40
0.0
  9
$PELEVATION
 40
0.0
  9
$THICKNESS
 40
0.0
  9
$LIMCHECK
 70
     0
  9
$CHAMFERA
 40
0.0
  9
$CHAMFERB
 40
0.0
  9
$CHAMFERC
 40
0.0
  9
$CHAMFERD
 40
0.0
  9
$SKPOLY
 70
     0
  9
$TDCREATE
 40
2460164.471812766
  9
$TDUCREATE
 40
2460164.638479433
  9
$TDUPDATE
 40
2460164.471842893
  9
$TDUUPDATE
 40
2460164.63850956
  9
$TDINDWG
 40
0.0000000116
  9
$TDUSRTIMER
 40
0.0000000116
  9
$USRTIMER
 70
     1
  9
$ANGBASE
 50
0.0
  9
$ANGDIR
 70
     0
  9
$PDMODE
 70
     0
  9
$PDSIZE
 40
-1.0
  9
$PLINEWID
 40
0.0
  9
$SPLFRAME
 70
     0
  9
$SPLINETYPE
 70
     6
  9
$SPLINESEGS
 70
     8
  9
$HANDSEED
  5
105
  9
$SURFTAB1
 70
     6
  9
$SURFTAB2
 70
     6
  9
$SURFTYPE
 70
     6
  9
$SURFU
 70
     6
  9
$SURFV
 70
     6
  9
$UCSBASE
  2

  9
$UCSNAME
  2

  9
$UCSORG
 10
0.0
 20
0.0
 30
0.0
  9
$UCSXDIR
 10
1.0
 20
0.0
 30
0.0
  9
$UCSYDIR
 10
0.0
 20
1.0
 30
0.0
  9
$UCSORTHOREF
  2

  9
$UCSORTHOVIEW
 70
     0
  9
$UCSORGTOP
 10
0.0
 20
0.0
 30
0.0
  9
$UCSORGBOTTOM
 10
0.0
 20
0.0
 30
0.0
  9
$UCSORGLEFT
 10
0.0
 20
0.0
 30
0.0
  9
$UCSORGRIGHT
 10
0.0
 20
0.0
 30
0.0
  9
$UCSORGFRONT
 10
0.0
 20
0.0
 30
0.0
  9
$UCSORGBACK
 10
0.0
 20
0.0
 30
0.0
  9
$PUCSBASE
  2

  9
$PUCSNAME
  2

  9
$PUCSORG
 10
0.0
 20
0.0
 30
0.0
  9
$PUCSXDIR
 10
1.0
 20
0.0
 30
0.0
  9
$PUCSYDIR
 10
0.0
 20
1.0
 30
0.0
  9
$PUCSORTHOREF
  2

  9
$PUCSORTHOVIEW
 70
     0
  9
$PUCSORGTOP
 10
0.0
 20
0.0
 30
0.0
  9
$PUCSORGBOTTOM
 10
0.0
 20
0.0
 30
0.0
  9
$PUCSORGLEFT
 10
0.0
 20
0.0
 30
0.0
  9
$PUCSORGRIGHT
 10
0.0
 20
0.0
 30
0.0
  9
$PUCSORGFRONT
 10
0.0
 20
0.0
 30
0.0
  9
$PUCSORGBACK
 10
0.0
 20
0.0
 30
0.0
  9
$USERI1
 70
     0
  9
$USERI2
 70
     0
  9
$USERI3
 70
     0
  9
$USERI4
 70
     0
  9
$USERI5
 70
     0
  9
$USERR1
 40
0.0
  9
$USERR2
 40
0.0
  9
$USERR3
 40
0.0
  9
$USERR4
 40
0.0
  9
$USERR5
 40
0.0
  9
$WORLDVIEW
 70
     1
  9
$SHADEDGE
 70
     3
  9
$SHADEDIF
 70
    70
  9
$TILEMODE
 70
     1
  9
$MAXACTVP
 70
    64
  9
$PINSBASE
 10
0.0
 20
0.0
 30
0.0
  9
$PLIMCHECK
 70
     0
  9
$PEXTMIN
 10
1.0000000000E+20
 20
1.0000000000E+20
 30
1.0000000000E+20
  9
$PEXTMAX
 10
-1.0000000000E+20
 20
-1.0000000000E+20
 30
-1.0000000000E+20
  9
$PLIMMIN
 10
0.0
 20
0.0
  9
$PLIMMAX
 10
12.0
 20
9.0
  9
$UNITMODE
 70
     0
  9
$VISRETAIN
 70
     1
  9
$PLINEGEN
 70
     0
  9
$PSLTSCALE
 70
     1
  9
$TREEDEPTH
 70
  3020
  9
$CMLSTYLE
  2
Standard
  9
$CMLJUST
 70
     0
  9
$CMLSCALE
 40
1.0
  9
$PROXYGRAPHICS
 70
     1
  9
$MEASUREMENT
 70
     0
  9
$CELWEIGHT
370
    -1
  9
$ENDCAPS
280
     0
  9
$JOINSTYLE
280
     0
  9
$LWDISPLAY
290
     1
  9
$INSUNITS
 70
     1
  9
$HYPERLINKBASE
  1

  9
$STYLESHEET
  1

  9
$XEDIT
290
     1
  9
$CEPSNTYPE
380
     0
  9
$PSTYLEMODE
290
     1
  9
$FINGERPRINTGUID
  2
{163e4372-5068-495a-a144-64eb5ca57abf}
  9
$VERSIONGUID
  2
{FAEB1C32-E019-11D5-929B-00C0DF256EC4}
  9
$EXTNAMES
290
     1
  9
$PSVPSCALE
 40
0.0
  9
$OLESTARTUP
290
     0
  0
ENDSEC
  0
SECTION
  2
CLASSES
  0
CLASS
  1
ACDBDICTIONARYWDFLT
  2
AcDbDictionaryWithDefault
  3
ObjectDBX Classes
 90
        0
280
     0
281
     0
  0
CLASS
  1
VISUALSTYLE
  2
AcDbVisualStyle
  3
ObjectDBX Classes
 90
     4095
280
     0
281
     0
  0
CLASS
  1
MATERIAL
  2
AcDbMaterial
  3
ObjectDBX Classes
 90
     1153
280
     0
281
     0
  0
CLASS
  1
SCALE
  2
AcDbScale
  3
ObjectDBX Classes
 90
     1153
280
     0
281
     0
  0
CLASS
  1
TABLESTYLE
  2
AcDbTableStyle
  3
ObjectDBX Classes
 90
     4095
280
     0
281
     0
  0
CLASS
  1
MLEADERSTYLE
  2
AcDbMLeaderStyle
  3
ACDB_MLEADERSTYLE_CLASS
 90
     4095
280
     0
281
     0
  0
CLASS
  1
SUN
  2
AcDbSun
  3
SCENEOE
 90
     1153
280
     0
281
     0
  0
CLASS
  1
ACDBPLACEHOLDER
  2
AcDbPlaceHolder
  3
ObjectDBX Classes
 90
        0
280
     0
281
     0
  0
CLASS
  1
LAYOUT
  2
AcDbLayout
  3
ObjectDBX Classes
 90
        0
280
     0
281
     0
  0
ENDSEC
  0
SECTION
  2
TABLES
  0
TABLE
  2
VPORT
  5
8
330
0
100
AcDbSymbolTable
 70
     1
  0
VPORT
  5
29
330
8
100
AcDbSymbolTableRecord
100
AcDbViewportTableRecord
  2
*Active
 70
     0
 10
0.0
 20
0.0
 11
1.0
 21
1.0
 12
0.0
 22
3.275
 13
0.0
 23
0.0
 14
0.5
 24
0.5
 15
0.5
 25
0.5
 16
0.0
 26
0.0
 36
1.0
 17
0.0
 27
0.0
 37
0.0
 40
8.874
 41
2.183908046
 42
50.0
 43
0.0
 44
0.0
 50
0.0
 51
0.0
 71
     0
 72
   100
 73
     1
 74
     3
 75
     0
 76
     0
 77
     0
 78
     0
281
     0
 65
     1
110
0.0
120
0.0
130
0.0
111
1.0
121
0.0
131
0.0
112
0.0
122
1.0
132
0.0
 79
     0
146
0.0
  0
ENDTAB
  0
TABLE
  2
LTYPE
  5
5
330
0
100
AcDbSymbolTable
 70
     6
  0
LTYPE
  5
14
330
5
100
AcDbSymbolTableRecord
100
AcDbLinetypeTableRecord
  2
ByBlock
 70
     0
  3

 72
    65
 73
     0
 40
0.0
  0
LTYPE
  5
15
330
5
100
AcDbSymbolTableRecord
100
AcDbLinetypeTableRecord
  2
ByLayer
 70
     0
  3

 72
    65
 73
     0
 40
0.0
  0
LTYPE
  5
16
330
5
100
AcDbSymbolTableRecord
100
AcDbLinetypeTableRecord
  2
Continuous
 70
     0
  3
Solid line
 72
    65
 73
     0
 40
0.0
  0
LTYPE
  5
5E
330
5
100
AcDbSymbolTableRecord
100
AcDbLinetypeTableRecord
  2
HIDDEN
 70
     0
  3
Hidden __ __ __ __ __ __ __ __ __ __ __ __ __ __
 72
    65
 73
     2
 40
0.075
 49
0.05
 74
     0
 49
-0.025
 74
     0
  0
LTYPE
  5
5F
330
5
100
AcDbSymbolTableRecord
100
AcDbLinetypeTableRecord
  2
PHANTOM
 70
     0
  3
Phantom ______  __  __  ______  __  __  ______
 72
    65
 73
     6
 40
0.5
 49
0.25
 74
     0
 49
-0.05
 74
     0
 49
0.05
 74
     0
 49
-0.05
 74
     0
 49
0.05
 74
     0
 49
-0.05
 74
     0
  0
LTYPE
  5
60
330
5
100
AcDbSymbolTableRecord
100
AcDbLinetypeTableRecord
  2
CENTER
 70
     0
  3
Center ____ _ ____ _ ____ _ ____ _ ____ _ ____
 72
    65
 73
     4
 40
0.4
 49
0.25
 74
     0
 49
-0.05
 74
     0
 49
0.05
 74
     0
 49
-0.05
 74
     0
  0
LTYPE
  5
61
330
5
100
AcDbSymbolTableRecord
100
AcDbLinetypeTableRecord
  2
CENTERX2
 70
     0
  3
Center (2x) ________  __  ________  __  _____
 72
    65
 73
     4
 40
0.8
 49
0.5
 74
     0
 49
-0.1
 74
     0
 49
0.1
 74
     0
 49
-0.1
 74
     0
  0
LTYPE
  5
62
330
5
100
AcDbSymbolTableRecord
100
AcDbLinetypeTableRecord
  2
DOT2
 70
     0
  3
Dot (.5x) ........................................
 72
    65
 73
     2
 40
0.025
 49
0.0
 74
     0
 49
-0.025
 74
     0
  0
ENDTAB
  0
TABLE
  2
LAYER
  5
2
330
0
100
AcDbSymbolTable
 70
     1
  0
LAYER
  5
10
330
2
100
AcDbSymbolTableRecord
100
AcDbLayerTableRecord
  2
0
 70
     0
 62
     7
  6
Continuous
370
    -3
390
F
  0
ENDTAB
  0
TABLE
  2
STYLE
  5
3
330
0
100
AcDbSymbolTable
 70
     2
  0
STYLE
  5
11
330
3
100
AcDbSymbolTableRecord
100
AcDbTextStyleTableRecord
  2
Standard
 70
     0
 40
0.0
 41
1.0
 50
0.0
 71
     0
 42
0.125
  3
txt
  4

  0
STYLE
  5
101
330
3
100
AcDbSymbolTableRecord
100
AcDbTextStyleTableRecord
  2
SLDTEXTSTYLE0
 70
     0
 40
0.0
 41
0.7
 50
0.0
 71
     0
 42
0.125
  3
TXT
  4

  0
ENDTAB
  0
TABLE
  2
VIEW
  5
6
330
0
100
AcDbSymbolTable
 70
     0
  0
ENDTAB
  0
TABLE
  2
UCS
  5
7
330
0
100
AcDbSymbolTable
 70
     0
  0
ENDTAB
  0
TABLE
  2
APPID
  5
9
330
0
100
AcDbSymbolTable
 70
     1
  0
APPID
  5
12
330
9
100
AcDbSymbolTableRecord
100
AcDbRegAppTableRecord
  2
ACAD
 70
     0
  0
ENDTAB
  0
TABLE
  2
DIMSTYLE
  5
A
330
0
100
AcDbSymbolTable
 70
     1
100
AcDbDimStyleTable
  0
DIMSTYLE
105
27
330
A
100
AcDbSymbolTableRecord
100
AcDbDimStyleTableRecord
  2
Standard
 70
     0
178
     0
340
11
  0
ENDTAB
  0
TABLE
  2
BLOCK_RECORD
  5
1
330
0
100
AcDbSymbolTable
 70
     1
  0
BLOCK_RECORD
  5
1F
330
1
100
AcDbSymbolTableRecord
100
AcDbBlockTableRecord
  2
*Model_Space
340
22
  0
BLOCK_RECORD
  5
1B
330
1
100
AcDbSymbolTableRecord
100
AcDbBlockTableRecord
  2
*Paper_Space
340
1E
  0
BLOCK_RECORD
  5
23
330
1
100
AcDbSymbolTableRecord
100
AcDbBlockTableRecord
  2
*Paper_Space0
340
26
  0
ENDTAB
  0
ENDSEC
  0
SECTION
  2
BLOCKS
  0
BLOCK
  5
20
330
1F
100
AcDbEntity
  8
0
100
AcDbBlockBegin
  2
*Model_Space
 70
     0
 10
0.0
 20
0.0
 30
0.0
  3
*Model_Space
  1

  0
ENDBLK
  5
21
330
1F
100
AcDbEntity
  8
0
100
AcDbBlockEnd
  0
BLOCK
  5
1C
330
1B
100
AcDbEntity
 67
     1
  8
0
100
AcDbBlockBegin
  2
*Paper_Space
 70
     0
 10
0.0
 20
0.0
 30
0.0
  3
*Paper_Space
  1

  0
ENDBLK
  5
1D
330
1B
100
AcDbEntity
 67
     1
  8
0
100
AcDbBlockEnd
  0
BLOCK
  5
24
330
23
100
AcDbEntity
  8
0
100
AcDbBlockBegin
  2
*Paper_Space0
 70
     0
 10
0.0
 20
0.0
 30
0.0
  3
*Paper_Space0
  1

  0
ENDBLK
  5
25
330
23
100
AcDbEntity
  8
0
100
AcDbBlockEnd
  0
ENDSEC
  0
SECTION
  2
ENTITIES
  0
SPLINE
  5
63
330
1F
100
AcDbEntity
  8
0
  6
Continuous
 62
     7
370
    25
100
AcDbSpline
210
0.0
220
0.0
230
1.0
 70
     8
 71
     3
 72
    11
 73
     7
 74
     0
 42
0.00000001
 43
0.00000001
 40
0.0
 40
0.0
 40
0.0
 40
0.0
 40
1.0
 40
1.0
 40
1.0
 40
2.0
 40
2.0
 40
2.0
 40
2.0
 10
-0.1780022427917274
 20
3.72369255670867
 30
0.0
 10
-0.2078955317567927
 20
3.706433658276524
 30
0.0
 10
-0.2181377289578157
 20
3.668209257936548
 30
0.0
 10
-0.2008788305256945
 20
3.638315968971471
 30
0.0
 10
-0.1836199320935492
 20
3.608422680006396
 30
0.0
 10
-0.1453955317535575
 20
3.598180482805346
 30
0.0
 10
-0.1155022427884965
 20
3.615439381237492
 30
0.0
  0
SPLINE
  5
64
330
1F
100
AcDbEntity
  8
0
  6
Continuous
 62
     7
370
    25
100
AcDbSpline
210
0.0
220
0.0
230
1.0
 70
     8
 71
     3
 72
    11
 73
     7
 74
     0
 42
0.00000001
 43
0.00000001
 40
2.0
 40
2.0
 40
2.0
 40
2.0
 40
3.0
 40
3.0
 40
3.0
 40
4.0
 40
4.0
 40
4.0
 40
4.0
 10
-0.1155022427884965
 20
3.615439381237492
 30
0.0
 10
-0.0856089538233809
 20
3.632698279669639
 30
0.0
 10
-0.0753667566223579
 20
3.670922680009628
 30
0.0
 10
-0.0926256550545294
 20
3.700815968974704
 30
0.0
 10
-0.1098845534866506
 20
3.730709257939781
 30
0.0
 10
-0.1481089538266402
 20
3.740951455140817
 30
0.0
 10
-0.1780022427917274
 20
3.72369255670867
 30
0.0
  0
SPLINE
  5
65
330
1F
100
AcDbEntity
  8
0
  6
Continuous
 62
     7
370
    25
100
AcDbSpline
210
0.0
220
0.0
230
1.0
 70
     8
 71
     3
 72
    11
 73
     7
 74
     0
 42
0.00000001
 43
0.00000001
 40
0.0
 40
0.0
 40
0.0
 40
0.0
 40
1.0
 40
1.0
 40
1.0
 40
2.0
 40
2.0
 40
2.0
 40
2.0
 10
0.1702120429135492
 20
3.723692556724309
 30
0.0
 10
0.1403187539469202
 20
3.740951455153753
 30
0.0
 10
0.1020943536078638
 20
3.730709257949293
 30
0.0
 10
0.0848354551784198
 20
3.700815968982687
 30
0.0
 10
0.0675765567489255
 20
3.670922680016033
 30
0.0
 10
0.0778187539533862
 20
3.632698279676978
 30
0.0
 10
0.1077120429200164
 20
3.615439381247523
 30
0.0
  0
SPLINE
  5
66
330
1F
100
AcDbEntity
  8
0
  6
Continuous
 62
     7
370
    25
100
AcDbSpline
210
0.0
220
0.0
230
1.0
 70
     8
 71
     3
 72
    11
 73
     7
 74
     0
 42
0.00000001
 43
0.00000001
 40
2.0
 40
2.0
 40
2.0
 40
2.0
 40
3.0
 40
3.0
 40
3.0
 40
4.0
 40
4.0
 40
4.0
 40
4.0
 10
0.1077120429200164
 20
3.615439381247523
 30
0.0
 10
0.1376053318866706
 20
3.598180482818041
 30
0.0
 10
0.1758297322257521
 20
3.608422680022525
 30
0.0
 10
0.1930886306551699
 20
3.638315968989155
 30
0.0
 10
0.2103475290846379
 20
3.668209257955785
 30
0.0
 10
0.2001053318801794
 20
3.706433658294841
 30
0.0
 10
0.1702120429135492
 20
3.723692556724309
 30
0.0
  0
SPLINE
  5
67
330
1F
100
AcDbEntity
  8
0
  6
Continuous
 62
     7
370
    25
100
AcDbSpline
210
0.0
220
0.0
230
1.0
 70
     8
 71
     3
 72
    11
 73
     7
 74
     0
 42
0.00000001
 43
0.00000001
 40
0.0
 40
0.0
 40
0.0
 40
0.0
 40
1.0
 40
1.0
 40
1.0
 40
2.0
 40
2.0
 40
2.0
 40
2.0
 10
0.3443191857887477
 20
3.422130139355924
 30
0.0
 10
0.344319185785641
 20
3.456647936218423
 30
0.0
 10
0.3163369826456385
 20
3.484630139353399
 30
0.0
 10
0.2818191857831652
 20
3.484630139350291
 30
0.0
 10
0.2473013889206405
 20
3.484630139347208
 30
0.0
 10
0.2193191857856417
 20
3.456647936207206
 30
0.0
 10
0.2193191857887735
 20
3.422130139344707
 30
0.0
  0
SPLINE
  5
68
330
1F
100
AcDbEntity
  8
0
  6
Continuous
 62
     7
370
    25
100
AcDbSpline
210
0.0
220
0.0
230
1.0
 70
     8
 71
     3
 72
    11
 73
     7
 74
     0
 42
0.00000001
 43
0.00000001
 40
2.0
 40
2.0
 40
2.0
 40
2.0
 40
3.0
 40
3.0
 40
3.0
 40
4.0
 40
4.0
 40
4.0
 40
4.0
 10
0.2193191857887735
 20
3.422130139344707
 30
0.0
 10
0.2193191857918561
 20
3.387612342482182
 30
0.0
 10
0.2473013889318826
 20
3.359630139347184
 30
0.0
 10
0.2818191857943571
 20
3.359630139350315
 30
0.0
 10
0.3163369826568565
 20
3.359630139353423
 30
0.0
 10
0.3443191857918554
 20
3.387612342493425
 30
0.0
 10
0.3443191857887477
 20
3.422130139355924
 30
0.0
  0
SPLINE
  5
69
330
1F
100
AcDbEntity
  8
0
  6
Continuous
 62
     7
370
    25
100
AcDbSpline
210
0.0
220
0.0
230
1.0
 70
     8
 71
     3
 72
    11
 73
     7
 74
     0
 42
0.00000001
 43
0.00000001
 40
0.0
 40
0.0
 40
0.0
 40
0.0
 40
1.0
 40
1.0
 40
1.0
 40
2.0
 40
2.0
 40
2.0
 40
2.0
 10
0.1702120429677141
 20
3.120567721956263
 30
0.0
 10
0.2001053319312376
 20
3.137826620391114
 30
0.0
 10
0.2103475291288502
 20
3.176051020732013
 30
0.0
 10
0.1930886306940004
 20
3.205944309695509
 30
0.0
 10
0.1758297322592019
 20
3.235837598659058
 30
0.0
 10
0.137605331918277
 20
3.246079795856695
 30
0.0
 10
0.1077120429547786
 20
3.22882089742182
 30
0.0
  0
SPLINE
  5
6A
330
1F
100
AcDbEntity
  8
0
  6
Continuous
 62
     7
370
    25
100
AcDbSpline
210
0.0
220
0.0
230
1.0
 70
     8
 71
     3
 72
    11
 73
     7
 74
     0
 42
0.00000001
 43
0.00000001
 40
2.0
 40
2.0
 40
2.0
 40
2.0
 40
3.0
 40
3.0
 40
3.0
 40
4.0
 40
4.0
 40
4.0
 40
4.0
 10
0.1077120429547786
 20
3.22882089742182
 30
0.0
 10
0.07781875399123
 20
3.211561998986997
 30
0.0
 10
0.0675765567935923
 20
3.173337598646072
 30
0.0
 10
0.0848354552284432
 20
3.143444309682574
 30
0.0
 10
0.1020943536632919
 20
3.113551020719077
 30
0.0
 10
0.1403187540041906
 20
3.10330882352144
 30
0.0
 10
0.1702120429677141
 20
3.120567721956263
 30
0.0
  0
SPLINE
  5
6B
330
1F
100
AcDbEntity
  8
0
  6
Continuous
 62
     7
370
    25
100
AcDbSpline
210
0.0
220
0.0
230
1.0
 70
     8
 71
     3
 72
    11
 73
     7
 74
     0
 42
0.00000001
 43
0.00000001
 40
0.0
 40
0.0
 40
0.0
 40
0.0
 40
1.0
 40
1.0
 40
1.0
 40
2.0
 40
2.0
 40
2.0
 40
2.0
 10
-0.1780022427375647
 20
3.12056772190935
 30
0.0
 10
-0.1481089537693654
 20
3.103308823482583
 30
0.0
 10
-0.1098845534312225
 20
3.113551020690478
 30
0.0
 10
-0.0926256550044819
 20
3.143444309658675
 30
0.0
 10
-0.0753667565776648
 20
3.173337598626821
 30
0.0
 10
-0.0856089537855612
 20
3.211561998965016
 30
0.0
 10
-0.1155022427537561
 20
3.228820897391732
 30
0.0
  0
SPLINE
  5
6C
330
1F
100
AcDbEntity
  8
0
  6
Continuous
 62
     7
370
    25
100
AcDbSpline
210
0.0
220
0.0
230
1.0
 70
     8
 71
     3
 72
    11
 73
     7
 74
     0
 42
0.00000001
 43
0.00000001
 40
2.0
 40
2.0
 40
2.0
 40
2.0
 40
3.0
 40
3.0
 40
3.0
 40
4.0
 40
4.0
 40
4.0
 40
4.0
 10
-0.1155022427537561
 20
3.228820897391732
 30
0.0
 10
-0.1453955317219292
 20
3.246079795818548
 30
0.0
 10
-0.1836199320601245
 20
3.235837598610653
 30
0.0
 10
-0.2008788304868389
 20
3.205944309642455
 30
0.0
 10
-0.2181377289136057
 20
3.176051020674285
 30
0.0
 10
-0.2078955317057334
 20
3.137826620336114
 30
0.0
 10
-0.1780022427375647
 20
3.12056772190935
 30
0.0
  0
SPLINE
  5
6D
330
1F
100
AcDbEntity
  8
0
  6
Continuous
 62
     7
370
    25
100
AcDbSpline
210
0.0
220
0.0
230
1.0
 70
     8
 71
     3
 72
    11
 73
     7
 74
     0
 42
0.00000001
 43
0.00000001
 40
0.0
 40
0.0
 40
0.0
 40
0.0
 40
1.0
 40
1.0
 40
1.0
 40
2.0
 40
2.0
 40
2.0
 40
2.0
 10
-0.3521093856398718
 20
3.422130139262121
 30
0.0
 10
-0.3521093856336301
 20
3.387612342399597
 30
0.0
 10
-0.3241271824911274
 20
3.359630139267122
 30
0.0
 10
-0.2896093856286268
 20
3.359630139273363
 30
0.0
 10
-0.2550915887661283
 20
3.359630139279501
 30
0.0
 10
-0.2271093856336045
 20
3.387612342422055
 30
0.0
 10
-0.2271093856398703
 20
3.422130139284553
 30
0.0
  0
SPLINE
  5
6E
330
1F
100
AcDbEntity
  8
0
  6
Continuous
 62
     7
370
    25
100
AcDbSpline
210
0.0
220
0.0
230
1.0
 70
     8
 71
     3
 72
    11
 73
     7
 74
     0
 42
0.00000001
 43
0.00000001
 40
2.0
 40
2.0
 40
2.0
 40
2.0
 40
3.0
 40
3.0
 40
3.0
 40
4.0
 40
4.0
 40
4.0
 40
4.0
 10
-0.2271093856398703
 20
3.422130139284553
 30
0.0
 10
-0.2271093856460355
 20
3.456647936147053
 30
0.0
 10
-0.2550915887885623
 20
3.484630139279579
 30
0.0
 10
-0.2896093856510367
 20
3.484630139273312
 30
0.0
 10
-0.3241271825135613
 20
3.484630139267122
 30
0.0
 10
-0.3521093856460611
 20
3.456647936124594
 30
0.0
 10
-0.3521093856398718
 20
3.422130139262121
 30
0.0
  0
SPLINE
  5
6F
330
1F
100
AcDbEntity
  8
0
  6
Continuous
 62
     7
370
    25
100
AcDbSpline
210
0.0
220
0.0
230
1.0
 70
     8
 71
     3
 72
    11
 73
     7
 74
     0
 42
0.00000001
 43
0.00000001
 40
0.0
 40
0.0
 40
0.0
 40
0.0
 40
1.0
 40
1.0
 40
1.0
 40
2.0
 40
2.0
 40
2.0
 40
2.0
 10
0.1557992064392032
 20
2.516458723628842
 30
0.0
 10
0.1897926004055377
 20
2.522452676155468
 30
0.0
 10
0.2124906324155233
 20
2.554868825336535
 30
0.0
 10
0.2064966798888985
 20
2.588862219302871
 30
0.0
 10
0.2005027273622234
 20
2.622855613269178
 30
0.0
 10
0.1680865781811307
 20
2.645553645279215
 30
0.0
 10
0.1340931842148453
 20
2.639559692752516
 30
0.0
  0
SPLINE
  5
70
330
1F
100
AcDbEntity
  8
0
  6
Continuous
 62
     7
370
    25
100
AcDbSpline
210
0.0
220
0.0
230
1.0
 70
     8
 71
     3
 72
    11
 73
     7
 74
     0
 42
0.00000001
 43
0.00000001
 40
2.0
 40
2.0
 40
2.0
 40
2.0
 40
3.0
 40
3.0
 40
3.0
 40
4.0
 40
4.0
 40
4.0
 40
4.0
 10
0.1340931842148453
 20
2.639559692752516
 30
0.0
 10
0.1000997902485873
 20
2.633565740225816
 30
0.0
 10
0.0774017582385012
 20
2.601149591044822
 30
0.0
 10
0.0833957107651741
 20
2.567156197078539
 30
0.0
 10
0.0893896632918251
 20
2.533162803112205
 30
0.0
 10
0.1218058124728917
 20
2.510464771102193
 30
0.0
 10
0.1557992064392032
 20
2.516458723628842
 30
0.0
  0
SPLINE
  5
71
330
1F
100
AcDbEntity
  8
0
  6
Continuous
 62
     7
370
    25
100
AcDbSpline
210
0.0
220
0.0
230
1.0
 70
     8
 71
     3
 72
    11
 73
     7
 74
     0
 42
0.00000001
 43
0.00000001
 40
0.0
 40
0.0
 40
0.0
 40
0.0
 40
1.0
 40
1.0
 40
1.0
 40
2.0
 40
2.0
 40
2.0
 40
2.0
 10
0.4559263287412293
 20
2.625696062685153
 30
0.0
 10
0.4858196177048031
 20
2.642954961119951
 30
0.0
 10
0.4960618149023643
 20
2.681179361460876
 30
0.0
 10
0.4788029164675407
 20
2.711072650424424
 30
0.0
 10
0.4615440180326909
 20
2.740965939387947
 30
0.0
 10
0.423319617691767
 20
2.751208136585535
 30
0.0
 10
0.3934263287282687
 20
2.733949238150685
 30
0.0
  0
SPLINE
  5
72
330
1F
100
AcDbEntity
  8
0
  6
Continuous
 62
     7
370
    25
100
AcDbSpline
210
0.0
220
0.0
230
1.0
 70
     8
 71
     3
 72
    11
 73
     7
 74
     0
 42
0.00000001
 43
0.00000001
 40
2.0
 40
2.0
 40
2.0
 40
2.0
 40
3.0
 40
3.0
 40
3.0
 40
4.0
 40
4.0
 40
4.0
 40
4.0
 10
0.3934263287282687
 20
2.733949238150685
 30
0.0
 10
0.3635330397647965
 20
2.716690339715834
 30
0.0
 10
0.3532908425671337
 20
2.678465939374961
 30
0.0
 10
0.3705497410019835
 20
2.648572650411463
 30
0.0
 10
0.387808639436783
 20
2.618679361447916
 30
0.0
 10
0.4260330397777058
 20
2.608437164250329
 30
0.0
 10
0.4559263287412293
 20
2.625696062685153
 30
0.0
  0
SPLINE
  5
73
330
1F
100
AcDbEntity
  8
0
  6
Continuous
 62
     7
370
    25
100
AcDbSpline
210
0.0
220
0.0
230
1.0
 70
     8
 71
     3
 72
    11
 73
     7
 74
     0
 42
0.00000001
 43
0.00000001
 40
0.0
 40
0.0
 40
0.0
 40
0.0
 40
1.0
 40
1.0
 40
1.0
 40
2.0
 40
2.0
 40
2.0
 40
2.0
 10
0.7005922005076567
 20
2.830995105493875
 30
0.0
 10
0.7227798126417088
 20
2.857437271971536
 30
0.0
 10
0.7193308148861421
 20
2.896859496659381
 30
0.0
 10
0.6928886484084807
 20
2.919047108793381
 30
0.0
 10
0.6664464819307943
 20
2.941234720927356
 30
0.0
 10
0.6270242572429238
 20
2.937785723171817
 30
0.0
 10
0.6048366451090006
 20
2.911343556694154
 30
0.0
  0
SPLINE
  5
74
330
1F
100
AcDbEntity
  8
0
  6
Continuous
 62
     7
370
    25
100
AcDbSpline
210
0.0
220
0.0
230
1.0
 70
     8
 71
     3
 72
    11
 73
     7
 74
     0
 42
0.00000001
 43
0.00000001
 40
2.0
 40
2.0
 40
2.0
 40
2.0
 40
3.0
 40
3.0
 40
3.0
 40
4.0
 40
4.0
 40
4.0
 40
4.0
 10
0.6048366451090006
 20
2.911343556694154
 30
0.0
 10
0.582649032975051
 20
2.884901390216467
 30
0.0
 10
0.5860980307304898
 20
2.845479165528648
 30
0.0
 10
0.6125401972081753
 20
2.823291553394698
 30
0.0
 10
0.6389823636858126
 20
2.801103941260675
 30
0.0
 10
0.678404588373681
 20
2.804552939016212
 30
0.0
 10
0.7005922005076567
 20
2.830995105493875
 30
0.0
  0
SPLINE
  5
75
330
1F
100
AcDbEntity
  8
0
  6
Continuous
 62
     7
370
    25
100
AcDbSpline
210
0.0
220
0.0
230
1.0
 70
     8
 71
     3
 72
    11
 73
     7
 74
     0
 42
0.00000001
 43
0.00000001
 40
0.0
 40
0.0
 40
0.0
 40
0.0
 40
1.0
 40
1.0
 40
1.0
 40
2.0
 40
2.0
 40
2.0
 40
2.0
 10
0.8602865067214321
 20
3.107593757602508
 30
0.0
 10
0.8720922885484366
 20
3.140029876601186
 30
0.0
 10
0.8553680958708292
 20
3.1758950235288
 30
0.0
 10
0.8229319768721772
 20
3.187700805355754
 30
0.0
 10
0.7904958578735001
 20
3.199506587182707
 30
0.0
 10
0.7546307109458612
 20
3.182782394505126
 30
0.0
 10
0.7428249291189584
 20
3.150346275506473
 30
0.0
  0
SPLINE
  5
76
330
1F
100
AcDbEntity
  8
0
  6
Continuous
 62
     7
370
    25
100
AcDbSpline
210
0.0
220
0.0
230
1.0
 70
     8
 71
     3
 72
    11
 73
     7
 74
     0
 42
0.00000001
 43
0.00000001
 40
2.0
 40
2.0
 40
2.0
 40
2.0
 40
3.0
 40
3.0
 40
3.0
 40
4.0
 40
4.0
 40
4.0
 40
4.0
 10
0.7428249291189584
 20
3.150346275506473
 30
0.0
 10
0.7310191472920294
 20
3.117910156507821
 30
0.0
 10
0.74774333996951
 20
3.082045009580182
 30
0.0
 10
0.7801794589681871
 20
3.070239227753253
 30
0.0
 10
0.8126155779668391
 20
3.058433445926274
 30
0.0
 10
0.8484807248944791
 20
3.075157638603856
 30
0.0
 10
0.8602865067214321
 20
3.107593757602508
 30
0.0
  0
SPLINE
  5
77
330
1F
100
AcDbEntity
  8
0
  6
Continuous
 62
     7
370
    25
100
AcDbSpline
210
0.0
220
0.0
230
1.0
 70
     8
 71
     3
 72
    11
 73
     7
 74
     0
 42
0.00000001
 43
0.00000001
 40
0.0
 40
0.0
 40
0.0
 40
0.0
 40
1.0
 40
1.0
 40
1.0
 40
2.0
 40
2.0
 40
2.0
 40
2.0
 10
0.9157477572172663
 20
3.422130139407285
 30
0.0
 10
0.9157477572142088
 20
3.45664793626981
 30
0.0
 10
0.8877655540741811
 20
3.484630139404785
 30
0.0
 10
0.8532477572116827
 20
3.484630139401678
 30
0.0
 10
0.8187299603491569
 20
3.484630139398568
 30
0.0
 10
0.7907477572141843
 20
3.456647936258517
 30
0.0
 10
0.790747757217316
 20
3.422130139396043
 30
0.0
  0
SPLINE
  5
78
330
1F
100
AcDbEntity
  8
0
  6
Continuous
 62
     7
370
    25
100
AcDbSpline
210
0.0
220
0.0
230
1.0
 70
     8
 71
     3
 72
    11
 73
     7
 74
     0
 42
0.00000001
 43
0.00000001
 40
2.0
 40
2.0
 40
2.0
 40
2.0
 40
3.0
 40
3.0
 40
3.0
 40
4.0
 40
4.0
 40
4.0
 40
4.0
 10
0.790747757217316
 20
3.422130139396043
 30
0.0
 10
0.790747757220449
 20
3.387612342533568
 30
0.0
 10
0.8187299603604001
 20
3.359630139398544
 30
0.0
 10
0.8532477572228997
 20
3.359630139401677
 30
0.0
 10
0.8877655540853981
 20
3.35963013940476
 30
0.0
 10
0.915747757220398
 20
3.387612342544787
 30
0.0
 10
0.9157477572172663
 20
3.422130139407285
 30
0.0
  0
SPLINE
  5
79
330
1F
100
AcDbEntity
  8
0
  6
Continuous
 62
     7
370
    25
100
AcDbSpline
210
0.0
220
0.0
230
1.0
 70
     8
 71
     3
 72
    11
 73
     7
 74
     0
 42
0.00000001
 43
0.00000001
 40
0.0
 40
0.0
 40
0.0
 40
0.0
 40
1.0
 40
1.0
 40
1.0
 40
2.0
 40
2.0
 40
2.0
 40
2.0
 10
0.8602865066649168
 20
3.73666652120211
 30
0.0
 10
0.8484807248321525
 20
3.769102640198664
 30
0.0
 10
0.8126155779015075
 20
3.785826832869779
 30
0.0
 10
0.7801794589049776
 20
3.774021051036988
 30
0.0
 10
0.7477433399084215
 20
3.762215269204174
 30
0.0
 10
0.7310191472373334
 20
3.726350122273528
 30
0.0
 10
0.742824929070148
 20
3.693914003277024
 30
0.0
  0
SPLINE
  5
7A
330
1F
100
AcDbEntity
  8
0
  6
Continuous
 62
     7
370
    25
100
AcDbSpline
210
0.0
220
0.0
230
1.0
 70
     8
 71
     3
 72
    11
 73
     7
 74
     0
 42
0.00000001
 43
0.00000001
 40
2.0
 40
2.0
 40
2.0
 40
2.0
 40
3.0
 40
3.0
 40
3.0
 40
4.0
 40
4.0
 40
4.0
 40
4.0
 10
0.742824929070148
 20
3.693914003277024
 30
0.0
 10
0.7546307109029373
 20
3.661477884280519
 30
0.0
 10
0.7904958578335332
 20
3.644753691609343
 30
0.0
 10
0.8229319768300619
 20
3.656559473442144
 30
0.0
 10
0.8553680958265929
 20
3.668365255274909
 30
0.0
 10
0.8720922884977312
 20
3.704230402205579
 30
0.0
 10
0.8602865066649168
 20
3.73666652120211
 30
0.0
  0
SPLINE
  5
7B
330
1F
100
AcDbEntity
  8
0
  6
Continuous
 62
     7
370
    25
100
AcDbSpline
210
0.0
220
0.0
230
1.0
 70
     8
 71
     3
 72
    11
 73
     7
 74
     0
 42
0.00000001
 43
0.00000001
 40
0.0
 40
0.0
 40
0.0
 40
0.0
 40
1.0
 40
1.0
 40
1.0
 40
2.0
 40
2.0
 40
2.0
 40
2.0
 10
0.700592200401473
 20
4.013265173282043
 30
0.0
 10
0.6784045882627493
 20
4.039707339755764
 30
0.0
 10
0.6389823635742483
 20
4.043156337504179
 30
0.0
 10
0.6125401971006027
 20
4.020968725365454
 30
0.0
 10
0.586098030626908
 20
3.998781113226667
 30
0.0
 10
0.5826490328784922
 20
3.959358888538203
 30
0.0
 10
0.6048366450172684
 20
3.932916722064559
 30
0.0
  0
SPLINE
  5
7C
330
1F
100
AcDbEntity
  8
0
  6
Continuous
 62
     7
370
    25
100
AcDbSpline
210
0.0
220
0.0
230
1.0
 70
     8
 71
     3
 72
    11
 73
     7
 74
     0
 42
0.00000001
 43
0.00000001
 40
2.0
 40
2.0
 40
2.0
 40
2.0
 40
3.0
 40
3.0
 40
3.0
 40
4.0
 40
4.0
 40
4.0
 40
4.0
 10
0.6048366450172684
 20
3.932916722064559
 30
0.0
 10
0.6270242571559921
 20
3.906474555590927
 30
0.0
 10
0.6664464818444428
 20
3.903025557842423
 30
0.0
 10
0.6928886483181124
 20
3.925213169981173
 30
0.0
 10
0.7193308147917831
 20
3.947400782119884
 30
0.0
 10
0.7227798125402228
 20
3.986823006808374
 30
0.0
 10
0.700592200401473
 20
4.013265173282043
 30
0.0
  0
SPLINE
  5
7D
330
1F
100
AcDbEntity
  8
0
  6
Continuous
 62
     7
370
    25
100
AcDbSpline
210
0.0
220
0.0
230
1.0
 70
     8
 71
     3
 72
    11
 73
     7
 74
     0
 42
0.00000001
 43
0.00000001
 40
0.0
 40
0.0
 40
0.0
 40
0.0
 40
1.0
 40
1.0
 40
1.0
 40
2.0
 40
2.0
 40
2.0
 40
2.0
 10
0.4559263285981602
 20
4.218564216046819
 30
0.0
 10
0.4260330396315312
 20
4.235823114476327
 30
0.0
 10
0.3878086392924256
 20
4.225580917271816
 30
0.0
 10
0.3705497408630077
 20
4.195687628305212
 30
0.0
 10
0.3532908424335387
 20
4.165794339338529
 30
0.0
 10
0.3635330396380486
 20
4.127569938999475
 30
0.0
 10
0.3934263286046787
 20
4.11031104057007
 30
0.0
  0
SPLINE
  5
7E
330
1F
100
AcDbEntity
  8
0
  6
Continuous
 62
     7
370
    25
100
AcDbSpline
210
0.0
220
0.0
230
1.0
 70
     8
 71
     3
 72
    11
 73
     7
 74
     0
 42
0.00000001
 43
0.00000001
 40
2.0
 40
2.0
 40
2.0
 40
2.0
 40
3.0
 40
3.0
 40
3.0
 40
4.0
 40
4.0
 40
4.0
 40
4.0
 10
0.3934263286046787
 20
4.11031104057007
 30
0.0
 10
0.4233196175712838
 20
4.09305214214064
 30
0.0
 10
0.4615440179103631
 20
4.103294339345049
 30
0.0
 10
0.478802916339807
 20
4.133187628311678
 30
0.0
 10
0.4960618147692752
 20
4.163080917278284
 30
0.0
 10
0.4858196175647915
 20
4.201305317617362
 30
0.0
 10
0.4559263285981602
 20
4.218564216046819
 30
0.0
  0
SPLINE
  5
7F
330
1F
100
AcDbEntity
  8
0
  6
Continuous
 62
     7
370
    25
100
AcDbSpline
210
0.0
220
0.0
230
1.0
 70
     8
 71
     3
 72
    11
 73
     7
 74
     0
 42
0.00000001
 43
0.00000001
 40
0.0
 40
0.0
 40
0.0
 40
0.0
 40
1.0
 40
1.0
 40
1.0
 40
2.0
 40
2.0
 40
2.0
 40
2.0
 10
0.1557992062765053
 20
4.327801555049216
 30
0.0
 10
0.1218058123091075
 20
4.333795507569803
 30
0.0
 10
0.0893896631321082
 20
4.311097475553916
 30
0.0
 10
0.0833957106115721
 20
4.277104081586559
 30
0.0
 10
0.0774017580910361
 20
4.243110687619102
 30
0.0
 10
0.1000997901069333
 20
4.210694538442163
 30
0.0
 10
0.1340931840743038
 20
4.204700585921665
 30
0.0
  0
SPLINE
  5
80
330
1F
100
AcDbEntity
  8
0
  6
Continuous
 62
     7
370
    25
100
AcDbSpline
210
0.0
220
0.0
230
1.0
 70
     8
 71
     3
 72
    11
 73
     7
 74
     0
 42
0.00000001
 43
0.00000001
 40
2.0
 40
2.0
 40
2.0
 40
2.0
 40
3.0
 40
3.0
 40
3.0
 40
4.0
 40
4.0
 40
4.0
 40
4.0
 10
0.1340931840743038
 20
4.204700585921665
 30
0.0
 10
0.168086578041649
 20
4.19870663340113
 30
0.0
 10
0.2005027272186495
 20
4.221404665416925
 30
0.0
 10
0.2064966797391856
 20
4.255398059384322
 30
0.0
 10
0.2124906322597468
 20
4.289391453351692
 30
0.0
 10
0.1897926002438997
 20
4.321807602528668
 30
0.0
 10
0.1557992062765053
 20
4.327801555049216
 30
0.0
  0
SPLINE
  5
81
330
1F
100
AcDbEntity
  8
0
  6
Continuous
 62
     7
370
    25
100
AcDbSpline
210
0.0
220
0.0
230
1.0
 70
     8
 71
     3
 72
    11
 73
     7
 74
     0
 42
0.00000001
 43
0.00000001
 40
0.0
 40
0.0
 40
0.0
 40
0.0
 40
1.0
 40
1.0
 40
1.0
 40
2.0
 40
2.0
 40
2.0
 40
2.0
 10
-0.1635894062089751
 20
4.327801555034866
 30
0.0
 10
-0.1975828001758669
 20
4.321807602511285
 30
0.0
 10
-0.2202808321888072
 20
4.28939145333225
 30
0.0
 10
-0.2142868796651897
 20
4.255398059365425
 30
0.0
 10
-0.2082929271415458
 20
4.221404665398533
 30
0.0
 10
-0.1758767779625249
 20
4.198706633385618
 30
0.0
 10
-0.1418833839957096
 20
4.20470058590926
 30
0.0
  0
SPLINE
  5
82
330
1F
100
AcDbEntity
  8
0
  6
Continuous
 62
     7
370
    25
100
AcDbSpline
210
0.0
220
0.0
230
1.0
 70
     8
 71
     3
 72
    11
 73
     7
 74
     0
 42
0.00000001
 43
0.00000001
 40
2.0
 40
2.0
 40
2.0
 40
2.0
 40
3.0
 40
3.0
 40
3.0
 40
4.0
 40
4.0
 40
4.0
 40
4.0
 10
-0.1418833839957096
 20
4.20470058590926
 30
0.0
 10
-0.1078899900288965
 20
4.21069453843288
 30
0.0
 10
-0.0851919580159037
 20
4.24311068761185
 30
0.0
 10
-0.0911859105395213
 20
4.277104081578691
 30
0.0
 10
-0.0971798630631388
 20
4.311097475545531
 30
0.0
 10
-0.1295960122421358
 20
4.333795507558498
 30
0.0
 10
-0.1635894062089751
 20
4.327801555034866
 30
0.0
  0
SPLINE
  5
83
330
1F
100
AcDbEntity
  8
0
  6
Continuous
 62
     7
370
    25
100
AcDbSpline
210
0.0
220
0.0
230
1.0
 70
     8
 71
     3
 72
    11
 73
     7
 74
     0
 42
0.00000001
 43
0.00000001
 40
0.0
 40
0.0
 40
0.0
 40
0.0
 40
1.0
 40
1.0
 40
1.0
 40
2.0
 40
2.0
 40
2.0
 40
2.0
 10
-0.4637165285208305
 20
4.2185642160055
 30
0.0
 10
-0.4936098174859438
 20
4.20130531757338
 30
0.0
 10
-0.5038520146869668
 20
4.163080917233366
 30
0.0
 10
-0.4865931162548216
 20
4.133187628268313
 30
0.0
 10
-0.4693342178226501
 20
4.103294339303212
 30
0.0
 10
-0.4311098174826604
 20
4.093052142102201
 30
0.0
 10
-0.4012165285176214
 20
4.110311040534359
 30
0.0
  0
SPLINE
  5
84
330
1F
100
AcDbEntity
  8
0
  6
Continuous
 62
     7
370
    25
100
AcDbSpline
210
0.0
220
0.0
230
1.0
 70
     8
 71
     3
 72
    11
 73
     7
 74
     0
 42
0.00000001
 43
0.00000001
 40
2.0
 40
2.0
 40
2.0
 40
2.0
 40
3.0
 40
3.0
 40
3.0
 40
4.0
 40
4.0
 40
4.0
 40
4.0
 10
-0.4012165285176214
 20
4.110311040534359
 30
0.0
 10
-0.3713232395525581
 20
4.127569938966507
 30
0.0
 10
-0.3610810423514828
 20
4.16579433930647
 30
0.0
 10
-0.3783399407836303
 20
4.195687628271536
 30
0.0
 10
-0.3955988392157777
 20
4.225580917236623
 30
0.0
 10
-0.4338232395557651
 20
4.235823114437673
 30
0.0
 10
-0.4637165285208305
 20
4.2185642160055
 30
0.0
  0
SPLINE
  5
85
330
1F
100
AcDbEntity
  8
0
  6
Continuous
 62
     7
370
    25
100
AcDbSpline
210
0.0
220
0.0
230
1.0
 70
     8
 71
     3
 72
    11
 73
     7
 74
     0
 42
0.00000001
 43
0.00000001
 40
0.0
 40
0.0
 40
0.0
 40
0.0
 40
1.0
 40
1.0
 40
1.0
 40
2.0
 40
2.0
 40
2.0
 40
2.0
 10
-0.7083824003056985
 20
4.013265173218745
 30
0.0
 10
-0.7305700124420991
 20
3.98682300674308
 30
0.0
 10
-0.7271210146900969
 20
3.947400782054918
 30
0.0
 10
-0.7006788482144319
 20
3.925213169918569
 30
0.0
 10
-0.6742366817387409
 20
3.903025557782195
 30
0.0
 10
-0.6348144570505928
 20
3.906474555534197
 30
0.0
 10
-0.6126268449142427
 20
3.932916722009864
 30
0.0
  0
SPLINE
  5
86
330
1F
100
AcDbEntity
  8
0
  6
Continuous
 62
     7
370
    25
100
AcDbSpline
210
0.0
220
0.0
230
1.0
 70
     8
 71
     3
 72
    11
 73
     7
 74
     0
 42
0.00000001
 43
0.00000001
 40
2.0
 40
2.0
 40
2.0
 40
2.0
 40
3.0
 40
3.0
 40
3.0
 40
4.0
 40
4.0
 40
4.0
 40
4.0
 10
-0.6126268449142427
 20
3.932916722009864
 30
0.0
 10
-0.5904392327778947
 20
3.959358888485529
 30
0.0
 10
-0.5938882305298465
 20
3.998781113173677
 30
0.0
 10
-0.6203303970055114
 20
4.020968725310025
 30
0.0
 10
-0.6467725634811785
 20
4.043156337446401
 30
0.0
 10
-0.6861947881693505
 20
4.039707339694423
 30
0.0
 10
-0.7083824003056985
 20
4.013265173218745
 30
0.0
  0
SPLINE
  5
87
330
1F
100
AcDbEntity
  8
0
  6
Continuous
 62
     7
370
    25
100
AcDbSpline
210
0.0
220
0.0
230
1.0
 70
     8
 71
     3
 72
    11
 73
     7
 74
     0
 42
0.00000001
 43
0.00000001
 40
0.0
 40
0.0
 40
0.0
 40
0.0
 40
1.0
 40
1.0
 40
1.0
 40
2.0
 40
2.0
 40
2.0
 40
2.0
 10
-0.8680767065443077
 20
3.736666521124449
 30
0.0
 10
-0.8798824883741936
 20
3.704230402126858
 30
0.0
 10
-0.863158295699847
 20
3.668365255197728
 30
0.0
 10
-0.830722176702256
 20
3.656559473367856
 30
0.0
 10
-0.7982860577046367
 20
3.644753691537985
 30
0.0
 10
-0.7624209107755346
 20
3.661477884212332
 30
0.0
 10
-0.7506151289456486
 20
3.693914003209923
 30
0.0
  0
SPLINE
  5
88
330
1F
100
AcDbEntity
  8
0
  6
Continuous
 62
     7
370
    25
100
AcDbSpline
210
0.0
220
0.0
230
1.0
 70
     8
 71
     3
 72
    11
 73
     7
 74
     0
 42
0.00000001
 43
0.00000001
 40
2.0
 40
2.0
 40
2.0
 40
2.0
 40
3.0
 40
3.0
 40
3.0
 40
4.0
 40
4.0
 40
4.0
 40
4.0
 10
-0.7506151289456486
 20
3.693914003209923
 30
0.0
 10
-0.7388093471157912
 20
3.726350122207515
 30
0.0
 10
-0.7555335397901115
 20
3.762215269136644
 30
0.0
 10
-0.7879696587877046
 20
3.774021050966515
 30
0.0
 10
-0.8204057777852957
 20
3.785826832796387
 30
0.0
 10
-0.8562709247144501
 20
3.76910264012204
 30
0.0
 10
-0.8680767065443077
 20
3.736666521124449
 30
0.0
  0
SPLINE
  5
89
330
1F
100
AcDbEntity
  8
0
  6
Continuous
 62
     7
370
    25
100
AcDbSpline
210
0.0
220
0.0
230
1.0
 70
     8
 71
     3
 72
    11
 73
     7
 74
     0
 42
0.00000001
 43
0.00000001
 40
0.0
 40
0.0
 40
0.0
 40
0.0
 40
1.0
 40
1.0
 40
1.0
 40
2.0
 40
2.0
 40
2.0
 40
2.0
 10
-0.923537957068412
 20
3.422130139324648
 30
0.0
 10
-0.923537957068412
 20
3.387612342462148
 30
0.0
 10
-0.8955557539309119
 20
3.359630139324648
 30
0.0
 10
-0.8610379570684135
 20
3.359630139324648
 30
0.0
 10
-0.8265201602059129
 20
3.359630139324648
 30
0.0
 10
-0.7985379570684127
 20
3.387612342462148
 30
0.0
 10
-0.7985379570684127
 20
3.422130139324648
 30
0.0
  0
SPLINE
  5
8A
330
1F
100
AcDbEntity
  8
0
  6
Continuous
 62
     7
370
    25
100
AcDbSpline
210
0.0
220
0.0
230
1.0
 70
     8
 71
     3
 72
    11
 73
     7
 74
     0
 42
0.00000001
 43
0.00000001
 40
2.0
 40
2.0
 40
2.0
 40
2.0
 40
3.0
 40
3.0
 40
3.0
 40
4.0
 40
4.0
 40
4.0
 40
4.0
 10
-0.7985379570684127
 20
3.422130139324648
 30
0.0
 10
-0.7985379570684127
 20
3.456647936187147
 30
0.0
 10
-0.8265201602059129
 20
3.484630139324647
 30
0.0
 10
-0.8610379570684135
 20
3.484630139324647
 30
0.0
 10
-0.8955557539309119
 20
3.484630139324647
 30
0.0
 10
-0.923537957068412
 20
3.456647936187147
 30
0.0
 10
-0.923537957068412
 20
3.422130139324648
 30
0.0
  0
SPLINE
  5
8B
330
1F
100
AcDbEntity
  8
0
  6
Continuous
 62
     7
370
    25
100
AcDbSpline
210
0.0
220
0.0
230
1.0
 70
     8
 71
     3
 72
    11
 73
     7
 74
     0
 42
0.00000001
 43
0.00000001
 40
0.0
 40
0.0
 40
0.0
 40
0.0
 40
1.0
 40
1.0
 40
1.0
 40
2.0
 40
2.0
 40
2.0
 40
2.0
 10
0.3130691857558296
 20
3.97112838638557
 30
0.0
 10
0.2831758967891995
 20
3.988387284815025
 30
0.0
 10
0.244951496450095
 20
3.97814508761058
 30
0.0
 10
0.2276925980207023
 20
3.948251798643924
 30
0.0
 10
0.2104336995912081
 20
3.918358509677319
 30
0.0
 10
0.2206758967956677
 20
3.880134109338253
 30
0.0
 10
0.2505691857622968
 20
3.862875210908783
 30
0.0
  0
SPLINE
  5
8C
330
1F
100
AcDbEntity
  8
0
  6
Continuous
 62
     7
370
    25
100
AcDbSpline
210
0.0
220
0.0
230
1.0
 70
     8
 71
     3
 72
    11
 73
     7
 74
     0
 42
0.00000001
 43
0.00000001
 40
2.0
 40
2.0
 40
2.0
 40
2.0
 40
3.0
 40
3.0
 40
3.0
 40
4.0
 40
4.0
 40
4.0
 40
4.0
 10
0.2505691857622968
 20
3.862875210908783
 30
0.0
 10
0.280462474728928
 20
3.845616312479315
 30
0.0
 10
0.3186868750680073
 20
3.855858509683812
 30
0.0
 10
0.3359457734974766
 20
3.885751798650416
 30
0.0
 10
0.3532046719269445
 20
3.91564508761706
 30
0.0
 10
0.3429624747224335
 20
3.953869487956089
 30
0.0
 10
0.3130691857558296
 20
3.97112838638557
 30
0.0
  0
SPLINE
  5
8D
330
1F
100
AcDbEntity
  8
0
  6
Continuous
 62
     7
370
    25
100
AcDbSpline
210
0.0
220
0.0
230
1.0
 70
     8
 71
     3
 72
    11
 73
     7
 74
     0
 42
0.00000001
 43
0.00000001
 40
0.0
 40
0.0
 40
0.0
 40
0.0
 40
1.0
 40
1.0
 40
1.0
 40
2.0
 40
2.0
 40
2.0
 40
2.0
 10
0.545103147092615
 20
3.739094425080061
 30
0.0
 10
0.5278442486591278
 20
3.768987714044354
 30
0.0
 10
0.4896198483186607
 20
3.77922991124371
 30
0.0
 10
0.459726559354405
 20
3.761971012810175
 30
0.0
 10
0.429833270390074
 20
3.744712114376727
 30
0.0
 10
0.4195910731907437
 20
3.706487714036295
 30
0.0
 10
0.4368499716242276
 20
3.676594425071977
 30
0.0
  0
SPLINE
  5
8E
330
1F
100
AcDbEntity
  8
0
  6
Continuous
 62
     7
370
    25
100
AcDbSpline
210
0.0
220
0.0
230
1.0
 70
     8
 71
     3
 72
    11
 73
     7
 74
     0
 42
0.00000001
 43
0.00000001
 40
2.0
 40
2.0
 40
2.0
 40
2.0
 40
3.0
 40
3.0
 40
3.0
 40
4.0
 40
4.0
 40
4.0
 40
4.0
 10
0.4368499716242276
 20
3.676594425071977
 30
0.0
 10
0.4541088700577136
 20
3.646701136107658
 30
0.0
 10
0.492333270398184
 20
3.636458938908353
 30
0.0
 10
0.5222265593624889
 20
3.653717837341813
 30
0.0
 10
0.5521198483267958
 20
3.670976735775323
 30
0.0
 10
0.5623620455260748
 20
3.709201136115756
 30
0.0
 10
0.545103147092615
 20
3.739094425080061
 30
0.0
  0
SPLINE
  5
8F
330
1F
100
AcDbEntity
  8
0
  6
Continuous
 62
     7
370
    25
100
AcDbSpline
210
0.0
220
0.0
230
1.0
 70
     8
 71
     3
 72
    11
 73
     7
 74
     0
 42
0.00000001
 43
0.00000001
 40
0.0
 40
0.0
 40
0.0
 40
0.0
 40
1.0
 40
1.0
 40
1.0
 40
2.0
 40
2.0
 40
2.0
 40
2.0
 10
0.630033471502995
 20
3.422130139381618
 30
0.0
 10
0.6300334714998873
 20
3.456647936244116
 30
0.0
 10
0.6020512683598859
 20
3.484630139379141
 30
0.0
 10
0.5675334714973851
 20
3.484630139375984
 30
0.0
 10
0.5330156746348866
 20
3.484630139372927
 30
0.0
 10
0.505033471499913
 20
3.456647936232925
 30
0.0
 10
0.5050334715029944
 20
3.422130139370426
 30
0.0
  0
SPLINE
  5
90
330
1F
100
AcDbEntity
  8
0
  6
Continuous
 62
     7
370
    25
100
AcDbSpline
210
0.0
220
0.0
230
1.0
 70
     8
 71
     3
 72
    11
 73
     7
 74
     0
 42
0.00000001
 43
0.00000001
 40
2.0
 40
2.0
 40
2.0
 40
2.0
 40
3.0
 40
3.0
 40
3.0
 40
4.0
 40
4.0
 40
4.0
 40
4.0
 10
0.5050334715029944
 20
3.422130139370426
 30
0.0
 10
0.5050334715060759
 20
3.387612342507926
 30
0.0
 10
0.5330156746461299
 20
3.359630139372928
 30
0.0
 10
0.5675334715086283
 20
3.359630139376009
 30
0.0
 10
0.6020512683711269
 20
3.359630139379117
 30
0.0
 10
0.6300334715060766
 20
3.387612342519144
 30
0.0
 10
0.630033471502995
 20
3.422130139381618
 30
0.0
  0
SPLINE
  5
91
330
1F
100
AcDbEntity
  8
0
  6
Continuous
 62
     7
370
    25
100
AcDbSpline
210
0.0
220
0.0
230
1.0
 70
     8
 71
     3
 72
    11
 73
     7
 74
     0
 42
0.00000001
 43
0.00000001
 40
0.0
 40
0.0
 40
0.0
 40
0.0
 40
1.0
 40
1.0
 40
1.0
 40
2.0
 40
2.0
 40
2.0
 40
2.0
 10
0.5451031471495599
 20
3.105165853667927
 30
0.0
 10
0.5623620455776893
 20
3.135059142635341
 30
0.0
 10
0.5521198483715118
 20
3.173283542973967
 30
0.0
 10
0.5222265594040741
 20
3.19054244140202
 30
0.0
 10
0.4923332704366856
 20
3.207801339830199
 30
0.0
 10
0.45410887009811
 20
3.197559142624022
 30
0.0
 10
0.4368499716699564
 20
3.167665853656609
 30
0.0
  0
SPLINE
  5
92
330
1F
100
AcDbEntity
  8
0
  6
Continuous
 62
     7
370
    25
100
AcDbSpline
210
0.0
220
0.0
230
1.0
 70
     8
 71
     3
 72
    11
 73
     7
 74
     0
 42
0.00000001
 43
0.00000001
 40
2.0
 40
2.0
 40
2.0
 40
2.0
 40
3.0
 40
3.0
 40
3.0
 40
4.0
 40
4.0
 40
4.0
 40
4.0
 10
0.4368499716699564
 20
3.167665853656609
 30
0.0
 10
0.419591073241826
 20
3.137772564689221
 30
0.0
 10
0.4298332704480537
 20
3.099548164350596
 30
0.0
 10
0.4597265594154411
 20
3.082289265922442
 30
0.0
 10
0.4896198483828558
 20
3.065030367494337
 30
0.0
 10
0.5278442487214292
 20
3.075272564700565
 30
0.0
 10
0.5451031471495599
 20
3.105165853667927
 30
0.0
  0
SPLINE
  5
93
330
1F
100
AcDbEntity
  8
0
  6
Continuous
 62
     7
370
    25
100
AcDbSpline
210
0.0
220
0.0
230
1.0
 70
     8
 71
     3
 72
    11
 73
     7
 74
     0
 42
0.00000001
 43
0.00000001
 40
0.0
 40
0.0
 40
0.0
 40
0.0
 40
1.0
 40
1.0
 40
1.0
 40
2.0
 40
2.0
 40
2.0
 40
2.0
 10
0.3130691858544591
 20
2.873131892320709
 30
0.0
 10
0.3429624748180077
 20
2.890390790755557
 30
0.0
 10
0.3532046720156203
 20
2.928615191096481
 30
0.0
 10
0.3359457735807454
 20
2.958508480059954
 30
0.0
 10
0.3186868751459458
 20
2.988401769023528
 30
0.0
 10
0.2804624748050722
 20
2.998643966221141
 30
0.0
 10
0.2505691858415247
 20
2.981385067786316
 30
0.0
  0
SPLINE
  5
94
330
1F
100
AcDbEntity
  8
0
  6
Continuous
 62
     7
370
    25
100
AcDbSpline
210
0.0
220
0.0
230
1.0
 70
     8
 71
     3
 72
    11
 73
     7
 74
     0
 42
0.00000001
 43
0.00000001
 40
2.0
 40
2.0
 40
2.0
 40
2.0
 40
3.0
 40
3.0
 40
3.0
 40
4.0
 40
4.0
 40
4.0
 40
4.0
 10
0.2505691858415247
 20
2.981385067786316
 30
0.0
 10
0.2206758968779772
 20
2.964126169351517
 30
0.0
 10
0.2104336996803887
 20
2.925901769010567
 30
0.0
 10
0.2276925981151871
 20
2.89600848004702
 30
0.0
 10
0.2449514965500369
 20
2.866115191083498
 30
0.0
 10
0.2831758968909368
 20
2.855872993885935
 30
0.0
 10
0.3130691858544591
 20
2.873131892320709
 30
0.0
  0
SPLINE
  5
95
330
1F
100
AcDbEntity
  8
0
  6
Continuous
 62
     7
370
    25
100
AcDbSpline
210
0.0
220
0.0
230
1.0
 70
     8
 71
     3
 72
    11
 73
     7
 74
     0
 42
0.00000001
 43
0.00000001
 40
0.0
 40
0.0
 40
0.0
 40
0.0
 40
1.0
 40
1.0
 40
1.0
 40
2.0
 40
2.0
 40
2.0
 40
2.0
 10
-0.0038950998401574
 20
2.788201567896106
 30
0.0
 10
0.0306226970223673
 20
2.78820156790078
 30
0.0
 10
0.0586049001561029
 20
2.816183771042046
 30
0.0
 10
0.0586049001514036
 20
2.85070156790452
 30
0.0
 10
0.0586049001467813
 20
2.885219364767045
 30
0.0
 10
0.0306226970055413
 20
2.913201567900756
 30
0.0
 10
-0.0038950998569834
 20
2.913201567896131
 30
0.0
  0
SPLINE
  5
96
330
1F
100
AcDbEntity
  8
0
  6
Continuous
 62
     7
370
    25
100
AcDbSpline
210
0.0
220
0.0
230
1.0
 70
     8
 71
     3
 72
    11
 73
     7
 74
     0
 42
0.00000001
 43
0.00000001
 40
2.0
 40
2.0
 40
2.0
 40
2.0
 40
3.0
 40
3.0
 40
3.0
 40
4.0
 40
4.0
 40
4.0
 40
4.0
 10
-0.0038950998569834
 20
2.913201567896131
 30
0.0
 10
-0.0384128967194578
 20
2.913201567891509
 30
0.0
 10
-0.0663950998531918
 20
2.885219364750218
 30
0.0
 10
-0.0663950998485957
 20
2.850701567887693
 30
0.0
 10
-0.0663950998438964
 20
2.816183771025195
 30
0.0
 10
-0.0384128967026296
 20
2.788201567891507
 30
0.0
 10
-0.0038950998401574
 20
2.788201567896106
 30
0.0
  0
SPLINE
  5
97
330
1F
100
AcDbEntity
  8
0
  6
Continuous
 62
     7
370
    25
100
AcDbSpline
210
0.0
220
0.0
230
1.0
 70
     8
 71
     3
 72
    11
 73
     7
 74
     0
 42
0.00000001
 43
0.00000001
 40
0.0
 40
0.0
 40
0.0
 40
0.0
 40
1.0
 40
1.0
 40
1.0
 40
2.0
 40
2.0
 40
2.0
 40
2.0
 10
-0.3208593855576614
 20
2.873131892235318
 30
0.0
 10
-0.2909660965894664
 20
2.855872993808552
 30
0.0
 10
-0.2527416962513214
 20
2.866115191016447
 30
0.0
 10
-0.2354827978246048
 20
2.896008479984618
 30
0.0
 10
-0.2182238993977899
 20
2.925901768952789
 30
0.0
 10
-0.2284660966056601
 20
2.964126169290934
 30
0.0
 10
-0.258359385573855
 20
2.98138506771775
 30
0.0
  0
SPLINE
  5
98
330
1F
100
AcDbEntity
  8
0
  6
Continuous
 62
     7
370
    25
100
AcDbSpline
210
0.0
220
0.0
230
1.0
 70
     8
 71
     3
 72
    11
 73
     7
 74
     0
 42
0.00000001
 43
0.00000001
 40
2.0
 40
2.0
 40
2.0
 40
2.0
 40
3.0
 40
3.0
 40
3.0
 40
4.0
 40
4.0
 40
4.0
 40
4.0
 10
-0.258359385573855
 20
2.98138506771775
 30
0.0
 10
-0.2882526745419778
 20
2.998643966144515
 30
0.0
 10
-0.3264770748801732
 20
2.98840176893662
 30
0.0
 10
-0.3437359733069881
 20
2.958508479968424
 30
0.0
 10
-0.3609948717337024
 20
2.928615191000226
 30
0.0
 10
-0.3507526745258083
 20
2.890390790662107
 30
0.0
 10
-0.3208593855576614
 20
2.873131892235318
 30
0.0
  0
SPLINE
  5
99
330
1F
100
AcDbEntity
  8
0
  6
Continuous
 62
     7
370
    25
100
AcDbSpline
210
0.0
220
0.0
230
1.0
 70
     8
 71
     3
 72
    11
 73
     7
 74
     0
 42
0.00000001
 43
0.00000001
 40
0.0
 40
0.0
 40
0.0
 40
0.0
 40
1.0
 40
1.0
 40
1.0
 40
2.0
 40
2.0
 40
2.0
 40
2.0
 10
-0.5528933469152908
 20
3.105165853520009
 30
0.0
 10
-0.5356344484791024
 20
3.075272564557244
 30
0.0
 10
-0.4974100481377228
 20
3.065030367361349
 30
0.0
 10
-0.4675167591750331
 20
3.082289265797562
 30
0.0
 10
-0.4376234702122427
 20
3.099548164233676
 30
0.0
 10
-0.4273812730163228
 20
3.137772564575029
 30
0.0
 10
-0.4446401714524873
 20
3.167665853537845
 30
0.0
  0
SPLINE
  5
9A
330
1F
100
AcDbEntity
  8
0
  6
Continuous
 62
     7
370
    25
100
AcDbSpline
210
0.0
220
0.0
230
1.0
 70
     8
 71
     3
 72
    11
 73
     7
 74
     0
 42
0.00000001
 43
0.00000001
 40
2.0
 40
2.0
 40
2.0
 40
2.0
 40
3.0
 40
3.0
 40
3.0
 40
4.0
 40
4.0
 40
4.0
 40
4.0
 10
-0.4446401714524873
 20
3.167665853537845
 30
0.0
 10
-0.4618990698886254
 20
3.197559142500559
 30
0.0
 10
-0.500123470230029
 20
3.207801339696479
 30
0.0
 10
-0.5300167591928193
 20
3.19054244126029
 30
0.0
 10
-0.5599100481555592
 20
3.173283542824077
 30
0.0
 10
-0.5701522453514289
 20
3.135059142482748
 30
0.0
 10
-0.5528933469152908
 20
3.105165853520009
 30
0.0
  0
SPLINE
  5
9B
330
1F
100
AcDbEntity
  8
0
  6
Continuous
 62
     7
370
    25
100
AcDbSpline
210
0.0
220
0.0
230
1.0
 70
     8
 71
     3
 72
    11
 73
     7
 74
     0
 42
0.00000001
 43
0.00000001
 40
0.0
 40
0.0
 40
0.0
 40
0.0
 40
1.0
 40
1.0
 40
1.0
 40
2.0
 40
2.0
 40
2.0
 40
2.0
 10
-0.0038950999540471
 20
4.056058710753228
 30
0.0
 10
-0.0384128968165455
 20
4.056058710751661
 30
0.0
 10
-0.0663950999528327
 20
4.028076507612923
 30
0.0
 10
-0.0663950999512176
 20
3.993558710750424
 30
0.0
 10
-0.0663950999497009
 20
3.959040913887937
 30
0.0
 10
-0.0384128968109616
 20
3.931058710751688
 30
0.0
 10
-0.0038950999484391
 20
3.931058710753241
 30
0.0
  0
SPLINE
  5
9C
330
1F
100
AcDbEntity
  8
0
  6
Continuous
 62
     7
370
    25
100
AcDbSpline
210
0.0
220
0.0
230
1.0
 70
     8
 71
     3
 72
    11
 73
     7
 74
     0
 42
0.00000001
 43
0.00000001
 40
2.0
 40
2.0
 40
2.0
 40
2.0
 40
3.0
 40
3.0
 40
3.0
 40
4.0
 40
4.0
 40
4.0
 40
4.0
 10
-0.0038950999484391
 20
3.931058710753241
 30
0.0
 10
0.0306226969140615
 20
3.931058710754769
 30
0.0
 10
0.0586049000502985
 20
3.959040913893558
 30
0.0
 10
0.0586049000487577
 20
3.993558710756044
 30
0.0
 10
0.0586049000472169
 20
4.028076507618557
 30
0.0
 10
0.0306226969084536
 20
4.056058710754757
 30
0.0
 10
-0.0038950999540471
 20
4.056058710753228
 30
0.0
  0
SPLINE
  5
9D
330
1F
100
AcDbEntity
  8
0
  6
Continuous
 62
     7
370
    25
100
AcDbSpline
210
0.0
220
0.0
230
1.0
 70
     8
 71
     3
 72
    11
 73
     7
 74
     0
 42
0.00000001
 43
0.00000001
 40
0.0
 40
0.0
 40
0.0
 40
0.0
 40
1.0
 40
1.0
 40
1.0
 40
2.0
 40
2.0
 40
2.0
 40
2.0
 10
-0.320859385656292
 20
3.971128386357072
 30
0.0
 10
-0.3507526746213552
 20
3.953869487924925
 30
0.0
 10
-0.3609948718224307
 20
3.915645087584935
 30
0.0
 10
-0.343735973390257
 20
3.885751798619873
 30
0.0
 10
-0.3264770749581358
 20
3.855858509654797
 30
0.0
 10
-0.2882526746181461
 20
3.845616312453761
 30
0.0
 10
-0.2583593856530589
 20
3.862875210885907
 30
0.0
  0
SPLINE
  5
9E
330
1F
100
AcDbEntity
  8
0
  6
Continuous
 62
     7
370
    25
100
AcDbSpline
210
0.0
220
0.0
230
1.0
 70
     8
 71
     3
 72
    11
 73
     7
 74
     0
 42
0.00000001
 43
0.00000001
 40
2.0
 40
2.0
 40
2.0
 40
2.0
 40
3.0
 40
3.0
 40
3.0
 40
4.0
 40
4.0
 40
4.0
 40
4.0
 10
-0.2583593856530589
 20
3.862875210885907
 30
0.0
 10
-0.2284660966879695
 20
3.880134109318041
 30
0.0
 10
-0.2182238994869465
 20
3.918358509658043
 30
0.0
 10
-0.2354827979190918
 20
3.94825179862312
 30
0.0
 10
-0.2527416963512393
 20
3.978145087588196
 30
0.0
 10
-0.2909660966912027
 20
3.988387284789207
 30
0.0
 10
-0.320859385656292
 20
3.971128386357072
 30
0.0
  0
SPLINE
  5
9F
330
1F
100
AcDbEntity
  8
0
  6
Continuous
 62
     7
370
    25
100
AcDbSpline
210
0.0
220
0.0
230
1.0
 70
     8
 71
     3
 72
    11
 73
     7
 74
     0
 42
0.00000001
 43
0.00000001
 40
0.0
 40
0.0
 40
0.0
 40
0.0
 40
1.0
 40
1.0
 40
1.0
 40
2.0
 40
2.0
 40
2.0
 40
2.0
 10
-0.5528933469722094
 20
3.739094425030709
 30
0.0
 10
-0.5701522454030171
 20
3.709201136064849
 30
0.0
 10
-0.5599100482002763
 20
3.670976735725327
 30
0.0
 10
-0.5300167592344286
 20
3.653717837294532
 30
0.0
 10
-0.5001234702685808
 20
3.636458938863725
 30
0.0
 10
-0.461899069929048
 20
3.646701136066478
 30
0.0
 10
-0.4446401714982403
 20
3.676594425032337
 30
0.0
  0
SPLINE
  5
A0
330
1F
100
AcDbEntity
  8
0
  6
Continuous
 62
     7
370
    25
100
AcDbSpline
210
0.0
220
0.0
230
1.0
 70
     8
 71
     3
 72
    11
 73
     7
 74
     0
 42
0.00000001
 43
0.00000001
 40
2.0
 40
2.0
 40
2.0
 40
2.0
 40
3.0
 40
3.0
 40
3.0
 40
4.0
 40
4.0
 40
4.0
 40
4.0
 10
-0.4446401714982403
 20
3.676594425032337
 30
0.0
 10
-0.4273812730674325
 20
3.706487713998185
 30
0.0
 10
-0.4376234702701994
 20
3.74471211433772
 30
0.0
 10
-0.4675167592360451
 20
3.761971012768528
 30
0.0
 10
-0.4974100482018928
 20
3.77922991119932
 30
0.0
 10
-0.5356344485414039
 20
3.768987713996556
 30
0.0
 10
-0.5528933469722094
 20
3.739094425030709
 30
0.0
  0
SPLINE
  5
A1
330
1F
100
AcDbEntity
  8
0
  6
Continuous
 62
     7
370
    25
100
AcDbSpline
210
0.0
220
0.0
230
1.0
 70
     8
 71
     3
 72
    11
 73
     7
 74
     0
 42
0.00000001
 43
0.00000001
 40
0.0
 40
0.0
 40
0.0
 40
0.0
 40
1.0
 40
1.0
 40
1.0
 40
2.0
 40
2.0
 40
2.0
 40
2.0
 10
-0.6378236713541179
 20
3.422130139324648
 30
0.0
 10
-0.6378236713541179
 20
3.387612342462148
 30
0.0
 10
-0.6098414682166157
 20
3.359630139324648
 30
0.0
 10
-0.5753236713541172
 20
3.359630139324648
 30
0.0
 10
-0.5408058744916165
 20
3.359630139324648
 30
0.0
 10
-0.5128236713541164
 20
3.387612342462148
 30
0.0
 10
-0.5128236713541164
 20
3.422130139324648
 30
0.0
  0
SPLINE
  5
A2
330
1F
100
AcDbEntity
  8
0
  6
Continuous
 62
     7
370
    25
100
AcDbSpline
210
0.0
220
0.0
230
1.0
 70
     8
 71
     3
 72
    11
 73
     7
 74
     0
 42
0.00000001
 43
0.00000001
 40
2.0
 40
2.0
 40
2.0
 40
2.0
 40
3.0
 40
3.0
 40
3.0
 40
4.0
 40
4.0
 40
4.0
 40
4.0
 10
-0.5128236713541164
 20
3.422130139324648
 30
0.0
 10
-0.5128236713541164
 20
3.456647936187147
 30
0.0
 10
-0.5408058744916165
 20
3.484630139324647
 30
0.0
 10
-0.5753236713541172
 20
3.484630139324647
 30
0.0
 10
-0.6098414682166157
 20
3.484630139324647
 30
0.0
 10
-0.6378236713541179
 20
3.456647936187147
 30
0.0
 10
-0.6378236713541179
 20
3.422130139324648
 30
0.0
  0
SPLINE
  5
A3
330
1F
100
AcDbEntity
  8
0
  6
Continuous
 62
     7
370
    25
100
AcDbSpline
210
0.0
220
0.0
230
1.0
 70
     8
 71
     3
 72
    11
 73
     7
 74
     0
 42
0.00000001
 43
0.00000001
 40
0.0
 40
0.0
 40
0.0
 40
0.0
 40
1.0
 40
1.0
 40
1.0
 40
2.0
 40
2.0
 40
2.0
 40
2.0
 10
-0.8680767064877432
 20
3.107593757369654
 30
0.0
 10
-0.8562709246521508
 20
3.075157638374133
 30
0.0
 10
-0.8204057777199651
 20
3.058433445706279
 30
0.0
 10
-0.7879696587244679
 20
3.070239227542
 30
0.0
 10
-0.755533539728975
 20
3.082045009377695
 30
0.0
 10
-0.7388093470610951
 20
3.117910156309855
 30
0.0
 10
-0.7506151288968164
 20
3.150346275305324
 30
0.0
  0
SPLINE
  5
A4
330
1F
100
AcDbEntity
  8
0
  6
Continuous
 62
     7
370
    25
100
AcDbSpline
210
0.0
220
0.0
230
1.0
 70
     8
 71
     3
 72
    11
 73
     7
 74
     0
 42
0.00000001
 43
0.00000001
 40
2.0
 40
2.0
 40
2.0
 40
2.0
 40
3.0
 40
3.0
 40
3.0
 40
4.0
 40
4.0
 40
4.0
 40
4.0
 10
-0.7506151288968164
 20
3.150346275305324
 30
0.0
 10
-0.7624209107325878
 20
3.182782394300741
 30
0.0
 10
-0.7982860576646446
 20
3.199506586968724
 30
0.0
 10
-0.8307221766601397
 20
3.187700805132952
 30
0.0
 10
-0.8631582956555867
 20
3.175895023297309
 30
0.0
 10
-0.8798824883234927
 20
3.140029876365149
 30
0.0
 10
-0.8680767064877432
 20
3.107593757369654
 30
0.0
  0
SPLINE
  5
A5
330
1F
100
AcDbEntity
  8
0
  6
Continuous
 62
     7
370
    25
100
AcDbSpline
210
0.0
220
0.0
230
1.0
 70
     8
 71
     3
 72
    11
 73
     7
 74
     0
 42
0.00000001
 43
0.00000001
 40
0.0
 40
0.0
 40
0.0
 40
0.0
 40
1.0
 40
1.0
 40
1.0
 40
2.0
 40
2.0
 40
2.0
 40
2.0
 10
-0.7083824001994669
 20
2.830995105304068
 30
0.0
 10
-0.6861947880584178
 20
2.804552938832318
 30
0.0
 10
-0.6467725633696142
 20
2.801103941087466
 30
0.0
 10
-0.6203303968979137
 20
2.823291553228614
 30
0.0
 10
-0.5938882304262133
 20
2.845479165369714
 30
0.0
 10
-0.5904392326813621
 20
2.884901390058519
 30
0.0
 10
-0.6126268448224854
 20
2.911343556530193
 30
0.0
  0
SPLINE
  5
A6
330
1F
100
AcDbEntity
  8
0
  6
Continuous
 62
     7
370
    25
100
AcDbSpline
210
0.0
220
0.0
230
1.0
 70
     8
 71
     3
 72
    11
 73
     7
 74
     0
 42
0.00000001
 43
0.00000001
 40
2.0
 40
2.0
 40
2.0
 40
2.0
 40
3.0
 40
3.0
 40
3.0
 40
4.0
 40
4.0
 40
4.0
 40
4.0
 10
-0.6126268448224854
 20
2.911343556530193
 30
0.0
 10
-0.6348144569636348
 20
2.937785723001792
 30
0.0
 10
-0.6742366816523642
 20
2.941234720746795
 30
0.0
 10
-0.7006788481240384
 20
2.91904710860562
 30
0.0
 10
-0.7271210145957366
 20
2.896859496464547
 30
0.0
 10
-0.7305700123406141
 20
2.857437271775742
 30
0.0
 10
-0.7083824001994669
 20
2.830995105304068
 30
0.0
  0
SPLINE
  5
A7
330
1F
100
AcDbEntity
  8
0
  6
Continuous
 62
     7
370
    25
100
AcDbSpline
210
0.0
220
0.0
230
1.0
 70
     8
 71
     3
 72
    11
 73
     7
 74
     0
 42
0.00000001
 43
0.00000001
 40
0.0
 40
0.0
 40
0.0
 40
0.0
 40
1.0
 40
1.0
 40
1.0
 40
2.0
 40
2.0
 40
2.0
 40
2.0
 10
-0.4637165283777362
 20
2.625696062561258
 30
0.0
 10
-0.4338232394095916
 20
2.608437164134418
 30
0.0
 10
-0.3955988390714443
 20
2.618679361342363
 30
0.0
 10
-0.3783399406446535
 20
2.648572650310586
 30
0.0
 10
-0.3610810422178626
 20
2.678465939278757
 30
0.0
 10
-0.3713232394258091
 20
2.716690339616929
 30
0.0
 10
-0.4012165283939801
 20
2.733949238043667
 30
0.0
  0
SPLINE
  5
A8
330
1F
100
AcDbEntity
  8
0
  6
Continuous
 62
     7
370
    25
100
AcDbSpline
210
0.0
220
0.0
230
1.0
 70
     8
 71
     3
 72
    11
 73
     7
 74
     0
 42
0.00000001
 43
0.00000001
 40
2.0
 40
2.0
 40
2.0
 40
2.0
 40
3.0
 40
3.0
 40
3.0
 40
4.0
 40
4.0
 40
4.0
 40
4.0
 10
-0.4012165283939801
 20
2.733949238043667
 30
0.0
 10
-0.4311098173621773
 20
2.751208136470358
 30
0.0
 10
-0.4693342177003223
 20
2.740965939262563
 30
0.0
 10
-0.4865931161270629
 20
2.711072650294341
 30
0.0
 10
-0.5038520145538538
 20
2.681179361326195
 30
0.0
 10
-0.4936098173459334
 20
2.642954960988026
 30
0.0
 10
-0.4637165283777362
 20
2.625696062561258
 30
0.0
  0
SPLINE
  5
A9
330
1F
100
AcDbEntity
  8
0
  6
Continuous
 62
     7
370
    25
100
AcDbSpline
210
0.0
220
0.0
230
1.0
 70
     8
 71
     3
 72
    11
 73
     7
 74
     0
 42
0.00000001
 43
0.00000001
 40
0.0
 40
0.0
 40
0.0
 40
0.0
 40
1.0
 40
1.0
 40
1.0
 40
2.0
 40
2.0
 40
2.0
 40
2.0
 10
-0.1635894060462772
 20
2.516458723585818
 30
0.0
 10
-0.1295960120783516
 20
2.510464771068263
 30
0.0
 10
-0.0971798629034481
 20
2.533162803087066
 30
0.0
 10
-0.0911859103859171
 20
2.567156197055018
 30
0.0
 10
-0.0851919578684123
 20
2.601149591022945
 30
0.0
 10
-0.1078899898872425
 20
2.633565740197899
 30
0.0
 10
-0.1418833838551418
 20
2.639559692715353
 30
0.0
  0
SPLINE
  5
AA
330
1F
100
AcDbEntity
  8
0
  6
Continuous
 62
     7
370
    25
100
AcDbSpline
210
0.0
220
0.0
230
1.0
 70
     8
 71
     3
 72
    11
 73
     7
 74
     0
 42
0.00000001
 43
0.00000001
 40
2.0
 40
2.0
 40
2.0
 40
2.0
 40
3.0
 40
3.0
 40
3.0
 40
4.0
 40
4.0
 40
4.0
 40
4.0
 10
-0.1418833838551418
 20
2.639559692715353
 30
0.0
 10
-0.1758767778230433
 20
2.645553645232781
 30
0.0
 10
-0.2082929269980233
 20
2.622855613214104
 30
0.0
 10
-0.2142868795154778
 20
2.588862219246179
 30
0.0
 10
-0.2202808320330067
 20
2.554868825278252
 30
0.0
 10
-0.1975828000142049
 20
2.522452676103323
 30
0.0
 10
-0.1635894060462772
 20
2.516458723585818
 30
0.0
  0
SPLINE
  5
AB
330
1F
100
AcDbEntity
  8
0
  6
Continuous
 62
     7
370
    25
100
AcDbSpline
210
0.0
220
0.0
230
1.0
 70
     8
 71
     3
 72
    11
 73
     7
 74
     0
 42
0.00000001
 43
0.00000001
 40
0.0
 40
0.0
 40
0.0
 40
0.0
 40
1.0
 40
1.0
 40
1.0
 40
2.0
 40
2.0
 40
2.0
 40
2.0
 10
-0.0663950999255492
 20
3.422130139324648
 30
0.0
 10
-0.0663950999255492
 20
3.387612342462148
 30
0.0
 10
-0.0384128967880468
 20
3.359630139324648
 30
0.0
 10
-0.0038950999255484
 20
3.359630139324648
 30
0.0
 10
0.03062269693695
 20
3.359630139324648
 30
0.0
 10
0.0586049000744502
 20
3.387612342462148
 30
0.0
 10
0.0586049000744502
 20
3.422130139324648
 30
0.0
  0
SPLINE
  5
AC
330
1F
100
AcDbEntity
  8
0
  6
Continuous
 62
     7
370
    25
100
AcDbSpline
210
0.0
220
0.0
230
1.0
 70
     8
 71
     3
 72
    11
 73
     7
 74
     0
 42
0.00000001
 43
0.00000001
 40
2.0
 40
2.0
 40
2.0
 40
2.0
 40
3.0
 40
3.0
 40
3.0
 40
4.0
 40
4.0
 40
4.0
 40
4.0
 10
0.0586049000744502
 20
3.422130139324648
 30
0.0
 10
0.0586049000744502
 20
3.456647936187147
 30
0.0
 10
0.03062269693695
 20
3.484630139324647
 30
0.0
 10
-0.0038950999255484
 20
3.484630139324647
 30
0.0
 10
-0.0384128967880468
 20
3.484630139324647
 30
0.0
 10
-0.0663950999255492
 20
3.456647936187147
 30
0.0
 10
-0.0663950999255492
 20
3.422130139324648
 30
0.0
  0
CIRCLE
  5
BD
330
1F
100
AcDbEntity
  8
0
  6
Continuous
 62
     7
370
    25
100
AcDbCircle
 10
6.5
 20
1.5
 30
0.0
 40
0.4249999999999972
  0
CIRCLE
  5
BE
330
1F
100
AcDbEntity
  8
0
  6
Continuous
 62
     7
370
    25
100
AcDbCircle
 10
8.0
 20
4.25
 30
0.0
 40
0.1128649349999993
  0
CIRCLE
  5
BF
330
1F
100
AcDbEntity
  8
0
  6
Continuous
 62
     7
370
    25
100
AcDbCircle
 10
-8.0
 20
4.25
 30
0.0
 40
0.1128649350000011
  0
CIRCLE
  5
CC
330
1F
100
AcDbEntity
  8
0
  6
Continuous
 62
     7
370
    25
100
AcDbCircle
 10
8.0
 20
6.25
 30
0.0
 40
0.0999999999999979
  0
CIRCLE
  5
CD
330
1F
100
AcDbEntity
  8
0
  6
Continuous
 62
     7
370
    25
100
AcDbCircle
 10
-8.0
 20
6.25
 30
0.0
 40
0.0999999999999988
  0
CIRCLE
  5
CE
330
1F
100
AcDbEntity
  8
0
  6
Continuous
 62
     7
370
    25
100
AcDbCircle
 10
6.5
 20
3.0
 30
0.0
 40
0.4999999999999991
  0
CIRCLE
  5
D7
330
1F
100
AcDbEntity
  8
0
  6
Continuous
 62
     7
370
    25
100
AcDbCircle
 10
4.4044831506
 20
1.6328541258
 30
0.0
 40
0.0850000000000009
  0
CIRCLE
  5
D8
330
1F
100
AcDbEntity
  8
0
  6
Continuous
 62
     7
370
    25
100
AcDbCircle
 10
4.4044831506
 20
3.3328541258
 30
0.0
 40
0.0850000000000009
  0
CIRCLE
  5
D9
330
1F
100
AcDbEntity
  8
0
  6
Continuous
 62
     7
370
    25
100
AcDbCircle
 10
-0.975
 20
4.3976631036
 30
0.0
 40
0.0800000000000001
  0
CIRCLE
  5
DA
330
1F
100
AcDbEntity
  8
0
  6
Continuous
 62
     7
370
    25
100
AcDbCircle
 10
0.975
 20
4.3976631036
 30
0.0
 40
0.0800000000000001
  0
CIRCLE
  5
DB
330
1F
100
AcDbEntity
  8
0
  6
Continuous
 62
     7
370
    25
100
AcDbCircle
 10
0.975
 20
2.4465971751
 30
0.0
 40
0.0799999999999997
  0
CIRCLE
  5
DC
330
1F
100
AcDbEntity
  8
0
  6
Continuous
 62
     7
370
    25
100
AcDbCircle
 10
-0.975
 20
2.4465971751
 30
0.0
 40
0.0799999999999998
  0
LINE
  5
DD
330
1F
100
AcDbEntity
  8
0
  6
Continuous
 62
     7
370
    25
100
AcDbLine
 10
-3.495
 20
4.125
 30
0.0
 11
-3.495
 21
4.385
 31
0.0
  0
LINE
  5
DE
330
1F
100
AcDbEntity
  8
0
  6
Continuous
 62
     7
370
    25
100
AcDbLine
 10
-3.495
 20
4.385
 30
0.0
 11
-5.505
 21
4.385
 31
0.0
  0
LINE
  5
DF
330
1F
100
AcDbEntity
  8
0
  6
Continuous
 62
     7
370
    25
100
AcDbLine
 10
-5.505
 20
4.385
 30
0.0
 11
-5.505
 21
4.125
 31
0.0
  0
LINE
  5
E0
330
1F
100
AcDbEntity
  8
0
  6
Continuous
 62
     7
370
    25
100
AcDbLine
 10
-5.505
 20
4.125
 30
0.0
 11
-3.495
 21
4.125
 31
0.0
  0
LINE
  5
E1
330
1F
100
AcDbEntity
  8
0
  6
Continuous
 62
     7
370
    25
100
AcDbLine
 10
5.505
 20
6.125
 30
0.0
 11
5.505
 21
6.385
 31
0.0
  0
LINE
  5
E2
330
1F
100
AcDbEntity
  8
0
  6
Continuous
 62
     7
370
    25
100
AcDbLine
 10
5.505
 20
6.385
 30
0.0
 11
3.495
 21
6.385
 31
0.0
  0
LINE
  5
E3
330
1F
100
AcDbEntity
  8
0
  6
Continuous
 62
     7
370
    25
100
AcDbLine
 10
3.495
 20
6.385
 30
0.0
 11
3.495
 21
6.125
 31
0.0
  0
LINE
  5
E4
330
1F
100
AcDbEntity
  8
0
  6
Continuous
 62
     7
370
    25
100
AcDbLine
 10
3.495
 20
6.125
 30
0.0
 11
5.505
 21
6.125
 31
0.0
  0
LINE
  5
E5
330
1F
100
AcDbEntity
  8
0
  6
Continuous
 62
     7
370
    25
100
AcDbLine
 10
5.505
 20
4.125
 30
0.0
 11
5.505
 21
4.385
 31
0.0
  0
LINE
  5
E6
330
1F
100
AcDbEntity
  8
0
  6
Continuous
 62
     7
370
    25
100
AcDbLine
 10
5.505
 20
4.385
 30
0.0
 11
3.495
 21
4.385
 31
0.0
  0
LINE
  5
E7
330
1F
100
AcDbEntity
  8
0
  6
Continuous
 62
     7
370
    25
100
AcDbLine
 10
3.495
 20
4.385
 30
0.0
 11
3.495
 21
4.125
 31
0.0
  0
LINE
  5
E8
330
1F
100
AcDbEntity
  8
0
  6
Continuous
 62
     7
370
    25
100
AcDbLine
 10
3.495
 20
4.125
 30
0.0
 11
5.505
 21
4.125
 31
0.0
  0
LINE
  5
E9
330
1F
100
AcDbEntity
  8
0
  6
Continuous
 62
     7
370
    25
100
AcDbLine
 10
-3.495
 20
6.125
 30
0.0
 11
-3.495
 21
6.385
 31
0.0
  0
LINE
  5
EA
330
1F
100
AcDbEntity
  8
0
  6
Continuous
 62
     7
370
    25
100
AcDbLine
 10
-3.495
 20
6.385
 30
0.0
 11
-5.505
 21
6.385
 31
0.0
  0
LINE
  5
EB
330
1F
100
AcDbEntity
  8
0
  6
Continuous
 62
     7
370
    25
100
AcDbLine
 10
-5.505
 20
6.385
 30
0.0
 11
-5.505
 21
6.125
 31
0.0
  0
LINE
  5
EC
330
1F
100
AcDbEntity
  8
0
  6
Continuous
 62
     7
370
    25
100
AcDbLine
 10
-5.505
 20
6.125
 30
0.0
 11
-3.495
 21
6.125
 31
0.0
  0
LINE
  5
ED
330
1F
100
AcDbEntity
  8
0
  6
Continuous
 62
     7
370
    25
100
AcDbLine
 10
-5.5
 20
-0.815
 30
0.0
 11
-3.5
 21
-0.815
 31
0.0
  0
LINE
  5
EE
330
1F
100
AcDbEntity
  8
0
  6
Continuous
 62
     7
370
    25
100
AcDbLine
 10
-5.5
 20
-1.075
 30
0.0
 11
-5.5
 21
-0.815
 31
0.0
  0
LINE
  5
EF
330
1F
100
AcDbEntity
  8
0
  6
Continuous
 62
     7
370
    25
100
AcDbLine
 10
-9.5
 20
-1.075
 30
0.0
 11
-5.5
 21
-1.075
 31
0.0
  0
LINE
  5
F0
330
1F
100
AcDbEntity
  8
0
  6
Continuous
 62
     7
370
    25
100
AcDbLine
 10
-9.5
 20
7.625
 30
0.0
 11
-9.5
 21
-1.075
 31
0.0
  0
LINE
  5
F1
330
1F
100
AcDbEntity
  8
0
  6
Continuous
 62
     7
370
    25
100
AcDbLine
 10
9.5
 20
7.625
 30
0.0
 11
-9.5
 21
7.625
 31
0.0
  0
LINE
  5
F2
330
1F
100
AcDbEntity
  8
0
  6
Continuous
 62
     7
370
    25
100
AcDbLine
 10
9.5
 20
-1.075
 30
0.0
 11
9.5
 21
7.625
 31
0.0
  0
LINE
  5
F3
330
1F
100
AcDbEntity
  8
0
  6
Continuous
 62
     7
370
    25
100
AcDbLine
 10
5.5
 20
-1.075
 30
0.0
 11
9.5
 21
-1.075
 31
0.0
  0
LINE
  5
F4
330
1F
100
AcDbEntity
  8
0
  6
Continuous
 62
     7
370
    25
100
AcDbLine
 10
5.5
 20
-0.815
 30
0.0
 11
5.5
 21
-1.075
 31
0.0
  0
LINE
  5
F5
330
1F
100
AcDbEntity
  8
0
  6
Continuous
 62
     7
370
    25
100
AcDbLine
 10
3.5
 20
-0.815
 30
0.0
 11
5.5
 21
-0.815
 31
0.0
  0
LINE
  5
F6
330
1F
100
AcDbEntity
  8
0
  6
Continuous
 62
     7
370
    25
100
AcDbLine
 10
3.5
 20
-1.075
 30
0.0
 11
3.5
 21
-0.815
 31
0.0
  0
LINE
  5
F7
330
1F
100
AcDbEntity
  8
0
  6
Continuous
 62
     7
370
    25
100
AcDbLine
 10
-3.5
 20
-1.075
 30
0.0
 11
3.5
 21
-1.075
 31
0.0
  0
LINE
  5
F8
330
1F
100
AcDbEntity
  8
0
  6
Continuous
 62
     7
370
    25
100
AcDbLine
 10
-3.5
 20
-0.815
 30
0.0
 11
-3.5
 21
-1.075
 31
0.0
  0
LINE
  5
F9
330
1F
100
AcDbEntity
  8
0
  6
Continuous
 62
     7
370
    25
100
AcDbLine
 10
3.3770760843
 20
2.1289437016
 30
0.0
 11
3.6299572387
 21
1.9328541258
 31
0.0
  0
LINE
  5
FA
330
1F
100
AcDbEntity
  8
0
  6
Continuous
 62
     7
370
    25
100
AcDbLine
 10
3.6299572387
 20
1.9328541258
 30
0.0
 11
5.3099572387
 21
1.9328541258
 31
0.0
  0
LINE
  5
FB
330
1F
100
AcDbEntity
  8
0
  6
Continuous
 62
     7
370
    25
100
AcDbLine
 10
5.3899572387
 20
2.0128541258
 30
0.0
 11
5.3899572387
 21
2.9528541258
 31
0.0
  0
LINE
  5
FC
330
1F
100
AcDbEntity
  8
0
  6
Continuous
 62
     7
370
    25
100
AcDbLine
 10
5.3099572387
 20
3.0328541258
 30
0.0
 11
3.6299572387
 21
3.0328541258
 31
0.0
  0
LINE
  5
FD
330
1F
100
AcDbEntity
  8
0
  6
Continuous
 62
     7
370
    25
100
AcDbLine
 10
3.6299572387
 20
3.0328541258
 30
0.0
 11
3.3770760843
 21
2.83676455
 31
0.0
  0
LINE
  5
FE
330
1F
100
AcDbEntity
  8
0
  6
Continuous
 62
     7
370
    25
100
AcDbLine
 10
3.3770760843
 20
2.83676455
 30
0.0
 11
3.3770760843
 21
2.1289437016
 31
0.0
  0
ARC
  5
FF
330
1F
100
AcDbEntity
  8
0
  6
Continuous
 62
     7
370
    25
100
AcDbCircle
 10
5.3099572387
 20
2.0128541258
 30
0.0
 40
0.0799999999999979
100
AcDbArc
 50
270.0
 51
0.0
  0
ARC
  5
100
330
1F
100
AcDbEntity
  8
0
  6
Continuous
 62
     7
370
    25
100
AcDbCircle
 10
5.3099572387
 20
2.9528541258
 30
0.0
 40
0.0799999999999983
100
AcDbArc
 50
0.0
 51
90.0
  0
MTEXT
  5
102
330
1F
100
AcDbEntity
  8
0
  6
Continuous
 62
     7
100
AcDbMText
 10
-9.5
 20
-1.1151404091
 30
0.0
 40
0.1903
 41
0.0
 71
     1
 72
     1
  1
SOLIDWORKS Educational Product.
  7
SLDTEXTSTYLE0
 73
     1
 44
1.0
  0
MTEXT
  5
103
330
1F
100
AcDbEntity
  8
0
  6
Continuous
 62
     7
100
AcDbMText
 10
-9.5
 20
-1.4005904091
 30
0.0
 40
0.1903
 41
0.0
 71
     1
 72
     1
  1
For Instructional Use Only.
  7
SLDTEXTSTYLE0
 73
     1
 44
1.0
  0
ENDSEC
  0
SECTION
  2
OBJECTS
  0
DICTIONARY
  5
C
330
0
100
AcDbDictionary
281
     1
  3
ACAD_GROUP
350
D
  3
ACAD_LAYOUT
350
1A
  3
ACAD_MLINESTYLE
350
17
  3
ACAD_PLOTSETTINGS
350
19
  3
ACAD_PLOTSTYLENAME
350
E
  3
ACAD_SCALELIST
350
47
  3
DWGPROPS
350
104
  0
DICTIONARY
  5
D
102
{ACAD_REACTORS
330
C
102
}
330
C
100
AcDbDictionary
281
     1
  0
DICTIONARY
  5
1A
102
{ACAD_REACTORS
330
C
102
}
330
C
100
AcDbDictionary
281
     1
  3
Layout1
350
1E
  3
Layout2
350
26
  3
Model
350
22
  0
DICTIONARY
  5
17
102
{ACAD_REACTORS
330
C
102
}
330
C
100
AcDbDictionary
281
     1
  3
Standard
350
18
  0
DICTIONARY
  5
19
102
{ACAD_REACTORS
330
C
102
}
330
C
100
AcDbDictionary
281
     1
  0
ACDBDICTIONARYWDFLT
  5
E
102
{ACAD_REACTORS
330
C
102
}
330
C
100
AcDbDictionary
281
     1
  3
Normal
350
F
100
AcDbDictionaryWithDefault
340
F
  0
DICTIONARY
  5
47
102
{ACAD_REACTORS
330
C
102
}
330
C
100
AcDbDictionary
281
     1
  3
A0
350
48
  3
A1
350
49
  3
A2
350
4A
  3
A3
350
4B
  3
A4
350
4C
  3
A5
350
4D
  3
A6
350
4E
  3
A7
350
4F
  3
A8
350
50
  3
A9
350
51
  3
B1
350
52
  3
B2
350
53
  3
B3
350
54
  3
B4
350
55
  3
B5
350
56
  3
B6
350
57
  3
B7
350
58
  0
XRECORD
  5
104
102
{ACAD_REACTORS
330
C
102
}
330
C
100
AcDbXrecord
280
     1
  1
DWGPROPS COOKIE
  2

  3

  4

  6

  7

  8
jclark_deeplocal
  9

300
=
301
=
302
=
303
=
304
=
305
=
306
=
307
=
308
=
309
=
 40
0.0
 41
2460164.638479433
 42
2460164.63850956
  1

 90
        0
  0
LAYOUT
  5
1E
102
{ACAD_REACTORS
330
1A
102
}
330
1A
100
AcDbPlotSettings
  1

  2
none_device
  4

  6

 40
0.0
 41
0.0
 42
0.0
 43
0.0
 44
0.0
 45
0.0
 46
0.0
 47
0.0
 48
0.0
 49
0.0
140
0.0
141
0.0
142
1.0
143
1.0
 70
   688
 72
     0
 73
     0
 74
     5
  7

 75
    16
147
1.0
148
0.0
149
0.0
100
AcDbLayout
  1
Layout1
 70
     1
 71
     1
 10
0.0
 20
0.0
 11
12.0
 21
9.0
 12
0.0
 22
0.0
 32
0.0
 14
1.0000000000E+20
 24
1.0000000000E+20
 34
1.0000000000E+20
 15
-1.0000000000E+20
 25
-1.0000000000E+20
 35
-1.0000000000E+20
146
0.0
 13
0.0
 23
0.0
 33
0.0
 16
1.0
 26
0.0
 36
0.0
 17
0.0
 27
1.0
 37
0.0
 76
     0
330
1B
  0
LAYOUT
  5
26
102
{ACAD_REACTORS
330
1A
102
}
330
1A
100
AcDbPlotSettings
  1

  2
none_device
  4

  6

 40
0.0
 41
0.0
 42
0.0
 43
0.0
 44
0.0
 45
0.0
 46
0.0
 47
0.0
 48
0.0
 49
0.0
140
0.0
141
0.0
142
1.0
143
1.0
 70
   688
 72
     0
 73
     0
 74
     5
  7

 75
    16
147
1.0
148
0.0
149
0.0
100
AcDbLayout
  1
Layout2
 70
     1
 71
     2
 10
0.0
 20
0.0
 11
0.0
 21
0.0
 12
0.0
 22
0.0
 32
0.0
 14
0.0
 24
0.0
 34
0.0
 15
0.0
 25
0.0
 35
0.0
146
0.0
 13
0.0
 23
0.0
 33
0.0
 16
1.0
 26
0.0
 36
0.0
 17
0.0
 27
1.0
 37
0.0
 76
     0
330
23
  0
LAYOUT
  5
22
102
{ACAD_REACTORS
330
1A
102
}
330
1A
100
AcDbPlotSettings
  1

  2
none_device
  4
ANSI_A_(11.00_x_8.50_Inches)
  6

 40
6.35
 41
19.05
 42
6.35000508
 43
19.05000254
 44
279.4
 45
215.9
 46
133.34999746
 47
41.2218592563
 48
0.0
 49
0.0
140
0.0
141
0.0
142
0.5731578947
143
1.0
 70
  1696
 72
     0
 73
     0
 74
     0
  7

 75
     0
147
0.5913241897
148
-39.4088153714
149
0.0
100
AcDbLayout
  1
Model
 70
     1
 71
     0
 10
0.0
 20
0.0
 11
12.0
 21
9.0
 12
0.0
 22
0.0
 32
0.0
 14
-9.5
 24
-1.075
 34
0.0
 15
9.5
 25
7.625
 35
0.0
146
0.0
 13
0.0
 23
0.0
 33
0.0
 16
1.0
 26
0.0
 36
0.0
 17
0.0
 27
1.0
 37
0.0
 76
     0
330
1F
331
29
  0
MLINESTYLE
  5
18
102
{ACAD_REACTORS
330
17
102
}
330
17
100
AcDbMlineStyle
  2
Standard
 70
     0
  3

 62
   256
 51
90.0
 52
90.0
 71
     2
 49
0.5
 62
   256
  6
BYLAYER
 49
-0.5
 62
   256
  6
BYLAYER
  0
ACDBPLACEHOLDER
  5
F
102
{ACAD_REACTORS
330
E
102
}
330
E
  0
SCALE
  5
48
102
{ACAD_REACTORS
330
47
102
}
330
47
100
AcDbScale
 70
     0
300
1:1
140
1.0
141
1.0
290
     1
  0
SCALE
  5
49
102
{ACAD_REACTORS
330
47
102
}
330
47
100
AcDbScale
 70
     0
300
1/128" = 1'-0"
140
0.0078125
141
12.0
290
     0
  0
SCALE
  5
4A
102
{ACAD_REACTORS
330
47
102
}
330
47
100
AcDbScale
 70
     0
300
1/64" = 1'-0"
140
0.015625
141
12.0
290
     0
  0
SCALE
  5
4B
102
{ACAD_REACTORS
330
47
102
}
330
47
100
AcDbScale
 70
     0
300
1/32" = 1'-0"
140
0.03125
141
12.0
290
     0
  0
SCALE
  5
4C
102
{ACAD_REACTORS
330
47
102
}
330
47
100
AcDbScale
 70
     0
300
1/16" = 1'-0"
140
0.0625
141
12.0
290
     0
  0
SCALE
  5
4D
102
{ACAD_REACTORS
330
47
102
}
330
47
100
AcDbScale
 70
     0
300
3/32" = 1'-0"
140
0.09375
141
12.0
290
     0
  0
SCALE
  5
4E
102
{ACAD_REACTORS
330
47
102
}
330
47
100
AcDbScale
 70
     0
300
1/8" = 1'-0"
140
0.125
141
12.0
290
     0
  0
SCALE
  5
4F
102
{ACAD_REACTORS
330
47
102
}
330
47
100
AcDbScale
 70
     0
300
3/16" = 1'-0"
140
0.1875
141
12.0
290
     0
  0
SCALE
  5
50
102
{ACAD_REACTORS
330
47
102
}
330
47
100
AcDbScale
 70
     0
300
1/4" = 1'-0"
140
0.25
141
12.0
290
     0
  0
SCALE
  5
51
102
{ACAD_REACTORS
330
47
102
}
330
47
100
AcDbScale
 70
     0
300
3/8" = 1'-0"
140
0.375
141
12.0
290
     0
  0
SCALE
  5
52
102
{ACAD_REACTORS
330
47
102
}
330
47
100
AcDbScale
 70
     0
300
1/2" = 1'-0"
140
0.5
141
12.0
290
     0
  0
SCALE
  5
53
102
{ACAD_REACTORS
330
47
102
}
330
47
100
AcDbScale
 70
     0
300
3/4" = 1'-0"
140
0.75
141
12.0
290
     0
  0
SCALE
  5
54
102
{ACAD_REACTORS
330
47
102
}
330
47
100
AcDbScale
 70
     0
300
1" = 1'-0"
140
1.0
141
12.0
290
     0
  0
SCALE
  5
55
102
{ACAD_REACTORS
330
47
102
}
330
47
100
AcDbScale
 70
     0
300
1-1/2" = 1'-0"
140
1.5
141
12.0
290
     0
  0
SCALE
  5
56
102
{ACAD_REACTORS
330
47
102
}
330
47
100
AcDbScale
 70
     0
300
3" = 1'-0"
140
3.0
141
12.0
290
     0
  0
SCALE
  5
57
102
{ACAD_REACTORS
330
47
102
}
330
47
100
AcDbScale
 70
     0
300
6" = 1'-0"
140
6.0
141
12.0
290
     0
  0
SCALE
  5
58
102
{ACAD_REACTORS
330
47
102
}
330
47
100
AcDbScale
 70
     0
300
1'-0" = 1'-0"
140
12.0
141
12.0
290
     0
  0
ENDSEC
  0
EOF
